M48
; DRILL file {KiCad (6.0.2)} date Sat Aug 27 10:29:18 2022
; FORMAT={-:-/ absolute / metric / decimal}
; #@! TF.CreationDate,2022-08-27T10:29:18-07:00
; #@! TF.GenerationSoftware,Kicad,Pcbnew,(6.0.2)
; #@! TF.FileFunction,Plated,1,2,PTH
FMAT,2
METRIC
; #@! TA.AperFunction,Plated,PTH,ViaDrill
T1C0.300
; #@! TA.AperFunction,Plated,PTH,ViaDrill
T2C0.400
; #@! TA.AperFunction,Plated,PTH,ComponentDrill
T3C0.500
; #@! TA.AperFunction,Plated,PTH,ComponentDrill
T4C0.600
; #@! TA.AperFunction,Plated,PTH,ComponentDrill
T5C1.000
; #@! TA.AperFunction,Plated,PTH,ComponentDrill
T6C1.470
; #@! TA.AperFunction,Plated,PTH,ComponentDrill
T7C2.700
%
G90
G05
T1
X41.251Y-59.361
X45.093Y-53.45
X47.361Y-54.95
X50.649Y-59.361
X54.05Y-78.411
X58.217Y-97.461
X59.462Y-78.411
X61.961Y-115.94
X63.857Y-97.461
X66.787Y-115.94
X98.044Y-117.856
X118.035Y-133.529
X119.39Y-117.231
X121.071Y-127.04
X121.158Y-128.74
X121.412Y-132.715
X124.571Y-127.08
X128.087Y-117.163
X135.76Y-127.566
X170.18Y-117.115
X189.23Y-117.115
T2
X44.196Y-54.356
X46.605Y-54.344
X115.814Y-126.276
X116.836Y-125.254
X117.598Y-134.525
X118.9Y-124.3
X119.5Y-119.35
X121.696Y-127.804
X129.8Y-121.82
X130.65Y-120.9
X132.965Y-124.492
X136.719Y-124.662
T3
X48.947Y-128.638
X48.947Y-132.232
X50.644Y-128.035
X50.644Y-132.835
X52.341Y-128.638
X52.341Y-132.232
X85.874Y-109.659
X85.874Y-113.253
X87.571Y-109.056
X87.571Y-113.856
X89.268Y-109.659
X89.268Y-113.253
X152.579Y-90.564
X152.579Y-94.158
X154.276Y-89.961
X154.276Y-94.761
X155.973Y-90.564
X155.973Y-94.158
X185.904Y-71.514
X185.904Y-75.108
X187.601Y-70.911
X187.601Y-75.711
X189.298Y-71.514
X189.298Y-75.108
X211.406Y-128.547
X211.406Y-132.141
X213.103Y-127.944
X213.103Y-132.744
X214.8Y-128.547
X214.8Y-132.141
X271.67Y-52.504
X271.67Y-56.098
X273.367Y-51.901
X273.367Y-56.701
X275.064Y-52.504
X275.064Y-56.098
X285.147Y-71.478
X285.147Y-75.072
X286.844Y-70.875
X286.844Y-75.675
X288.541Y-71.478
X288.541Y-75.072
X309.694Y-119.123
X309.694Y-122.717
X311.391Y-118.52
X311.391Y-123.32
X313.088Y-119.123
X313.088Y-122.717
T5
X135.528Y-132.859
X135.528Y-135.399
X138.068Y-132.859
X138.068Y-135.399
X140.608Y-132.859
X140.608Y-135.399
X143.148Y-132.859
X143.148Y-135.399
T6
X31.365Y-51.721
X32.675Y-50.261
X33.746Y-127.921
X35.056Y-126.461
X36.127Y-70.771
X37.438Y-69.311
X37.675Y-49.761
X37.715Y-49.181
X38.509Y-89.821
X39.819Y-88.361
X40.056Y-125.961
X40.096Y-125.381
X42.438Y-68.811
X42.477Y-68.231
X43.271Y-108.871
X44.581Y-107.411
X44.819Y-87.861
X44.859Y-87.281
X49.581Y-106.911
X49.621Y-106.331
X50.415Y-51.721
X51.725Y-50.261
X56.725Y-49.761
X56.765Y-49.181
X57.559Y-127.921
X58.869Y-126.461
X59.94Y-70.771
X61.25Y-69.311
X63.869Y-125.961
X63.909Y-125.381
X64.703Y-89.821
X66.013Y-88.361
X66.25Y-68.811
X66.29Y-68.231
X69.465Y-51.721
X70.775Y-50.261
X71.013Y-87.861
X71.052Y-87.281
X74.227Y-108.871
X75.537Y-107.411
X75.775Y-49.761
X75.815Y-49.181
X78.99Y-70.771
X80.3Y-69.311
X80.537Y-106.911
X80.578Y-106.331
X81.371Y-127.921
X82.681Y-126.461
X83.752Y-89.821
X85.062Y-88.361
X85.3Y-68.811
X85.34Y-68.231
X87.681Y-125.961
X87.721Y-125.381
X88.515Y-51.721
X89.825Y-50.261
X90.062Y-87.861
X90.102Y-87.281
X93.277Y-108.871
X94.587Y-107.411
X94.825Y-49.761
X94.865Y-49.181
X98.04Y-70.771
X99.35Y-69.311
X99.587Y-106.911
X99.627Y-106.331
X102.802Y-89.821
X104.112Y-88.361
X104.35Y-68.811
X104.39Y-68.231
X107.565Y-51.721
X108.875Y-50.261
X109.112Y-87.861
X109.152Y-87.281
X112.328Y-108.871
X113.637Y-107.411
X113.875Y-49.761
X113.915Y-49.181
X117.09Y-70.771
X118.4Y-69.311
X118.637Y-106.911
X118.677Y-106.331
X121.852Y-89.821
X123.162Y-88.361
X123.4Y-68.811
X123.44Y-68.231
X126.615Y-51.721
X127.925Y-50.261
X128.162Y-87.861
X128.202Y-87.281
X131.377Y-108.871
X132.688Y-107.411
X132.925Y-49.761
X132.965Y-49.181
X136.14Y-70.771
X137.45Y-69.311
X137.688Y-106.911
X137.727Y-106.331
X140.903Y-89.821
X142.213Y-88.361
X142.45Y-68.811
X142.49Y-68.231
X145.665Y-51.721
X146.975Y-50.261
X147.213Y-87.861
X147.252Y-87.281
X150.427Y-108.871
X151.737Y-107.411
X151.975Y-49.761
X152.015Y-49.181
X152.809Y-127.921
X154.119Y-126.461
X155.19Y-70.771
X156.5Y-69.311
X156.737Y-106.911
X156.778Y-106.331
X159.119Y-125.961
X159.159Y-125.381
X159.952Y-89.821
X161.262Y-88.361
X161.5Y-68.811
X161.54Y-68.231
X164.715Y-51.721
X166.025Y-50.261
X166.262Y-87.861
X166.302Y-87.281
X169.477Y-108.871
X170.787Y-107.411
X171.025Y-49.761
X171.065Y-49.181
X174.24Y-70.771
X175.55Y-69.311
X175.787Y-106.911
X175.827Y-106.331
X179.002Y-89.821
X180.312Y-88.361
X180.55Y-68.811
X180.59Y-68.231
X183.765Y-51.721
X185.075Y-50.261
X185.312Y-87.861
X185.352Y-87.281
X188.528Y-108.871
X189.837Y-107.411
X190.075Y-49.761
X190.115Y-49.181
X193.29Y-70.771
X194.6Y-69.311
X194.837Y-106.911
X194.877Y-106.331
X198.052Y-89.821
X199.362Y-88.361
X199.6Y-68.811
X199.64Y-68.231
X202.815Y-51.721
X204.125Y-50.261
X204.362Y-87.861
X204.403Y-87.281
X207.577Y-108.871
X208.887Y-107.411
X209.125Y-49.761
X209.165Y-49.181
X212.34Y-70.771
X213.65Y-69.311
X213.887Y-106.911
X213.927Y-106.331
X217.102Y-89.821
X218.412Y-88.361
X218.65Y-68.811
X218.69Y-68.231
X221.865Y-51.721
X221.865Y-127.921
X223.175Y-50.261
X223.175Y-126.461
X223.412Y-87.861
X223.452Y-87.281
X226.627Y-108.871
X227.938Y-107.411
X228.175Y-49.761
X228.175Y-125.961
X228.215Y-49.181
X228.215Y-125.381
X231.39Y-70.771
X232.7Y-69.311
X232.938Y-106.911
X232.977Y-106.331
X236.153Y-89.821
X237.462Y-88.361
X237.7Y-68.811
X237.74Y-68.231
X240.915Y-51.721
X240.915Y-127.921
X242.225Y-50.261
X242.225Y-126.461
X242.462Y-87.861
X242.502Y-87.281
X245.677Y-108.871
X246.987Y-107.411
X247.225Y-49.761
X247.225Y-125.961
X247.265Y-49.181
X247.265Y-125.381
X250.44Y-70.771
X251.75Y-69.311
X251.987Y-106.911
X252.027Y-106.331
X255.202Y-89.821
X256.512Y-88.361
X256.75Y-68.811
X256.79Y-68.231
X259.965Y-51.721
X259.965Y-127.921
X261.275Y-50.261
X261.275Y-126.461
X261.512Y-87.861
X261.553Y-87.281
X266.275Y-49.761
X266.275Y-125.961
X266.315Y-49.181
X266.315Y-125.381
X269.49Y-70.771
X270.8Y-69.311
X271.871Y-108.871
X273.181Y-107.411
X275.8Y-68.811
X275.84Y-68.231
X278.181Y-106.911
X278.221Y-106.331
X279.015Y-127.921
X280.325Y-126.461
X285.325Y-125.961
X285.365Y-125.381
X286.159Y-89.821
X287.469Y-88.361
X288.54Y-51.721
X289.85Y-50.261
X292.469Y-87.861
X292.509Y-87.281
X293.303Y-70.771
X294.613Y-69.311
X294.85Y-49.761
X294.89Y-49.181
X298.065Y-108.871
X298.065Y-127.921
X299.375Y-107.411
X299.375Y-126.461
X299.613Y-68.811
X299.652Y-68.231
X304.375Y-106.911
X304.375Y-125.961
X304.415Y-106.331
X304.415Y-125.381
X317.115Y-51.721
X317.115Y-70.771
X317.115Y-89.821
X317.115Y-108.871
X317.115Y-127.921
X318.425Y-50.261
X318.425Y-69.311
X318.425Y-88.361
X318.425Y-107.411
X318.425Y-126.461
X323.425Y-49.761
X323.425Y-68.811
X323.425Y-87.861
X323.425Y-106.911
X323.425Y-125.961
X323.465Y-49.181
X323.465Y-68.231
X323.465Y-87.281
X323.465Y-106.331
X323.465Y-125.381
T7
X50.146Y-73.321
X63.659Y-54.347
T4
X39.552Y-46.5G85X39.552Y-47.1
G05
X39.552Y-50.43G85X39.552Y-51.53
G05
X48.192Y-46.5G85X48.192Y-47.1
G05
X48.192Y-50.43G85X48.192Y-51.53
G05
T7
X49.394Y-130.435G85X51.894Y-130.435
G05
X86.321Y-111.456G85X88.821Y-111.456
G05
X153.026Y-92.361G85X155.526Y-92.361
G05
X186.351Y-73.311G85X188.851Y-73.311
G05
X211.853Y-130.344G85X214.353Y-130.344
G05
X272.117Y-54.301G85X274.617Y-54.301
G05
X285.594Y-73.275G85X288.094Y-73.275
G05
X310.141Y-120.92G85X312.641Y-120.92
G05
T0
M30
