G04 #@! TF.GenerationSoftware,KiCad,Pcbnew,(6.0.2)*
G04 #@! TF.CreationDate,2022-08-27T10:29:13-07:00*
G04 #@! TF.ProjectId,Alps68,416c7073-3638-42e6-9b69-6361645f7063,A*
G04 #@! TF.SameCoordinates,Original*
G04 #@! TF.FileFunction,Legend,Bot*
G04 #@! TF.FilePolarity,Positive*
%FSLAX46Y46*%
G04 Gerber Fmt 4.6, Leading zero omitted, Abs format (unit mm)*
G04 Created by KiCad (PCBNEW (6.0.2)) date 2022-08-27 10:29:13*
%MOMM*%
%LPD*%
G01*
G04 APERTURE LIST*
G04 Aperture macros list*
%AMRoundRect*
0 Rectangle with rounded corners*
0 $1 Rounding radius*
0 $2 $3 $4 $5 $6 $7 $8 $9 X,Y pos of 4 corners*
0 Add a 4 corners polygon primitive as box body*
4,1,4,$2,$3,$4,$5,$6,$7,$8,$9,$2,$3,0*
0 Add four circle primitives for the rounded corners*
1,1,$1+$1,$2,$3*
1,1,$1+$1,$4,$5*
1,1,$1+$1,$6,$7*
1,1,$1+$1,$8,$9*
0 Add four rect primitives between the rounded corners*
20,1,$1+$1,$2,$3,$4,$5,0*
20,1,$1+$1,$4,$5,$6,$7,0*
20,1,$1+$1,$6,$7,$8,$9,0*
20,1,$1+$1,$8,$9,$2,$3,0*%
%AMHorizOval*
0 Thick line with rounded ends*
0 $1 width*
0 $2 $3 position (X,Y) of the first rounded end (center of the circle)*
0 $4 $5 position (X,Y) of the second rounded end (center of the circle)*
0 Add line between two ends*
20,1,$1,$2,$3,$4,$5,0*
0 Add two circle primitives to create the rounded ends*
1,1,$1,$2,$3*
1,1,$1,$4,$5*%
G04 Aperture macros list end*
%ADD10C,0.150000*%
%ADD11C,0.350000*%
%ADD12C,0.120000*%
%ADD13C,3.987800*%
%ADD14C,1.750000*%
%ADD15C,2.250000*%
%ADD16HorizOval,2.250000X0.655008X0.729993X-0.655008X-0.729993X0*%
%ADD17HorizOval,2.250000X0.020004X0.290000X-0.020004X-0.290000X0*%
%ADD18C,0.800000*%
%ADD19C,6.400000*%
%ADD20C,3.048000*%
%ADD21C,5.400000*%
%ADD22RoundRect,0.160000X0.240000X-0.340000X0.240000X0.340000X-0.240000X0.340000X-0.240000X-0.340000X0*%
%ADD23RoundRect,0.150000X0.350000X0.150000X-0.350000X0.150000X-0.350000X-0.150000X0.350000X-0.150000X0*%
%ADD24RoundRect,0.250000X0.250000X0.475000X-0.250000X0.475000X-0.250000X-0.475000X0.250000X-0.475000X0*%
%ADD25RoundRect,0.250000X-0.250000X-0.475000X0.250000X-0.475000X0.250000X0.475000X-0.250000X0.475000X0*%
%ADD26RoundRect,0.250000X-0.262500X-0.450000X0.262500X-0.450000X0.262500X0.450000X-0.262500X0.450000X0*%
%ADD27RoundRect,0.250000X0.450000X-0.262500X0.450000X0.262500X-0.450000X0.262500X-0.450000X-0.262500X0*%
%ADD28RoundRect,0.250000X0.475000X-0.250000X0.475000X0.250000X-0.475000X0.250000X-0.475000X-0.250000X0*%
%ADD29C,0.650000*%
%ADD30R,0.600000X1.450000*%
%ADD31R,0.300000X1.450000*%
%ADD32O,1.000000X2.100000*%
%ADD33O,1.000000X1.600000*%
%ADD34R,1.700000X1.700000*%
%ADD35O,1.700000X1.700000*%
%ADD36RoundRect,0.200000X0.300000X0.325000X-0.300000X0.325000X-0.300000X-0.325000X0.300000X-0.325000X0*%
%ADD37RoundRect,0.120000X0.180000X0.405000X-0.180000X0.405000X-0.180000X-0.405000X0.180000X-0.405000X0*%
%ADD38RoundRect,0.150000X0.587500X0.150000X-0.587500X0.150000X-0.587500X-0.150000X0.587500X-0.150000X0*%
%ADD39RoundRect,0.075000X0.662500X0.075000X-0.662500X0.075000X-0.662500X-0.075000X0.662500X-0.075000X0*%
%ADD40RoundRect,0.075000X0.075000X0.662500X-0.075000X0.662500X-0.075000X-0.662500X0.075000X-0.662500X0*%
%ADD41RoundRect,0.243750X0.456250X-0.243750X0.456250X0.243750X-0.456250X0.243750X-0.456250X-0.243750X0*%
G04 APERTURE END LIST*
D10*
X147915142Y-133264185D02*
X147772285Y-133311804D01*
X147534190Y-133311804D01*
X147438952Y-133264185D01*
X147391333Y-133216566D01*
X147343714Y-133121328D01*
X147343714Y-133026090D01*
X147391333Y-132930852D01*
X147438952Y-132883233D01*
X147534190Y-132835614D01*
X147724666Y-132787995D01*
X147819904Y-132740376D01*
X147867523Y-132692757D01*
X147915142Y-132597519D01*
X147915142Y-132502281D01*
X147867523Y-132407043D01*
X147819904Y-132359424D01*
X147724666Y-132311804D01*
X147486571Y-132311804D01*
X147343714Y-132359424D01*
X147010380Y-132311804D02*
X146772285Y-133311804D01*
X146581809Y-132597519D01*
X146391333Y-133311804D01*
X146153238Y-132311804D01*
X145772285Y-133311804D02*
X145772285Y-132311804D01*
X145534190Y-132311804D01*
X145391333Y-132359424D01*
X145296095Y-132454662D01*
X145248476Y-132549900D01*
X145200857Y-132740376D01*
X145200857Y-132883233D01*
X145248476Y-133073709D01*
X145296095Y-133168947D01*
X145391333Y-133264185D01*
X145534190Y-133311804D01*
X145772285Y-133311804D01*
X185759523Y-133002380D02*
X185759523Y-132002380D01*
X185759523Y-132954761D02*
X185854761Y-133002380D01*
X186045238Y-133002380D01*
X186140476Y-132954761D01*
X186188095Y-132907142D01*
X186235714Y-132811904D01*
X186235714Y-132526190D01*
X186188095Y-132430952D01*
X186140476Y-132383333D01*
X186045238Y-132335714D01*
X185854761Y-132335714D01*
X185759523Y-132383333D01*
X184902380Y-132954761D02*
X184997619Y-133002380D01*
X185188095Y-133002380D01*
X185283333Y-132954761D01*
X185330952Y-132859523D01*
X185330952Y-132478571D01*
X185283333Y-132383333D01*
X185188095Y-132335714D01*
X184997619Y-132335714D01*
X184902380Y-132383333D01*
X184854761Y-132478571D01*
X184854761Y-132573809D01*
X185330952Y-132669047D01*
X184473809Y-132954761D02*
X184378571Y-133002380D01*
X184188095Y-133002380D01*
X184092857Y-132954761D01*
X184045238Y-132859523D01*
X184045238Y-132811904D01*
X184092857Y-132716666D01*
X184188095Y-132669047D01*
X184330952Y-132669047D01*
X184426190Y-132621428D01*
X184473809Y-132526190D01*
X184473809Y-132478571D01*
X184426190Y-132383333D01*
X184330952Y-132335714D01*
X184188095Y-132335714D01*
X184092857Y-132383333D01*
X183616666Y-133002380D02*
X183616666Y-132335714D01*
X183616666Y-132002380D02*
X183664285Y-132050000D01*
X183616666Y-132097619D01*
X183569047Y-132050000D01*
X183616666Y-132002380D01*
X183616666Y-132097619D01*
X182711904Y-132335714D02*
X182711904Y-133145238D01*
X182759523Y-133240476D01*
X182807142Y-133288095D01*
X182902380Y-133335714D01*
X183045238Y-133335714D01*
X183140476Y-133288095D01*
X182711904Y-132954761D02*
X182807142Y-133002380D01*
X182997619Y-133002380D01*
X183092857Y-132954761D01*
X183140476Y-132907142D01*
X183188095Y-132811904D01*
X183188095Y-132526190D01*
X183140476Y-132430952D01*
X183092857Y-132383333D01*
X182997619Y-132335714D01*
X182807142Y-132335714D01*
X182711904Y-132383333D01*
X182235714Y-132335714D02*
X182235714Y-133002380D01*
X182235714Y-132430952D02*
X182188095Y-132383333D01*
X182092857Y-132335714D01*
X181950000Y-132335714D01*
X181854761Y-132383333D01*
X181807142Y-132478571D01*
X181807142Y-133002380D01*
X180950000Y-132954761D02*
X181045238Y-133002380D01*
X181235714Y-133002380D01*
X181330952Y-132954761D01*
X181378571Y-132859523D01*
X181378571Y-132478571D01*
X181330952Y-132383333D01*
X181235714Y-132335714D01*
X181045238Y-132335714D01*
X180950000Y-132383333D01*
X180902380Y-132478571D01*
X180902380Y-132573809D01*
X181378571Y-132669047D01*
X180045238Y-133002380D02*
X180045238Y-132002380D01*
X180045238Y-132954761D02*
X180140476Y-133002380D01*
X180330952Y-133002380D01*
X180426190Y-132954761D01*
X180473809Y-132907142D01*
X180521428Y-132811904D01*
X180521428Y-132526190D01*
X180473809Y-132430952D01*
X180426190Y-132383333D01*
X180330952Y-132335714D01*
X180140476Y-132335714D01*
X180045238Y-132383333D01*
X178807142Y-133002380D02*
X178807142Y-132002380D01*
X178807142Y-132383333D02*
X178711904Y-132335714D01*
X178521428Y-132335714D01*
X178426190Y-132383333D01*
X178378571Y-132430952D01*
X178330952Y-132526190D01*
X178330952Y-132811904D01*
X178378571Y-132907142D01*
X178426190Y-132954761D01*
X178521428Y-133002380D01*
X178711904Y-133002380D01*
X178807142Y-132954761D01*
X177997619Y-132335714D02*
X177759523Y-133002380D01*
X177521428Y-132335714D02*
X177759523Y-133002380D01*
X177854761Y-133240476D01*
X177902380Y-133288095D01*
X177997619Y-133335714D01*
X175950000Y-132954761D02*
X176045238Y-133002380D01*
X176235714Y-133002380D01*
X176330952Y-132954761D01*
X176378571Y-132907142D01*
X176426190Y-132811904D01*
X176426190Y-132526190D01*
X176378571Y-132430952D01*
X176330952Y-132383333D01*
X176235714Y-132335714D01*
X176045238Y-132335714D01*
X175950000Y-132383333D01*
X175378571Y-133002380D02*
X175473809Y-132954761D01*
X175521428Y-132859523D01*
X175521428Y-132002380D01*
X174569047Y-133002380D02*
X174569047Y-132478571D01*
X174616666Y-132383333D01*
X174711904Y-132335714D01*
X174902380Y-132335714D01*
X174997619Y-132383333D01*
X174569047Y-132954761D02*
X174664285Y-133002380D01*
X174902380Y-133002380D01*
X174997619Y-132954761D01*
X175045238Y-132859523D01*
X175045238Y-132764285D01*
X174997619Y-132669047D01*
X174902380Y-132621428D01*
X174664285Y-132621428D01*
X174569047Y-132573809D01*
X173664285Y-132954761D02*
X173759523Y-133002380D01*
X173950000Y-133002380D01*
X174045238Y-132954761D01*
X174092857Y-132907142D01*
X174140476Y-132811904D01*
X174140476Y-132526190D01*
X174092857Y-132430952D01*
X174045238Y-132383333D01*
X173950000Y-132335714D01*
X173759523Y-132335714D01*
X173664285Y-132383333D01*
X173235714Y-133002380D02*
X173235714Y-132002380D01*
X173140476Y-132621428D02*
X172854761Y-133002380D01*
X172854761Y-132335714D02*
X173235714Y-132716666D01*
X172521428Y-132335714D02*
X172330952Y-133002380D01*
X172140476Y-132526190D01*
X171950000Y-133002380D01*
X171759523Y-132335714D01*
X171235714Y-133002380D02*
X171330952Y-132954761D01*
X171378571Y-132907142D01*
X171426190Y-132811904D01*
X171426190Y-132526190D01*
X171378571Y-132430952D01*
X171330952Y-132383333D01*
X171235714Y-132335714D01*
X171092857Y-132335714D01*
X170997619Y-132383333D01*
X170950000Y-132430952D01*
X170902380Y-132526190D01*
X170902380Y-132811904D01*
X170950000Y-132907142D01*
X170997619Y-132954761D01*
X171092857Y-133002380D01*
X171235714Y-133002380D01*
X170473809Y-133002380D02*
X170473809Y-132335714D01*
X170473809Y-132526190D02*
X170426190Y-132430952D01*
X170378571Y-132383333D01*
X170283333Y-132335714D01*
X170188095Y-132335714D01*
X169854761Y-133002380D02*
X169854761Y-132002380D01*
X169759523Y-132621428D02*
X169473809Y-133002380D01*
X169473809Y-132335714D02*
X169854761Y-132716666D01*
X169092857Y-132954761D02*
X168997619Y-133002380D01*
X168807142Y-133002380D01*
X168711904Y-132954761D01*
X168664285Y-132859523D01*
X168664285Y-132811904D01*
X168711904Y-132716666D01*
X168807142Y-132669047D01*
X168950000Y-132669047D01*
X169045238Y-132621428D01*
X169092857Y-132526190D01*
X169092857Y-132478571D01*
X169045238Y-132383333D01*
X168950000Y-132335714D01*
X168807142Y-132335714D01*
X168711904Y-132383333D01*
D11*
X185792857Y-130225000D02*
X184007142Y-130225000D01*
X186150000Y-131296428D02*
X184900000Y-127546428D01*
X183650000Y-131296428D01*
X180614285Y-131296428D02*
X182400000Y-131296428D01*
X182400000Y-127546428D01*
X179364285Y-131296428D02*
X179364285Y-127546428D01*
X177935714Y-127546428D01*
X177578571Y-127725000D01*
X177400000Y-127903571D01*
X177221428Y-128260714D01*
X177221428Y-128796428D01*
X177400000Y-129153571D01*
X177578571Y-129332142D01*
X177935714Y-129510714D01*
X179364285Y-129510714D01*
X175792857Y-131117857D02*
X175257142Y-131296428D01*
X174364285Y-131296428D01*
X174007142Y-131117857D01*
X173828571Y-130939285D01*
X173650000Y-130582142D01*
X173650000Y-130225000D01*
X173828571Y-129867857D01*
X174007142Y-129689285D01*
X174364285Y-129510714D01*
X175078571Y-129332142D01*
X175435714Y-129153571D01*
X175614285Y-128975000D01*
X175792857Y-128617857D01*
X175792857Y-128260714D01*
X175614285Y-127903571D01*
X175435714Y-127725000D01*
X175078571Y-127546428D01*
X174185714Y-127546428D01*
X173650000Y-127725000D01*
X170435714Y-127546428D02*
X171150000Y-127546428D01*
X171507142Y-127725000D01*
X171685714Y-127903571D01*
X172042857Y-128439285D01*
X172221428Y-129153571D01*
X172221428Y-130582142D01*
X172042857Y-130939285D01*
X171864285Y-131117857D01*
X171507142Y-131296428D01*
X170792857Y-131296428D01*
X170435714Y-131117857D01*
X170257142Y-130939285D01*
X170078571Y-130582142D01*
X170078571Y-129689285D01*
X170257142Y-129332142D01*
X170435714Y-129153571D01*
X170792857Y-128975000D01*
X171507142Y-128975000D01*
X171864285Y-129153571D01*
X172042857Y-129332142D01*
X172221428Y-129689285D01*
X167935714Y-129153571D02*
X168292857Y-128975000D01*
X168471428Y-128796428D01*
X168650000Y-128439285D01*
X168650000Y-128260714D01*
X168471428Y-127903571D01*
X168292857Y-127725000D01*
X167935714Y-127546428D01*
X167221428Y-127546428D01*
X166864285Y-127725000D01*
X166685714Y-127903571D01*
X166507142Y-128260714D01*
X166507142Y-128439285D01*
X166685714Y-128796428D01*
X166864285Y-128975000D01*
X167221428Y-129153571D01*
X167935714Y-129153571D01*
X168292857Y-129332142D01*
X168471428Y-129510714D01*
X168650000Y-129867857D01*
X168650000Y-130582142D01*
X168471428Y-130939285D01*
X168292857Y-131117857D01*
X167935714Y-131296428D01*
X167221428Y-131296428D01*
X166864285Y-131117857D01*
X166685714Y-130939285D01*
X166507142Y-130582142D01*
X166507142Y-129867857D01*
X166685714Y-129510714D01*
X166864285Y-129332142D01*
X167221428Y-129153571D01*
D10*
X232159304Y-115542499D02*
X232159304Y-114542499D01*
X231921209Y-114542499D01*
X231778352Y-114590119D01*
X231683114Y-114685357D01*
X231635495Y-114780595D01*
X231587876Y-114971071D01*
X231587876Y-115113928D01*
X231635495Y-115304404D01*
X231683114Y-115399642D01*
X231778352Y-115494880D01*
X231921209Y-115542499D01*
X232159304Y-115542499D01*
X230683114Y-114542499D02*
X231159304Y-114542499D01*
X231206923Y-115018690D01*
X231159304Y-114971071D01*
X231064066Y-114923452D01*
X230825971Y-114923452D01*
X230730733Y-114971071D01*
X230683114Y-115018690D01*
X230635495Y-115113928D01*
X230635495Y-115352023D01*
X230683114Y-115447261D01*
X230730733Y-115494880D01*
X230825971Y-115542499D01*
X231064066Y-115542499D01*
X231159304Y-115494880D01*
X231206923Y-115447261D01*
X229778352Y-114875833D02*
X229778352Y-115542499D01*
X230016447Y-114494880D02*
X230254542Y-115209166D01*
X229635495Y-115209166D01*
X236921804Y-78013040D02*
X236921804Y-77013040D01*
X236683709Y-77013040D01*
X236540852Y-77060660D01*
X236445614Y-77155898D01*
X236397995Y-77251136D01*
X236350376Y-77441612D01*
X236350376Y-77584469D01*
X236397995Y-77774945D01*
X236445614Y-77870183D01*
X236540852Y-77965421D01*
X236683709Y-78013040D01*
X236921804Y-78013040D01*
X235969423Y-77108279D02*
X235921804Y-77060660D01*
X235826566Y-77013040D01*
X235588471Y-77013040D01*
X235493233Y-77060660D01*
X235445614Y-77108279D01*
X235397995Y-77203517D01*
X235397995Y-77298755D01*
X235445614Y-77441612D01*
X236017042Y-78013040D01*
X235397995Y-78013040D01*
X234540852Y-77013040D02*
X234731328Y-77013040D01*
X234826566Y-77060660D01*
X234874185Y-77108279D01*
X234969423Y-77251136D01*
X235017042Y-77441612D01*
X235017042Y-77822564D01*
X234969423Y-77917802D01*
X234921804Y-77965421D01*
X234826566Y-78013040D01*
X234636090Y-78013040D01*
X234540852Y-77965421D01*
X234493233Y-77917802D01*
X234445614Y-77822564D01*
X234445614Y-77584469D01*
X234493233Y-77489231D01*
X234540852Y-77441612D01*
X234636090Y-77393993D01*
X234826566Y-77393993D01*
X234921804Y-77441612D01*
X234969423Y-77489231D01*
X235017042Y-77584469D01*
X147068057Y-123420040D02*
X147068057Y-122420040D01*
X146496628Y-123420040D01*
X146496628Y-122420040D01*
X145449009Y-123420040D02*
X145782342Y-122943850D01*
X146020438Y-123420040D02*
X146020438Y-122420040D01*
X145639485Y-122420040D01*
X145544247Y-122467660D01*
X145496628Y-122515279D01*
X145449009Y-122610517D01*
X145449009Y-122753374D01*
X145496628Y-122848612D01*
X145544247Y-122896231D01*
X145639485Y-122943850D01*
X146020438Y-122943850D01*
X145068057Y-123372421D02*
X144925200Y-123420040D01*
X144687104Y-123420040D01*
X144591866Y-123372421D01*
X144544247Y-123324802D01*
X144496628Y-123229564D01*
X144496628Y-123134326D01*
X144544247Y-123039088D01*
X144591866Y-122991469D01*
X144687104Y-122943850D01*
X144877580Y-122896231D01*
X144972819Y-122848612D01*
X145020438Y-122800993D01*
X145068057Y-122705755D01*
X145068057Y-122610517D01*
X145020438Y-122515279D01*
X144972819Y-122467660D01*
X144877580Y-122420040D01*
X144639485Y-122420040D01*
X144496628Y-122467660D01*
X144210914Y-122420040D02*
X143639485Y-122420040D01*
X143925200Y-123420040D02*
X143925200Y-122420040D01*
X303596804Y-134563040D02*
X303596804Y-133563040D01*
X303358709Y-133563040D01*
X303215852Y-133610660D01*
X303120614Y-133705898D01*
X303072995Y-133801136D01*
X303025376Y-133991612D01*
X303025376Y-134134469D01*
X303072995Y-134324945D01*
X303120614Y-134420183D01*
X303215852Y-134515421D01*
X303358709Y-134563040D01*
X303596804Y-134563040D01*
X302168233Y-133563040D02*
X302358709Y-133563040D01*
X302453947Y-133610660D01*
X302501566Y-133658279D01*
X302596804Y-133801136D01*
X302644423Y-133991612D01*
X302644423Y-134372564D01*
X302596804Y-134467802D01*
X302549185Y-134515421D01*
X302453947Y-134563040D01*
X302263471Y-134563040D01*
X302168233Y-134515421D01*
X302120614Y-134467802D01*
X302072995Y-134372564D01*
X302072995Y-134134469D01*
X302120614Y-134039231D01*
X302168233Y-133991612D01*
X302263471Y-133943993D01*
X302453947Y-133943993D01*
X302549185Y-133991612D01*
X302596804Y-134039231D01*
X302644423Y-134134469D01*
X301739661Y-133563040D02*
X301072995Y-133563040D01*
X301501566Y-134563040D01*
X98809304Y-115542499D02*
X98809304Y-114542499D01*
X98571209Y-114542499D01*
X98428352Y-114590119D01*
X98333114Y-114685357D01*
X98285495Y-114780595D01*
X98237876Y-114971071D01*
X98237876Y-115113928D01*
X98285495Y-115304404D01*
X98333114Y-115399642D01*
X98428352Y-115494880D01*
X98571209Y-115542499D01*
X98809304Y-115542499D01*
X97380733Y-114875833D02*
X97380733Y-115542499D01*
X97618828Y-114494880D02*
X97856923Y-115209166D01*
X97237876Y-115209166D01*
X96952161Y-114542499D02*
X96285495Y-114542499D01*
X96714066Y-115542499D01*
X189296804Y-58963040D02*
X189296804Y-57963040D01*
X189058709Y-57963040D01*
X188915852Y-58010660D01*
X188820614Y-58105898D01*
X188772995Y-58201136D01*
X188725376Y-58391612D01*
X188725376Y-58534469D01*
X188772995Y-58724945D01*
X188820614Y-58820183D01*
X188915852Y-58915421D01*
X189058709Y-58963040D01*
X189296804Y-58963040D01*
X188249185Y-58963040D02*
X188058709Y-58963040D01*
X187963471Y-58915421D01*
X187915852Y-58867802D01*
X187820614Y-58724945D01*
X187772995Y-58534469D01*
X187772995Y-58153517D01*
X187820614Y-58058279D01*
X187868233Y-58010660D01*
X187963471Y-57963040D01*
X188153947Y-57963040D01*
X188249185Y-58010660D01*
X188296804Y-58058279D01*
X188344423Y-58153517D01*
X188344423Y-58391612D01*
X188296804Y-58486850D01*
X188249185Y-58534469D01*
X188153947Y-58582088D01*
X187963471Y-58582088D01*
X187868233Y-58534469D01*
X187820614Y-58486850D01*
X187772995Y-58391612D01*
X160721804Y-78013040D02*
X160721804Y-77013040D01*
X160483709Y-77013040D01*
X160340852Y-77060660D01*
X160245614Y-77155898D01*
X160197995Y-77251136D01*
X160150376Y-77441612D01*
X160150376Y-77584469D01*
X160197995Y-77774945D01*
X160245614Y-77870183D01*
X160340852Y-77965421D01*
X160483709Y-78013040D01*
X160721804Y-78013040D01*
X159769423Y-77108279D02*
X159721804Y-77060660D01*
X159626566Y-77013040D01*
X159388471Y-77013040D01*
X159293233Y-77060660D01*
X159245614Y-77108279D01*
X159197995Y-77203517D01*
X159197995Y-77298755D01*
X159245614Y-77441612D01*
X159817042Y-78013040D01*
X159197995Y-78013040D01*
X158817042Y-77108279D02*
X158769423Y-77060660D01*
X158674185Y-77013040D01*
X158436090Y-77013040D01*
X158340852Y-77060660D01*
X158293233Y-77108279D01*
X158245614Y-77203517D01*
X158245614Y-77298755D01*
X158293233Y-77441612D01*
X158864661Y-78013040D01*
X158245614Y-78013040D01*
X322646804Y-115542499D02*
X322646804Y-114542499D01*
X322408709Y-114542499D01*
X322265852Y-114590119D01*
X322170614Y-114685357D01*
X322122995Y-114780595D01*
X322075376Y-114971071D01*
X322075376Y-115113928D01*
X322122995Y-115304404D01*
X322170614Y-115399642D01*
X322265852Y-115494880D01*
X322408709Y-115542499D01*
X322646804Y-115542499D01*
X321170614Y-114542499D02*
X321646804Y-114542499D01*
X321694423Y-115018690D01*
X321646804Y-114971071D01*
X321551566Y-114923452D01*
X321313471Y-114923452D01*
X321218233Y-114971071D01*
X321170614Y-115018690D01*
X321122995Y-115113928D01*
X321122995Y-115352023D01*
X321170614Y-115447261D01*
X321218233Y-115494880D01*
X321313471Y-115542499D01*
X321551566Y-115542499D01*
X321646804Y-115494880D01*
X321694423Y-115447261D01*
X320551566Y-114971071D02*
X320646804Y-114923452D01*
X320694423Y-114875833D01*
X320742042Y-114780595D01*
X320742042Y-114732976D01*
X320694423Y-114637738D01*
X320646804Y-114590119D01*
X320551566Y-114542499D01*
X320361090Y-114542499D01*
X320265852Y-114590119D01*
X320218233Y-114637738D01*
X320170614Y-114732976D01*
X320170614Y-114780595D01*
X320218233Y-114875833D01*
X320265852Y-114923452D01*
X320361090Y-114971071D01*
X320551566Y-114971071D01*
X320646804Y-115018690D01*
X320694423Y-115066309D01*
X320742042Y-115161547D01*
X320742042Y-115352023D01*
X320694423Y-115447261D01*
X320646804Y-115494880D01*
X320551566Y-115542499D01*
X320361090Y-115542499D01*
X320265852Y-115494880D01*
X320218233Y-115447261D01*
X320170614Y-115352023D01*
X320170614Y-115161547D01*
X320218233Y-115066309D01*
X320265852Y-115018690D01*
X320361090Y-114971071D01*
X55946804Y-58963040D02*
X55946804Y-57963040D01*
X55708709Y-57963040D01*
X55565852Y-58010660D01*
X55470614Y-58105898D01*
X55422995Y-58201136D01*
X55375376Y-58391612D01*
X55375376Y-58534469D01*
X55422995Y-58724945D01*
X55470614Y-58820183D01*
X55565852Y-58915421D01*
X55708709Y-58963040D01*
X55946804Y-58963040D01*
X54994423Y-58058279D02*
X54946804Y-58010660D01*
X54851566Y-57963040D01*
X54613471Y-57963040D01*
X54518233Y-58010660D01*
X54470614Y-58058279D01*
X54422995Y-58153517D01*
X54422995Y-58248755D01*
X54470614Y-58391612D01*
X55042042Y-58963040D01*
X54422995Y-58963040D01*
X255971804Y-78013040D02*
X255971804Y-77013040D01*
X255733709Y-77013040D01*
X255590852Y-77060660D01*
X255495614Y-77155898D01*
X255447995Y-77251136D01*
X255400376Y-77441612D01*
X255400376Y-77584469D01*
X255447995Y-77774945D01*
X255495614Y-77870183D01*
X255590852Y-77965421D01*
X255733709Y-78013040D01*
X255971804Y-78013040D01*
X255019423Y-77108279D02*
X254971804Y-77060660D01*
X254876566Y-77013040D01*
X254638471Y-77013040D01*
X254543233Y-77060660D01*
X254495614Y-77108279D01*
X254447995Y-77203517D01*
X254447995Y-77298755D01*
X254495614Y-77441612D01*
X255067042Y-78013040D01*
X254447995Y-78013040D01*
X254114661Y-77013040D02*
X253447995Y-77013040D01*
X253876566Y-78013040D01*
X94046804Y-58963040D02*
X94046804Y-57963040D01*
X93808709Y-57963040D01*
X93665852Y-58010660D01*
X93570614Y-58105898D01*
X93522995Y-58201136D01*
X93475376Y-58391612D01*
X93475376Y-58534469D01*
X93522995Y-58724945D01*
X93570614Y-58820183D01*
X93665852Y-58915421D01*
X93808709Y-58963040D01*
X94046804Y-58963040D01*
X92618233Y-58296374D02*
X92618233Y-58963040D01*
X92856328Y-57915421D02*
X93094423Y-58629707D01*
X92475376Y-58629707D01*
X213109304Y-115542499D02*
X213109304Y-114542499D01*
X212871209Y-114542499D01*
X212728352Y-114590119D01*
X212633114Y-114685357D01*
X212585495Y-114780595D01*
X212537876Y-114971071D01*
X212537876Y-115113928D01*
X212585495Y-115304404D01*
X212633114Y-115399642D01*
X212728352Y-115494880D01*
X212871209Y-115542499D01*
X213109304Y-115542499D01*
X211633114Y-114542499D02*
X212109304Y-114542499D01*
X212156923Y-115018690D01*
X212109304Y-114971071D01*
X212014066Y-114923452D01*
X211775971Y-114923452D01*
X211680733Y-114971071D01*
X211633114Y-115018690D01*
X211585495Y-115113928D01*
X211585495Y-115352023D01*
X211633114Y-115447261D01*
X211680733Y-115494880D01*
X211775971Y-115542499D01*
X212014066Y-115542499D01*
X212109304Y-115494880D01*
X212156923Y-115447261D01*
X211252161Y-114542499D02*
X210633114Y-114542499D01*
X210966447Y-114923452D01*
X210823590Y-114923452D01*
X210728352Y-114971071D01*
X210680733Y-115018690D01*
X210633114Y-115113928D01*
X210633114Y-115352023D01*
X210680733Y-115447261D01*
X210728352Y-115494880D01*
X210823590Y-115542499D01*
X211109304Y-115542499D01*
X211204542Y-115494880D01*
X211252161Y-115447261D01*
X184534304Y-97063040D02*
X184534304Y-96063040D01*
X184296209Y-96063040D01*
X184153352Y-96110660D01*
X184058114Y-96205898D01*
X184010495Y-96301136D01*
X183962876Y-96491612D01*
X183962876Y-96634469D01*
X184010495Y-96824945D01*
X184058114Y-96920183D01*
X184153352Y-97015421D01*
X184296209Y-97063040D01*
X184534304Y-97063040D01*
X183629542Y-96063040D02*
X183010495Y-96063040D01*
X183343828Y-96443993D01*
X183200971Y-96443993D01*
X183105733Y-96491612D01*
X183058114Y-96539231D01*
X183010495Y-96634469D01*
X183010495Y-96872564D01*
X183058114Y-96967802D01*
X183105733Y-97015421D01*
X183200971Y-97063040D01*
X183486685Y-97063040D01*
X183581923Y-97015421D01*
X183629542Y-96967802D01*
X182439066Y-96491612D02*
X182534304Y-96443993D01*
X182581923Y-96396374D01*
X182629542Y-96301136D01*
X182629542Y-96253517D01*
X182581923Y-96158279D01*
X182534304Y-96110660D01*
X182439066Y-96063040D01*
X182248590Y-96063040D01*
X182153352Y-96110660D01*
X182105733Y-96158279D01*
X182058114Y-96253517D01*
X182058114Y-96301136D01*
X182105733Y-96396374D01*
X182153352Y-96443993D01*
X182248590Y-96491612D01*
X182439066Y-96491612D01*
X182534304Y-96539231D01*
X182581923Y-96586850D01*
X182629542Y-96682088D01*
X182629542Y-96872564D01*
X182581923Y-96967802D01*
X182534304Y-97015421D01*
X182439066Y-97063040D01*
X182248590Y-97063040D01*
X182153352Y-97015421D01*
X182105733Y-96967802D01*
X182058114Y-96872564D01*
X182058114Y-96682088D01*
X182105733Y-96586850D01*
X182153352Y-96539231D01*
X182248590Y-96491612D01*
X89284304Y-97063040D02*
X89284304Y-96063040D01*
X89046209Y-96063040D01*
X88903352Y-96110660D01*
X88808114Y-96205898D01*
X88760495Y-96301136D01*
X88712876Y-96491612D01*
X88712876Y-96634469D01*
X88760495Y-96824945D01*
X88808114Y-96920183D01*
X88903352Y-97015421D01*
X89046209Y-97063040D01*
X89284304Y-97063040D01*
X88379542Y-96063040D02*
X87760495Y-96063040D01*
X88093828Y-96443993D01*
X87950971Y-96443993D01*
X87855733Y-96491612D01*
X87808114Y-96539231D01*
X87760495Y-96634469D01*
X87760495Y-96872564D01*
X87808114Y-96967802D01*
X87855733Y-97015421D01*
X87950971Y-97063040D01*
X88236685Y-97063040D01*
X88331923Y-97015421D01*
X88379542Y-96967802D01*
X87427161Y-96063040D02*
X86808114Y-96063040D01*
X87141447Y-96443993D01*
X86998590Y-96443993D01*
X86903352Y-96491612D01*
X86855733Y-96539231D01*
X86808114Y-96634469D01*
X86808114Y-96872564D01*
X86855733Y-96967802D01*
X86903352Y-97015421D01*
X86998590Y-97063040D01*
X87284304Y-97063040D01*
X87379542Y-97015421D01*
X87427161Y-96967802D01*
X322646804Y-134563040D02*
X322646804Y-133563040D01*
X322408709Y-133563040D01*
X322265852Y-133610660D01*
X322170614Y-133705898D01*
X322122995Y-133801136D01*
X322075376Y-133991612D01*
X322075376Y-134134469D01*
X322122995Y-134324945D01*
X322170614Y-134420183D01*
X322265852Y-134515421D01*
X322408709Y-134563040D01*
X322646804Y-134563040D01*
X321218233Y-133563040D02*
X321408709Y-133563040D01*
X321503947Y-133610660D01*
X321551566Y-133658279D01*
X321646804Y-133801136D01*
X321694423Y-133991612D01*
X321694423Y-134372564D01*
X321646804Y-134467802D01*
X321599185Y-134515421D01*
X321503947Y-134563040D01*
X321313471Y-134563040D01*
X321218233Y-134515421D01*
X321170614Y-134467802D01*
X321122995Y-134372564D01*
X321122995Y-134134469D01*
X321170614Y-134039231D01*
X321218233Y-133991612D01*
X321313471Y-133943993D01*
X321503947Y-133943993D01*
X321599185Y-133991612D01*
X321646804Y-134039231D01*
X321694423Y-134134469D01*
X320551566Y-133991612D02*
X320646804Y-133943993D01*
X320694423Y-133896374D01*
X320742042Y-133801136D01*
X320742042Y-133753517D01*
X320694423Y-133658279D01*
X320646804Y-133610660D01*
X320551566Y-133563040D01*
X320361090Y-133563040D01*
X320265852Y-133610660D01*
X320218233Y-133658279D01*
X320170614Y-133753517D01*
X320170614Y-133801136D01*
X320218233Y-133896374D01*
X320265852Y-133943993D01*
X320361090Y-133991612D01*
X320551566Y-133991612D01*
X320646804Y-134039231D01*
X320694423Y-134086850D01*
X320742042Y-134182088D01*
X320742042Y-134372564D01*
X320694423Y-134467802D01*
X320646804Y-134515421D01*
X320551566Y-134563040D01*
X320361090Y-134563040D01*
X320265852Y-134515421D01*
X320218233Y-134467802D01*
X320170614Y-134372564D01*
X320170614Y-134182088D01*
X320218233Y-134086850D01*
X320265852Y-134039231D01*
X320361090Y-133991612D01*
X146993866Y-129541542D02*
X147041485Y-129589161D01*
X147184342Y-129636780D01*
X147279580Y-129636780D01*
X147422438Y-129589161D01*
X147517676Y-129493923D01*
X147565295Y-129398685D01*
X147612914Y-129208209D01*
X147612914Y-129065352D01*
X147565295Y-128874876D01*
X147517676Y-128779638D01*
X147422438Y-128684400D01*
X147279580Y-128636780D01*
X147184342Y-128636780D01*
X147041485Y-128684400D01*
X146993866Y-128732019D01*
X146041485Y-129636780D02*
X146612914Y-129636780D01*
X146327200Y-129636780D02*
X146327200Y-128636780D01*
X146422438Y-128779638D01*
X146517676Y-128874876D01*
X146612914Y-128922495D01*
X179771804Y-78013040D02*
X179771804Y-77013040D01*
X179533709Y-77013040D01*
X179390852Y-77060660D01*
X179295614Y-77155898D01*
X179247995Y-77251136D01*
X179200376Y-77441612D01*
X179200376Y-77584469D01*
X179247995Y-77774945D01*
X179295614Y-77870183D01*
X179390852Y-77965421D01*
X179533709Y-78013040D01*
X179771804Y-78013040D01*
X178819423Y-77108279D02*
X178771804Y-77060660D01*
X178676566Y-77013040D01*
X178438471Y-77013040D01*
X178343233Y-77060660D01*
X178295614Y-77108279D01*
X178247995Y-77203517D01*
X178247995Y-77298755D01*
X178295614Y-77441612D01*
X178867042Y-78013040D01*
X178247995Y-78013040D01*
X177914661Y-77013040D02*
X177295614Y-77013040D01*
X177628947Y-77393993D01*
X177486090Y-77393993D01*
X177390852Y-77441612D01*
X177343233Y-77489231D01*
X177295614Y-77584469D01*
X177295614Y-77822564D01*
X177343233Y-77917802D01*
X177390852Y-77965421D01*
X177486090Y-78013040D01*
X177771804Y-78013040D01*
X177867042Y-77965421D01*
X177914661Y-77917802D01*
X146434304Y-97063040D02*
X146434304Y-96063040D01*
X146196209Y-96063040D01*
X146053352Y-96110660D01*
X145958114Y-96205898D01*
X145910495Y-96301136D01*
X145862876Y-96491612D01*
X145862876Y-96634469D01*
X145910495Y-96824945D01*
X145958114Y-96920183D01*
X146053352Y-97015421D01*
X146196209Y-97063040D01*
X146434304Y-97063040D01*
X145529542Y-96063040D02*
X144910495Y-96063040D01*
X145243828Y-96443993D01*
X145100971Y-96443993D01*
X145005733Y-96491612D01*
X144958114Y-96539231D01*
X144910495Y-96634469D01*
X144910495Y-96872564D01*
X144958114Y-96967802D01*
X145005733Y-97015421D01*
X145100971Y-97063040D01*
X145386685Y-97063040D01*
X145481923Y-97015421D01*
X145529542Y-96967802D01*
X144053352Y-96063040D02*
X144243828Y-96063040D01*
X144339066Y-96110660D01*
X144386685Y-96158279D01*
X144481923Y-96301136D01*
X144529542Y-96491612D01*
X144529542Y-96872564D01*
X144481923Y-96967802D01*
X144434304Y-97015421D01*
X144339066Y-97063040D01*
X144148590Y-97063040D01*
X144053352Y-97015421D01*
X144005733Y-96967802D01*
X143958114Y-96872564D01*
X143958114Y-96634469D01*
X144005733Y-96539231D01*
X144053352Y-96491612D01*
X144148590Y-96443993D01*
X144339066Y-96443993D01*
X144434304Y-96491612D01*
X144481923Y-96539231D01*
X144529542Y-96634469D01*
X131734666Y-133386802D02*
X131782285Y-133434421D01*
X131925142Y-133482040D01*
X132020380Y-133482040D01*
X132163238Y-133434421D01*
X132258476Y-133339183D01*
X132306095Y-133243945D01*
X132353714Y-133053469D01*
X132353714Y-132910612D01*
X132306095Y-132720136D01*
X132258476Y-132624898D01*
X132163238Y-132529660D01*
X132020380Y-132482040D01*
X131925142Y-132482040D01*
X131782285Y-132529660D01*
X131734666Y-132577279D01*
X130877523Y-132482040D02*
X131068000Y-132482040D01*
X131163238Y-132529660D01*
X131210857Y-132577279D01*
X131306095Y-132720136D01*
X131353714Y-132910612D01*
X131353714Y-133291564D01*
X131306095Y-133386802D01*
X131258476Y-133434421D01*
X131163238Y-133482040D01*
X130972761Y-133482040D01*
X130877523Y-133434421D01*
X130829904Y-133386802D01*
X130782285Y-133291564D01*
X130782285Y-133053469D01*
X130829904Y-132958231D01*
X130877523Y-132910612D01*
X130972761Y-132862993D01*
X131163238Y-132862993D01*
X131258476Y-132910612D01*
X131306095Y-132958231D01*
X131353714Y-133053469D01*
X158340554Y-134563040D02*
X158340554Y-133563040D01*
X158102459Y-133563040D01*
X157959602Y-133610660D01*
X157864364Y-133705898D01*
X157816745Y-133801136D01*
X157769126Y-133991612D01*
X157769126Y-134134469D01*
X157816745Y-134324945D01*
X157864364Y-134420183D01*
X157959602Y-134515421D01*
X158102459Y-134563040D01*
X158340554Y-134563040D01*
X156911983Y-133563040D02*
X157102459Y-133563040D01*
X157197697Y-133610660D01*
X157245316Y-133658279D01*
X157340554Y-133801136D01*
X157388173Y-133991612D01*
X157388173Y-134372564D01*
X157340554Y-134467802D01*
X157292935Y-134515421D01*
X157197697Y-134563040D01*
X157007221Y-134563040D01*
X156911983Y-134515421D01*
X156864364Y-134467802D01*
X156816745Y-134372564D01*
X156816745Y-134134469D01*
X156864364Y-134039231D01*
X156911983Y-133991612D01*
X157007221Y-133943993D01*
X157197697Y-133943993D01*
X157292935Y-133991612D01*
X157340554Y-134039231D01*
X157388173Y-134134469D01*
X156435792Y-133658279D02*
X156388173Y-133610660D01*
X156292935Y-133563040D01*
X156054840Y-133563040D01*
X155959602Y-133610660D01*
X155911983Y-133658279D01*
X155864364Y-133753517D01*
X155864364Y-133848755D01*
X155911983Y-133991612D01*
X156483411Y-134563040D01*
X155864364Y-134563040D01*
X246446804Y-134563040D02*
X246446804Y-133563040D01*
X246208709Y-133563040D01*
X246065852Y-133610660D01*
X245970614Y-133705898D01*
X245922995Y-133801136D01*
X245875376Y-133991612D01*
X245875376Y-134134469D01*
X245922995Y-134324945D01*
X245970614Y-134420183D01*
X246065852Y-134515421D01*
X246208709Y-134563040D01*
X246446804Y-134563040D01*
X245018233Y-133563040D02*
X245208709Y-133563040D01*
X245303947Y-133610660D01*
X245351566Y-133658279D01*
X245446804Y-133801136D01*
X245494423Y-133991612D01*
X245494423Y-134372564D01*
X245446804Y-134467802D01*
X245399185Y-134515421D01*
X245303947Y-134563040D01*
X245113471Y-134563040D01*
X245018233Y-134515421D01*
X244970614Y-134467802D01*
X244922995Y-134372564D01*
X244922995Y-134134469D01*
X244970614Y-134039231D01*
X245018233Y-133991612D01*
X245113471Y-133943993D01*
X245303947Y-133943993D01*
X245399185Y-133991612D01*
X245446804Y-134039231D01*
X245494423Y-134134469D01*
X244065852Y-133896374D02*
X244065852Y-134563040D01*
X244303947Y-133515421D02*
X244542042Y-134229707D01*
X243922995Y-134229707D01*
X117859304Y-115542499D02*
X117859304Y-114542499D01*
X117621209Y-114542499D01*
X117478352Y-114590119D01*
X117383114Y-114685357D01*
X117335495Y-114780595D01*
X117287876Y-114971071D01*
X117287876Y-115113928D01*
X117335495Y-115304404D01*
X117383114Y-115399642D01*
X117478352Y-115494880D01*
X117621209Y-115542499D01*
X117859304Y-115542499D01*
X116430733Y-114875833D02*
X116430733Y-115542499D01*
X116668828Y-114494880D02*
X116906923Y-115209166D01*
X116287876Y-115209166D01*
X115764066Y-114971071D02*
X115859304Y-114923452D01*
X115906923Y-114875833D01*
X115954542Y-114780595D01*
X115954542Y-114732976D01*
X115906923Y-114637738D01*
X115859304Y-114590119D01*
X115764066Y-114542499D01*
X115573590Y-114542499D01*
X115478352Y-114590119D01*
X115430733Y-114637738D01*
X115383114Y-114732976D01*
X115383114Y-114780595D01*
X115430733Y-114875833D01*
X115478352Y-114923452D01*
X115573590Y-114971071D01*
X115764066Y-114971071D01*
X115859304Y-115018690D01*
X115906923Y-115066309D01*
X115954542Y-115161547D01*
X115954542Y-115352023D01*
X115906923Y-115447261D01*
X115859304Y-115494880D01*
X115764066Y-115542499D01*
X115573590Y-115542499D01*
X115478352Y-115494880D01*
X115430733Y-115447261D01*
X115383114Y-115352023D01*
X115383114Y-115161547D01*
X115430733Y-115066309D01*
X115478352Y-115018690D01*
X115573590Y-114971071D01*
X246446804Y-58963040D02*
X246446804Y-57963040D01*
X246208709Y-57963040D01*
X246065852Y-58010660D01*
X245970614Y-58105898D01*
X245922995Y-58201136D01*
X245875376Y-58391612D01*
X245875376Y-58534469D01*
X245922995Y-58724945D01*
X245970614Y-58820183D01*
X246065852Y-58915421D01*
X246208709Y-58963040D01*
X246446804Y-58963040D01*
X244922995Y-58963040D02*
X245494423Y-58963040D01*
X245208709Y-58963040D02*
X245208709Y-57963040D01*
X245303947Y-58105898D01*
X245399185Y-58201136D01*
X245494423Y-58248755D01*
X244542042Y-58058279D02*
X244494423Y-58010660D01*
X244399185Y-57963040D01*
X244161090Y-57963040D01*
X244065852Y-58010660D01*
X244018233Y-58058279D01*
X243970614Y-58153517D01*
X243970614Y-58248755D01*
X244018233Y-58391612D01*
X244589661Y-58963040D01*
X243970614Y-58963040D01*
X141475533Y-122902491D02*
X141332676Y-122950110D01*
X141285057Y-122997729D01*
X141237438Y-123092967D01*
X141237438Y-123235824D01*
X141285057Y-123331062D01*
X141332676Y-123378681D01*
X141427914Y-123426300D01*
X141808866Y-123426300D01*
X141808866Y-122426300D01*
X141475533Y-122426300D01*
X141380295Y-122473920D01*
X141332676Y-122521539D01*
X141285057Y-122616777D01*
X141285057Y-122712015D01*
X141332676Y-122807253D01*
X141380295Y-122854872D01*
X141475533Y-122902491D01*
X141808866Y-122902491D01*
X140618390Y-122426300D02*
X140427914Y-122426300D01*
X140332676Y-122473920D01*
X140237438Y-122569158D01*
X140189819Y-122759634D01*
X140189819Y-123092967D01*
X140237438Y-123283443D01*
X140332676Y-123378681D01*
X140427914Y-123426300D01*
X140618390Y-123426300D01*
X140713628Y-123378681D01*
X140808866Y-123283443D01*
X140856485Y-123092967D01*
X140856485Y-122759634D01*
X140808866Y-122569158D01*
X140713628Y-122473920D01*
X140618390Y-122426300D01*
X139570771Y-122426300D02*
X139380295Y-122426300D01*
X139285057Y-122473920D01*
X139189819Y-122569158D01*
X139142200Y-122759634D01*
X139142200Y-123092967D01*
X139189819Y-123283443D01*
X139285057Y-123378681D01*
X139380295Y-123426300D01*
X139570771Y-123426300D01*
X139666009Y-123378681D01*
X139761247Y-123283443D01*
X139808866Y-123092967D01*
X139808866Y-122759634D01*
X139761247Y-122569158D01*
X139666009Y-122473920D01*
X139570771Y-122426300D01*
X138856485Y-122426300D02*
X138285057Y-122426300D01*
X138570771Y-123426300D02*
X138570771Y-122426300D01*
X137761247Y-122426300D02*
X137666009Y-122426300D01*
X137570771Y-122473920D01*
X137523152Y-122521539D01*
X137475533Y-122616777D01*
X137427914Y-122807253D01*
X137427914Y-123045348D01*
X137475533Y-123235824D01*
X137523152Y-123331062D01*
X137570771Y-123378681D01*
X137666009Y-123426300D01*
X137761247Y-123426300D01*
X137856485Y-123378681D01*
X137904104Y-123331062D01*
X137951723Y-123235824D01*
X137999342Y-123045348D01*
X137999342Y-122807253D01*
X137951723Y-122616777D01*
X137904104Y-122521539D01*
X137856485Y-122473920D01*
X137761247Y-122426300D01*
X194059304Y-115542499D02*
X194059304Y-114542499D01*
X193821209Y-114542499D01*
X193678352Y-114590119D01*
X193583114Y-114685357D01*
X193535495Y-114780595D01*
X193487876Y-114971071D01*
X193487876Y-115113928D01*
X193535495Y-115304404D01*
X193583114Y-115399642D01*
X193678352Y-115494880D01*
X193821209Y-115542499D01*
X194059304Y-115542499D01*
X192583114Y-114542499D02*
X193059304Y-114542499D01*
X193106923Y-115018690D01*
X193059304Y-114971071D01*
X192964066Y-114923452D01*
X192725971Y-114923452D01*
X192630733Y-114971071D01*
X192583114Y-115018690D01*
X192535495Y-115113928D01*
X192535495Y-115352023D01*
X192583114Y-115447261D01*
X192630733Y-115494880D01*
X192725971Y-115542499D01*
X192964066Y-115542499D01*
X193059304Y-115494880D01*
X193106923Y-115447261D01*
X192154542Y-114637738D02*
X192106923Y-114590119D01*
X192011685Y-114542499D01*
X191773590Y-114542499D01*
X191678352Y-114590119D01*
X191630733Y-114637738D01*
X191583114Y-114732976D01*
X191583114Y-114828214D01*
X191630733Y-114971071D01*
X192202161Y-115542499D01*
X191583114Y-115542499D01*
X63090554Y-134563040D02*
X63090554Y-133563040D01*
X62852459Y-133563040D01*
X62709602Y-133610660D01*
X62614364Y-133705898D01*
X62566745Y-133801136D01*
X62519126Y-133991612D01*
X62519126Y-134134469D01*
X62566745Y-134324945D01*
X62614364Y-134420183D01*
X62709602Y-134515421D01*
X62852459Y-134563040D01*
X63090554Y-134563040D01*
X61661983Y-133563040D02*
X61852459Y-133563040D01*
X61947697Y-133610660D01*
X61995316Y-133658279D01*
X62090554Y-133801136D01*
X62138173Y-133991612D01*
X62138173Y-134372564D01*
X62090554Y-134467802D01*
X62042935Y-134515421D01*
X61947697Y-134563040D01*
X61757221Y-134563040D01*
X61661983Y-134515421D01*
X61614364Y-134467802D01*
X61566745Y-134372564D01*
X61566745Y-134134469D01*
X61614364Y-134039231D01*
X61661983Y-133991612D01*
X61757221Y-133943993D01*
X61947697Y-133943993D01*
X62042935Y-133991612D01*
X62090554Y-134039231D01*
X62138173Y-134134469D01*
X60947697Y-133563040D02*
X60852459Y-133563040D01*
X60757221Y-133610660D01*
X60709602Y-133658279D01*
X60661983Y-133753517D01*
X60614364Y-133943993D01*
X60614364Y-134182088D01*
X60661983Y-134372564D01*
X60709602Y-134467802D01*
X60757221Y-134515421D01*
X60852459Y-134563040D01*
X60947697Y-134563040D01*
X61042935Y-134515421D01*
X61090554Y-134467802D01*
X61138173Y-134372564D01*
X61185792Y-134182088D01*
X61185792Y-133943993D01*
X61138173Y-133753517D01*
X61090554Y-133658279D01*
X61042935Y-133610660D01*
X60947697Y-133563040D01*
X139674666Y-129643040D02*
X140008000Y-129166850D01*
X140246095Y-129643040D02*
X140246095Y-128643040D01*
X139865142Y-128643040D01*
X139769904Y-128690660D01*
X139722285Y-128738279D01*
X139674666Y-128833517D01*
X139674666Y-128976374D01*
X139722285Y-129071612D01*
X139769904Y-129119231D01*
X139865142Y-129166850D01*
X140246095Y-129166850D01*
X139341333Y-128643040D02*
X138722285Y-128643040D01*
X139055619Y-129023993D01*
X138912761Y-129023993D01*
X138817523Y-129071612D01*
X138769904Y-129119231D01*
X138722285Y-129214469D01*
X138722285Y-129452564D01*
X138769904Y-129547802D01*
X138817523Y-129595421D01*
X138912761Y-129643040D01*
X139198476Y-129643040D01*
X139293714Y-129595421D01*
X139341333Y-129547802D01*
X322646804Y-97063040D02*
X322646804Y-96063040D01*
X322408709Y-96063040D01*
X322265852Y-96110660D01*
X322170614Y-96205898D01*
X322122995Y-96301136D01*
X322075376Y-96491612D01*
X322075376Y-96634469D01*
X322122995Y-96824945D01*
X322170614Y-96920183D01*
X322265852Y-97015421D01*
X322408709Y-97063040D01*
X322646804Y-97063040D01*
X321218233Y-96396374D02*
X321218233Y-97063040D01*
X321456328Y-96015421D02*
X321694423Y-96729707D01*
X321075376Y-96729707D01*
X320265852Y-96396374D02*
X320265852Y-97063040D01*
X320503947Y-96015421D02*
X320742042Y-96729707D01*
X320122995Y-96729707D01*
X84521804Y-78013040D02*
X84521804Y-77013040D01*
X84283709Y-77013040D01*
X84140852Y-77060660D01*
X84045614Y-77155898D01*
X83997995Y-77251136D01*
X83950376Y-77441612D01*
X83950376Y-77584469D01*
X83997995Y-77774945D01*
X84045614Y-77870183D01*
X84140852Y-77965421D01*
X84283709Y-78013040D01*
X84521804Y-78013040D01*
X82997995Y-78013040D02*
X83569423Y-78013040D01*
X83283709Y-78013040D02*
X83283709Y-77013040D01*
X83378947Y-77155898D01*
X83474185Y-77251136D01*
X83569423Y-77298755D01*
X82426566Y-77441612D02*
X82521804Y-77393993D01*
X82569423Y-77346374D01*
X82617042Y-77251136D01*
X82617042Y-77203517D01*
X82569423Y-77108279D01*
X82521804Y-77060660D01*
X82426566Y-77013040D01*
X82236090Y-77013040D01*
X82140852Y-77060660D01*
X82093233Y-77108279D01*
X82045614Y-77203517D01*
X82045614Y-77251136D01*
X82093233Y-77346374D01*
X82140852Y-77393993D01*
X82236090Y-77441612D01*
X82426566Y-77441612D01*
X82521804Y-77489231D01*
X82569423Y-77536850D01*
X82617042Y-77632088D01*
X82617042Y-77822564D01*
X82569423Y-77917802D01*
X82521804Y-77965421D01*
X82426566Y-78013040D01*
X82236090Y-78013040D01*
X82140852Y-77965421D01*
X82093233Y-77917802D01*
X82045614Y-77822564D01*
X82045614Y-77632088D01*
X82093233Y-77536850D01*
X82140852Y-77489231D01*
X82236090Y-77441612D01*
X49184666Y-60735240D02*
X49518000Y-60259050D01*
X49756095Y-60735240D02*
X49756095Y-59735240D01*
X49375142Y-59735240D01*
X49279904Y-59782860D01*
X49232285Y-59830479D01*
X49184666Y-59925717D01*
X49184666Y-60068574D01*
X49232285Y-60163812D01*
X49279904Y-60211431D01*
X49375142Y-60259050D01*
X49756095Y-60259050D01*
X48803714Y-59830479D02*
X48756095Y-59782860D01*
X48660857Y-59735240D01*
X48422761Y-59735240D01*
X48327523Y-59782860D01*
X48279904Y-59830479D01*
X48232285Y-59925717D01*
X48232285Y-60020955D01*
X48279904Y-60163812D01*
X48851333Y-60735240D01*
X48232285Y-60735240D01*
X48803054Y-115542499D02*
X48803054Y-114542499D01*
X48564959Y-114542499D01*
X48422102Y-114590119D01*
X48326864Y-114685357D01*
X48279245Y-114780595D01*
X48231626Y-114971071D01*
X48231626Y-115113928D01*
X48279245Y-115304404D01*
X48326864Y-115399642D01*
X48422102Y-115494880D01*
X48564959Y-115542499D01*
X48803054Y-115542499D01*
X47374483Y-114875833D02*
X47374483Y-115542499D01*
X47612578Y-114494880D02*
X47850673Y-115209166D01*
X47231626Y-115209166D01*
X46374483Y-114542499D02*
X46850673Y-114542499D01*
X46898292Y-115018690D01*
X46850673Y-114971071D01*
X46755435Y-114923452D01*
X46517340Y-114923452D01*
X46422102Y-114971071D01*
X46374483Y-115018690D01*
X46326864Y-115113928D01*
X46326864Y-115352023D01*
X46374483Y-115447261D01*
X46422102Y-115494880D01*
X46517340Y-115542499D01*
X46755435Y-115542499D01*
X46850673Y-115494880D01*
X46898292Y-115447261D01*
X86903054Y-134563040D02*
X86903054Y-133563040D01*
X86664959Y-133563040D01*
X86522102Y-133610660D01*
X86426864Y-133705898D01*
X86379245Y-133801136D01*
X86331626Y-133991612D01*
X86331626Y-134134469D01*
X86379245Y-134324945D01*
X86426864Y-134420183D01*
X86522102Y-134515421D01*
X86664959Y-134563040D01*
X86903054Y-134563040D01*
X85474483Y-133563040D02*
X85664959Y-133563040D01*
X85760197Y-133610660D01*
X85807816Y-133658279D01*
X85903054Y-133801136D01*
X85950673Y-133991612D01*
X85950673Y-134372564D01*
X85903054Y-134467802D01*
X85855435Y-134515421D01*
X85760197Y-134563040D01*
X85569721Y-134563040D01*
X85474483Y-134515421D01*
X85426864Y-134467802D01*
X85379245Y-134372564D01*
X85379245Y-134134469D01*
X85426864Y-134039231D01*
X85474483Y-133991612D01*
X85569721Y-133943993D01*
X85760197Y-133943993D01*
X85855435Y-133991612D01*
X85903054Y-134039231D01*
X85950673Y-134134469D01*
X84426864Y-134563040D02*
X84998292Y-134563040D01*
X84712578Y-134563040D02*
X84712578Y-133563040D01*
X84807816Y-133705898D01*
X84903054Y-133801136D01*
X84998292Y-133848755D01*
X65471804Y-78013040D02*
X65471804Y-77013040D01*
X65233709Y-77013040D01*
X65090852Y-77060660D01*
X64995614Y-77155898D01*
X64947995Y-77251136D01*
X64900376Y-77441612D01*
X64900376Y-77584469D01*
X64947995Y-77774945D01*
X64995614Y-77870183D01*
X65090852Y-77965421D01*
X65233709Y-78013040D01*
X65471804Y-78013040D01*
X63947995Y-78013040D02*
X64519423Y-78013040D01*
X64233709Y-78013040D02*
X64233709Y-77013040D01*
X64328947Y-77155898D01*
X64424185Y-77251136D01*
X64519423Y-77298755D01*
X63614661Y-77013040D02*
X62947995Y-77013040D01*
X63376566Y-78013040D01*
X227396804Y-58963040D02*
X227396804Y-57963040D01*
X227158709Y-57963040D01*
X227015852Y-58010660D01*
X226920614Y-58105898D01*
X226872995Y-58201136D01*
X226825376Y-58391612D01*
X226825376Y-58534469D01*
X226872995Y-58724945D01*
X226920614Y-58820183D01*
X227015852Y-58915421D01*
X227158709Y-58963040D01*
X227396804Y-58963040D01*
X225872995Y-58963040D02*
X226444423Y-58963040D01*
X226158709Y-58963040D02*
X226158709Y-57963040D01*
X226253947Y-58105898D01*
X226349185Y-58201136D01*
X226444423Y-58248755D01*
X224920614Y-58963040D02*
X225492042Y-58963040D01*
X225206328Y-58963040D02*
X225206328Y-57963040D01*
X225301566Y-58105898D01*
X225396804Y-58201136D01*
X225492042Y-58248755D01*
X298834304Y-78013040D02*
X298834304Y-77013040D01*
X298596209Y-77013040D01*
X298453352Y-77060660D01*
X298358114Y-77155898D01*
X298310495Y-77251136D01*
X298262876Y-77441612D01*
X298262876Y-77584469D01*
X298310495Y-77774945D01*
X298358114Y-77870183D01*
X298453352Y-77965421D01*
X298596209Y-78013040D01*
X298834304Y-78013040D01*
X297881923Y-77108279D02*
X297834304Y-77060660D01*
X297739066Y-77013040D01*
X297500971Y-77013040D01*
X297405733Y-77060660D01*
X297358114Y-77108279D01*
X297310495Y-77203517D01*
X297310495Y-77298755D01*
X297358114Y-77441612D01*
X297929542Y-78013040D01*
X297310495Y-78013040D01*
X296834304Y-78013040D02*
X296643828Y-78013040D01*
X296548590Y-77965421D01*
X296500971Y-77917802D01*
X296405733Y-77774945D01*
X296358114Y-77584469D01*
X296358114Y-77203517D01*
X296405733Y-77108279D01*
X296453352Y-77060660D01*
X296548590Y-77013040D01*
X296739066Y-77013040D01*
X296834304Y-77060660D01*
X296881923Y-77108279D01*
X296929542Y-77203517D01*
X296929542Y-77441612D01*
X296881923Y-77536850D01*
X296834304Y-77584469D01*
X296739066Y-77632088D01*
X296548590Y-77632088D01*
X296453352Y-77584469D01*
X296405733Y-77536850D01*
X296358114Y-77441612D01*
X118018666Y-119565602D02*
X118066285Y-119613221D01*
X118209142Y-119660840D01*
X118304380Y-119660840D01*
X118447238Y-119613221D01*
X118542476Y-119517983D01*
X118590095Y-119422745D01*
X118637714Y-119232269D01*
X118637714Y-119089412D01*
X118590095Y-118898936D01*
X118542476Y-118803698D01*
X118447238Y-118708460D01*
X118304380Y-118660840D01*
X118209142Y-118660840D01*
X118066285Y-118708460D01*
X118018666Y-118756079D01*
X117685333Y-118660840D02*
X117066285Y-118660840D01*
X117399619Y-119041793D01*
X117256761Y-119041793D01*
X117161523Y-119089412D01*
X117113904Y-119137031D01*
X117066285Y-119232269D01*
X117066285Y-119470364D01*
X117113904Y-119565602D01*
X117161523Y-119613221D01*
X117256761Y-119660840D01*
X117542476Y-119660840D01*
X117637714Y-119613221D01*
X117685333Y-119565602D01*
X141671804Y-78013040D02*
X141671804Y-77013040D01*
X141433709Y-77013040D01*
X141290852Y-77060660D01*
X141195614Y-77155898D01*
X141147995Y-77251136D01*
X141100376Y-77441612D01*
X141100376Y-77584469D01*
X141147995Y-77774945D01*
X141195614Y-77870183D01*
X141290852Y-77965421D01*
X141433709Y-78013040D01*
X141671804Y-78013040D01*
X140719423Y-77108279D02*
X140671804Y-77060660D01*
X140576566Y-77013040D01*
X140338471Y-77013040D01*
X140243233Y-77060660D01*
X140195614Y-77108279D01*
X140147995Y-77203517D01*
X140147995Y-77298755D01*
X140195614Y-77441612D01*
X140767042Y-78013040D01*
X140147995Y-78013040D01*
X139195614Y-78013040D02*
X139767042Y-78013040D01*
X139481328Y-78013040D02*
X139481328Y-77013040D01*
X139576566Y-77155898D01*
X139671804Y-77251136D01*
X139767042Y-77298755D01*
X217871804Y-78013040D02*
X217871804Y-77013040D01*
X217633709Y-77013040D01*
X217490852Y-77060660D01*
X217395614Y-77155898D01*
X217347995Y-77251136D01*
X217300376Y-77441612D01*
X217300376Y-77584469D01*
X217347995Y-77774945D01*
X217395614Y-77870183D01*
X217490852Y-77965421D01*
X217633709Y-78013040D01*
X217871804Y-78013040D01*
X216919423Y-77108279D02*
X216871804Y-77060660D01*
X216776566Y-77013040D01*
X216538471Y-77013040D01*
X216443233Y-77060660D01*
X216395614Y-77108279D01*
X216347995Y-77203517D01*
X216347995Y-77298755D01*
X216395614Y-77441612D01*
X216967042Y-78013040D01*
X216347995Y-78013040D01*
X215443233Y-77013040D02*
X215919423Y-77013040D01*
X215967042Y-77489231D01*
X215919423Y-77441612D01*
X215824185Y-77393993D01*
X215586090Y-77393993D01*
X215490852Y-77441612D01*
X215443233Y-77489231D01*
X215395614Y-77584469D01*
X215395614Y-77822564D01*
X215443233Y-77917802D01*
X215490852Y-77965421D01*
X215586090Y-78013040D01*
X215824185Y-78013040D01*
X215919423Y-77965421D01*
X215967042Y-77917802D01*
X284546804Y-134563040D02*
X284546804Y-133563040D01*
X284308709Y-133563040D01*
X284165852Y-133610660D01*
X284070614Y-133705898D01*
X284022995Y-133801136D01*
X283975376Y-133991612D01*
X283975376Y-134134469D01*
X284022995Y-134324945D01*
X284070614Y-134420183D01*
X284165852Y-134515421D01*
X284308709Y-134563040D01*
X284546804Y-134563040D01*
X283118233Y-133563040D02*
X283308709Y-133563040D01*
X283403947Y-133610660D01*
X283451566Y-133658279D01*
X283546804Y-133801136D01*
X283594423Y-133991612D01*
X283594423Y-134372564D01*
X283546804Y-134467802D01*
X283499185Y-134515421D01*
X283403947Y-134563040D01*
X283213471Y-134563040D01*
X283118233Y-134515421D01*
X283070614Y-134467802D01*
X283022995Y-134372564D01*
X283022995Y-134134469D01*
X283070614Y-134039231D01*
X283118233Y-133991612D01*
X283213471Y-133943993D01*
X283403947Y-133943993D01*
X283499185Y-133991612D01*
X283546804Y-134039231D01*
X283594423Y-134134469D01*
X282165852Y-133563040D02*
X282356328Y-133563040D01*
X282451566Y-133610660D01*
X282499185Y-133658279D01*
X282594423Y-133801136D01*
X282642042Y-133991612D01*
X282642042Y-134372564D01*
X282594423Y-134467802D01*
X282546804Y-134515421D01*
X282451566Y-134563040D01*
X282261090Y-134563040D01*
X282165852Y-134515421D01*
X282118233Y-134467802D01*
X282070614Y-134372564D01*
X282070614Y-134134469D01*
X282118233Y-134039231D01*
X282165852Y-133991612D01*
X282261090Y-133943993D01*
X282451566Y-133943993D01*
X282546804Y-133991612D01*
X282594423Y-134039231D01*
X282642042Y-134134469D01*
X103571804Y-78013040D02*
X103571804Y-77013040D01*
X103333709Y-77013040D01*
X103190852Y-77060660D01*
X103095614Y-77155898D01*
X103047995Y-77251136D01*
X103000376Y-77441612D01*
X103000376Y-77584469D01*
X103047995Y-77774945D01*
X103095614Y-77870183D01*
X103190852Y-77965421D01*
X103333709Y-78013040D01*
X103571804Y-78013040D01*
X102047995Y-78013040D02*
X102619423Y-78013040D01*
X102333709Y-78013040D02*
X102333709Y-77013040D01*
X102428947Y-77155898D01*
X102524185Y-77251136D01*
X102619423Y-77298755D01*
X101571804Y-78013040D02*
X101381328Y-78013040D01*
X101286090Y-77965421D01*
X101238471Y-77917802D01*
X101143233Y-77774945D01*
X101095614Y-77584469D01*
X101095614Y-77203517D01*
X101143233Y-77108279D01*
X101190852Y-77060660D01*
X101286090Y-77013040D01*
X101476566Y-77013040D01*
X101571804Y-77060660D01*
X101619423Y-77108279D01*
X101667042Y-77203517D01*
X101667042Y-77441612D01*
X101619423Y-77536850D01*
X101571804Y-77584469D01*
X101476566Y-77632088D01*
X101286090Y-77632088D01*
X101190852Y-77584469D01*
X101143233Y-77536850D01*
X101095614Y-77441612D01*
X39278054Y-134563040D02*
X39278054Y-133563040D01*
X39039959Y-133563040D01*
X38897102Y-133610660D01*
X38801864Y-133705898D01*
X38754245Y-133801136D01*
X38706626Y-133991612D01*
X38706626Y-134134469D01*
X38754245Y-134324945D01*
X38801864Y-134420183D01*
X38897102Y-134515421D01*
X39039959Y-134563040D01*
X39278054Y-134563040D01*
X37801864Y-133563040D02*
X38278054Y-133563040D01*
X38325673Y-134039231D01*
X38278054Y-133991612D01*
X38182816Y-133943993D01*
X37944721Y-133943993D01*
X37849483Y-133991612D01*
X37801864Y-134039231D01*
X37754245Y-134134469D01*
X37754245Y-134372564D01*
X37801864Y-134467802D01*
X37849483Y-134515421D01*
X37944721Y-134563040D01*
X38182816Y-134563040D01*
X38278054Y-134515421D01*
X38325673Y-134467802D01*
X37278054Y-134563040D02*
X37087578Y-134563040D01*
X36992340Y-134515421D01*
X36944721Y-134467802D01*
X36849483Y-134324945D01*
X36801864Y-134134469D01*
X36801864Y-133753517D01*
X36849483Y-133658279D01*
X36897102Y-133610660D01*
X36992340Y-133563040D01*
X37182816Y-133563040D01*
X37278054Y-133610660D01*
X37325673Y-133658279D01*
X37373292Y-133753517D01*
X37373292Y-133991612D01*
X37325673Y-134086850D01*
X37278054Y-134134469D01*
X37182816Y-134182088D01*
X36992340Y-134182088D01*
X36897102Y-134134469D01*
X36849483Y-134086850D01*
X36801864Y-133991612D01*
X260734304Y-97063040D02*
X260734304Y-96063040D01*
X260496209Y-96063040D01*
X260353352Y-96110660D01*
X260258114Y-96205898D01*
X260210495Y-96301136D01*
X260162876Y-96491612D01*
X260162876Y-96634469D01*
X260210495Y-96824945D01*
X260258114Y-96920183D01*
X260353352Y-97015421D01*
X260496209Y-97063040D01*
X260734304Y-97063040D01*
X259305733Y-96396374D02*
X259305733Y-97063040D01*
X259543828Y-96015421D02*
X259781923Y-96729707D01*
X259162876Y-96729707D01*
X258829542Y-96158279D02*
X258781923Y-96110660D01*
X258686685Y-96063040D01*
X258448590Y-96063040D01*
X258353352Y-96110660D01*
X258305733Y-96158279D01*
X258258114Y-96253517D01*
X258258114Y-96348755D01*
X258305733Y-96491612D01*
X258877161Y-97063040D01*
X258258114Y-97063040D01*
X227396804Y-134563040D02*
X227396804Y-133563040D01*
X227158709Y-133563040D01*
X227015852Y-133610660D01*
X226920614Y-133705898D01*
X226872995Y-133801136D01*
X226825376Y-133991612D01*
X226825376Y-134134469D01*
X226872995Y-134324945D01*
X226920614Y-134420183D01*
X227015852Y-134515421D01*
X227158709Y-134563040D01*
X227396804Y-134563040D01*
X225968233Y-133563040D02*
X226158709Y-133563040D01*
X226253947Y-133610660D01*
X226301566Y-133658279D01*
X226396804Y-133801136D01*
X226444423Y-133991612D01*
X226444423Y-134372564D01*
X226396804Y-134467802D01*
X226349185Y-134515421D01*
X226253947Y-134563040D01*
X226063471Y-134563040D01*
X225968233Y-134515421D01*
X225920614Y-134467802D01*
X225872995Y-134372564D01*
X225872995Y-134134469D01*
X225920614Y-134039231D01*
X225968233Y-133991612D01*
X226063471Y-133943993D01*
X226253947Y-133943993D01*
X226349185Y-133991612D01*
X226396804Y-134039231D01*
X226444423Y-134134469D01*
X225539661Y-133563040D02*
X224920614Y-133563040D01*
X225253947Y-133943993D01*
X225111090Y-133943993D01*
X225015852Y-133991612D01*
X224968233Y-134039231D01*
X224920614Y-134134469D01*
X224920614Y-134372564D01*
X224968233Y-134467802D01*
X225015852Y-134515421D01*
X225111090Y-134563040D01*
X225396804Y-134563040D01*
X225492042Y-134515421D01*
X225539661Y-134467802D01*
X44572904Y-59735240D02*
X44572904Y-60544764D01*
X44525285Y-60640002D01*
X44477666Y-60687621D01*
X44382428Y-60735240D01*
X44191952Y-60735240D01*
X44096714Y-60687621D01*
X44049095Y-60640002D01*
X44001476Y-60544764D01*
X44001476Y-59735240D01*
X43620523Y-59735240D02*
X43001476Y-59735240D01*
X43334809Y-60116193D01*
X43191952Y-60116193D01*
X43096714Y-60163812D01*
X43049095Y-60211431D01*
X43001476Y-60306669D01*
X43001476Y-60544764D01*
X43049095Y-60640002D01*
X43096714Y-60687621D01*
X43191952Y-60735240D01*
X43477666Y-60735240D01*
X43572904Y-60687621D01*
X43620523Y-60640002D01*
X120685666Y-120911802D02*
X120733285Y-120959421D01*
X120876142Y-121007040D01*
X120971380Y-121007040D01*
X121114238Y-120959421D01*
X121209476Y-120864183D01*
X121257095Y-120768945D01*
X121304714Y-120578469D01*
X121304714Y-120435612D01*
X121257095Y-120245136D01*
X121209476Y-120149898D01*
X121114238Y-120054660D01*
X120971380Y-120007040D01*
X120876142Y-120007040D01*
X120733285Y-120054660D01*
X120685666Y-120102279D01*
X120209476Y-121007040D02*
X120019000Y-121007040D01*
X119923761Y-120959421D01*
X119876142Y-120911802D01*
X119780904Y-120768945D01*
X119733285Y-120578469D01*
X119733285Y-120197517D01*
X119780904Y-120102279D01*
X119828523Y-120054660D01*
X119923761Y-120007040D01*
X120114238Y-120007040D01*
X120209476Y-120054660D01*
X120257095Y-120102279D01*
X120304714Y-120197517D01*
X120304714Y-120435612D01*
X120257095Y-120530850D01*
X120209476Y-120578469D01*
X120114238Y-120626088D01*
X119923761Y-120626088D01*
X119828523Y-120578469D01*
X119780904Y-120530850D01*
X119733285Y-120435612D01*
X175009304Y-115542499D02*
X175009304Y-114542499D01*
X174771209Y-114542499D01*
X174628352Y-114590119D01*
X174533114Y-114685357D01*
X174485495Y-114780595D01*
X174437876Y-114971071D01*
X174437876Y-115113928D01*
X174485495Y-115304404D01*
X174533114Y-115399642D01*
X174628352Y-115494880D01*
X174771209Y-115542499D01*
X175009304Y-115542499D01*
X173533114Y-114542499D02*
X174009304Y-114542499D01*
X174056923Y-115018690D01*
X174009304Y-114971071D01*
X173914066Y-114923452D01*
X173675971Y-114923452D01*
X173580733Y-114971071D01*
X173533114Y-115018690D01*
X173485495Y-115113928D01*
X173485495Y-115352023D01*
X173533114Y-115447261D01*
X173580733Y-115494880D01*
X173675971Y-115542499D01*
X173914066Y-115542499D01*
X174009304Y-115494880D01*
X174056923Y-115447261D01*
X172533114Y-115542499D02*
X173104542Y-115542499D01*
X172818828Y-115542499D02*
X172818828Y-114542499D01*
X172914066Y-114685357D01*
X173009304Y-114780595D01*
X173104542Y-114828214D01*
X113096804Y-58963040D02*
X113096804Y-57963040D01*
X112858709Y-57963040D01*
X112715852Y-58010660D01*
X112620614Y-58105898D01*
X112572995Y-58201136D01*
X112525376Y-58391612D01*
X112525376Y-58534469D01*
X112572995Y-58724945D01*
X112620614Y-58820183D01*
X112715852Y-58915421D01*
X112858709Y-58963040D01*
X113096804Y-58963040D01*
X111620614Y-57963040D02*
X112096804Y-57963040D01*
X112144423Y-58439231D01*
X112096804Y-58391612D01*
X112001566Y-58343993D01*
X111763471Y-58343993D01*
X111668233Y-58391612D01*
X111620614Y-58439231D01*
X111572995Y-58534469D01*
X111572995Y-58772564D01*
X111620614Y-58867802D01*
X111668233Y-58915421D01*
X111763471Y-58963040D01*
X112001566Y-58963040D01*
X112096804Y-58915421D01*
X112144423Y-58867802D01*
X322646804Y-78013040D02*
X322646804Y-77013040D01*
X322408709Y-77013040D01*
X322265852Y-77060660D01*
X322170614Y-77155898D01*
X322122995Y-77251136D01*
X322075376Y-77441612D01*
X322075376Y-77584469D01*
X322122995Y-77774945D01*
X322170614Y-77870183D01*
X322265852Y-77965421D01*
X322408709Y-78013040D01*
X322646804Y-78013040D01*
X321742042Y-77013040D02*
X321122995Y-77013040D01*
X321456328Y-77393993D01*
X321313471Y-77393993D01*
X321218233Y-77441612D01*
X321170614Y-77489231D01*
X321122995Y-77584469D01*
X321122995Y-77822564D01*
X321170614Y-77917802D01*
X321218233Y-77965421D01*
X321313471Y-78013040D01*
X321599185Y-78013040D01*
X321694423Y-77965421D01*
X321742042Y-77917802D01*
X320503947Y-77013040D02*
X320408709Y-77013040D01*
X320313471Y-77060660D01*
X320265852Y-77108279D01*
X320218233Y-77203517D01*
X320170614Y-77393993D01*
X320170614Y-77632088D01*
X320218233Y-77822564D01*
X320265852Y-77917802D01*
X320313471Y-77965421D01*
X320408709Y-78013040D01*
X320503947Y-78013040D01*
X320599185Y-77965421D01*
X320646804Y-77917802D01*
X320694423Y-77822564D01*
X320742042Y-77632088D01*
X320742042Y-77393993D01*
X320694423Y-77203517D01*
X320646804Y-77108279D01*
X320599185Y-77060660D01*
X320503947Y-77013040D01*
X115869866Y-136278802D02*
X115917485Y-136326421D01*
X116060342Y-136374040D01*
X116155580Y-136374040D01*
X116298438Y-136326421D01*
X116393676Y-136231183D01*
X116441295Y-136135945D01*
X116488914Y-135945469D01*
X116488914Y-135802612D01*
X116441295Y-135612136D01*
X116393676Y-135516898D01*
X116298438Y-135421660D01*
X116155580Y-135374040D01*
X116060342Y-135374040D01*
X115917485Y-135421660D01*
X115869866Y-135469279D01*
X114965104Y-135374040D02*
X115441295Y-135374040D01*
X115488914Y-135850231D01*
X115441295Y-135802612D01*
X115346057Y-135754993D01*
X115107961Y-135754993D01*
X115012723Y-135802612D01*
X114965104Y-135850231D01*
X114917485Y-135945469D01*
X114917485Y-136183564D01*
X114965104Y-136278802D01*
X115012723Y-136326421D01*
X115107961Y-136374040D01*
X115346057Y-136374040D01*
X115441295Y-136326421D01*
X115488914Y-136278802D01*
X277403054Y-115542499D02*
X277403054Y-114542499D01*
X277164959Y-114542499D01*
X277022102Y-114590119D01*
X276926864Y-114685357D01*
X276879245Y-114780595D01*
X276831626Y-114971071D01*
X276831626Y-115113928D01*
X276879245Y-115304404D01*
X276926864Y-115399642D01*
X277022102Y-115494880D01*
X277164959Y-115542499D01*
X277403054Y-115542499D01*
X275926864Y-114542499D02*
X276403054Y-114542499D01*
X276450673Y-115018690D01*
X276403054Y-114971071D01*
X276307816Y-114923452D01*
X276069721Y-114923452D01*
X275974483Y-114971071D01*
X275926864Y-115018690D01*
X275879245Y-115113928D01*
X275879245Y-115352023D01*
X275926864Y-115447261D01*
X275974483Y-115494880D01*
X276069721Y-115542499D01*
X276307816Y-115542499D01*
X276403054Y-115494880D01*
X276450673Y-115447261D01*
X275022102Y-114542499D02*
X275212578Y-114542499D01*
X275307816Y-114590119D01*
X275355435Y-114637738D01*
X275450673Y-114780595D01*
X275498292Y-114971071D01*
X275498292Y-115352023D01*
X275450673Y-115447261D01*
X275403054Y-115494880D01*
X275307816Y-115542499D01*
X275117340Y-115542499D01*
X275022102Y-115494880D01*
X274974483Y-115447261D01*
X274926864Y-115352023D01*
X274926864Y-115113928D01*
X274974483Y-115018690D01*
X275022102Y-114971071D01*
X275117340Y-114923452D01*
X275307816Y-114923452D01*
X275403054Y-114971071D01*
X275450673Y-115018690D01*
X275498292Y-115113928D01*
X115565904Y-118660840D02*
X115565904Y-119470364D01*
X115518285Y-119565602D01*
X115470666Y-119613221D01*
X115375428Y-119660840D01*
X115184952Y-119660840D01*
X115089714Y-119613221D01*
X115042095Y-119565602D01*
X114994476Y-119470364D01*
X114994476Y-118660840D01*
X114565904Y-118756079D02*
X114518285Y-118708460D01*
X114423047Y-118660840D01*
X114184952Y-118660840D01*
X114089714Y-118708460D01*
X114042095Y-118756079D01*
X113994476Y-118851317D01*
X113994476Y-118946555D01*
X114042095Y-119089412D01*
X114613523Y-119660840D01*
X113994476Y-119660840D01*
X127384304Y-97063040D02*
X127384304Y-96063040D01*
X127146209Y-96063040D01*
X127003352Y-96110660D01*
X126908114Y-96205898D01*
X126860495Y-96301136D01*
X126812876Y-96491612D01*
X126812876Y-96634469D01*
X126860495Y-96824945D01*
X126908114Y-96920183D01*
X127003352Y-97015421D01*
X127146209Y-97063040D01*
X127384304Y-97063040D01*
X126479542Y-96063040D02*
X125860495Y-96063040D01*
X126193828Y-96443993D01*
X126050971Y-96443993D01*
X125955733Y-96491612D01*
X125908114Y-96539231D01*
X125860495Y-96634469D01*
X125860495Y-96872564D01*
X125908114Y-96967802D01*
X125955733Y-97015421D01*
X126050971Y-97063040D01*
X126336685Y-97063040D01*
X126431923Y-97015421D01*
X126479542Y-96967802D01*
X124955733Y-96063040D02*
X125431923Y-96063040D01*
X125479542Y-96539231D01*
X125431923Y-96491612D01*
X125336685Y-96443993D01*
X125098590Y-96443993D01*
X125003352Y-96491612D01*
X124955733Y-96539231D01*
X124908114Y-96634469D01*
X124908114Y-96872564D01*
X124955733Y-96967802D01*
X125003352Y-97015421D01*
X125098590Y-97063040D01*
X125336685Y-97063040D01*
X125431923Y-97015421D01*
X125479542Y-96967802D01*
X132146804Y-58963040D02*
X132146804Y-57963040D01*
X131908709Y-57963040D01*
X131765852Y-58010660D01*
X131670614Y-58105898D01*
X131622995Y-58201136D01*
X131575376Y-58391612D01*
X131575376Y-58534469D01*
X131622995Y-58724945D01*
X131670614Y-58820183D01*
X131765852Y-58915421D01*
X131908709Y-58963040D01*
X132146804Y-58963040D01*
X130718233Y-57963040D02*
X130908709Y-57963040D01*
X131003947Y-58010660D01*
X131051566Y-58058279D01*
X131146804Y-58201136D01*
X131194423Y-58391612D01*
X131194423Y-58772564D01*
X131146804Y-58867802D01*
X131099185Y-58915421D01*
X131003947Y-58963040D01*
X130813471Y-58963040D01*
X130718233Y-58915421D01*
X130670614Y-58867802D01*
X130622995Y-58772564D01*
X130622995Y-58534469D01*
X130670614Y-58439231D01*
X130718233Y-58391612D01*
X130813471Y-58343993D01*
X131003947Y-58343993D01*
X131099185Y-58391612D01*
X131146804Y-58439231D01*
X131194423Y-58534469D01*
X79759304Y-115542499D02*
X79759304Y-114542499D01*
X79521209Y-114542499D01*
X79378352Y-114590119D01*
X79283114Y-114685357D01*
X79235495Y-114780595D01*
X79187876Y-114971071D01*
X79187876Y-115113928D01*
X79235495Y-115304404D01*
X79283114Y-115399642D01*
X79378352Y-115494880D01*
X79521209Y-115542499D01*
X79759304Y-115542499D01*
X78330733Y-114875833D02*
X78330733Y-115542499D01*
X78568828Y-114494880D02*
X78806923Y-115209166D01*
X78187876Y-115209166D01*
X77378352Y-114542499D02*
X77568828Y-114542499D01*
X77664066Y-114590119D01*
X77711685Y-114637738D01*
X77806923Y-114780595D01*
X77854542Y-114971071D01*
X77854542Y-115352023D01*
X77806923Y-115447261D01*
X77759304Y-115494880D01*
X77664066Y-115542499D01*
X77473590Y-115542499D01*
X77378352Y-115494880D01*
X77330733Y-115447261D01*
X77283114Y-115352023D01*
X77283114Y-115113928D01*
X77330733Y-115018690D01*
X77378352Y-114971071D01*
X77473590Y-114923452D01*
X77664066Y-114923452D01*
X77759304Y-114971071D01*
X77806923Y-115018690D01*
X77854542Y-115113928D01*
X108334304Y-97063040D02*
X108334304Y-96063040D01*
X108096209Y-96063040D01*
X107953352Y-96110660D01*
X107858114Y-96205898D01*
X107810495Y-96301136D01*
X107762876Y-96491612D01*
X107762876Y-96634469D01*
X107810495Y-96824945D01*
X107858114Y-96920183D01*
X107953352Y-97015421D01*
X108096209Y-97063040D01*
X108334304Y-97063040D01*
X107429542Y-96063040D02*
X106810495Y-96063040D01*
X107143828Y-96443993D01*
X107000971Y-96443993D01*
X106905733Y-96491612D01*
X106858114Y-96539231D01*
X106810495Y-96634469D01*
X106810495Y-96872564D01*
X106858114Y-96967802D01*
X106905733Y-97015421D01*
X107000971Y-97063040D01*
X107286685Y-97063040D01*
X107381923Y-97015421D01*
X107429542Y-96967802D01*
X105953352Y-96396374D02*
X105953352Y-97063040D01*
X106191447Y-96015421D02*
X106429542Y-96729707D01*
X105810495Y-96729707D01*
X203584304Y-97063040D02*
X203584304Y-96063040D01*
X203346209Y-96063040D01*
X203203352Y-96110660D01*
X203108114Y-96205898D01*
X203060495Y-96301136D01*
X203012876Y-96491612D01*
X203012876Y-96634469D01*
X203060495Y-96824945D01*
X203108114Y-96920183D01*
X203203352Y-97015421D01*
X203346209Y-97063040D01*
X203584304Y-97063040D01*
X202679542Y-96063040D02*
X202060495Y-96063040D01*
X202393828Y-96443993D01*
X202250971Y-96443993D01*
X202155733Y-96491612D01*
X202108114Y-96539231D01*
X202060495Y-96634469D01*
X202060495Y-96872564D01*
X202108114Y-96967802D01*
X202155733Y-97015421D01*
X202250971Y-97063040D01*
X202536685Y-97063040D01*
X202631923Y-97015421D01*
X202679542Y-96967802D01*
X201584304Y-97063040D02*
X201393828Y-97063040D01*
X201298590Y-97015421D01*
X201250971Y-96967802D01*
X201155733Y-96824945D01*
X201108114Y-96634469D01*
X201108114Y-96253517D01*
X201155733Y-96158279D01*
X201203352Y-96110660D01*
X201298590Y-96063040D01*
X201489066Y-96063040D01*
X201584304Y-96110660D01*
X201631923Y-96158279D01*
X201679542Y-96253517D01*
X201679542Y-96491612D01*
X201631923Y-96586850D01*
X201584304Y-96634469D01*
X201489066Y-96682088D01*
X201298590Y-96682088D01*
X201203352Y-96634469D01*
X201155733Y-96586850D01*
X201108114Y-96491612D01*
X241684304Y-97063040D02*
X241684304Y-96063040D01*
X241446209Y-96063040D01*
X241303352Y-96110660D01*
X241208114Y-96205898D01*
X241160495Y-96301136D01*
X241112876Y-96491612D01*
X241112876Y-96634469D01*
X241160495Y-96824945D01*
X241208114Y-96920183D01*
X241303352Y-97015421D01*
X241446209Y-97063040D01*
X241684304Y-97063040D01*
X240255733Y-96396374D02*
X240255733Y-97063040D01*
X240493828Y-96015421D02*
X240731923Y-96729707D01*
X240112876Y-96729707D01*
X239208114Y-97063040D02*
X239779542Y-97063040D01*
X239493828Y-97063040D02*
X239493828Y-96063040D01*
X239589066Y-96205898D01*
X239684304Y-96301136D01*
X239779542Y-96348755D01*
X111922666Y-119565602D02*
X111970285Y-119613221D01*
X112113142Y-119660840D01*
X112208380Y-119660840D01*
X112351238Y-119613221D01*
X112446476Y-119517983D01*
X112494095Y-119422745D01*
X112541714Y-119232269D01*
X112541714Y-119089412D01*
X112494095Y-118898936D01*
X112446476Y-118803698D01*
X112351238Y-118708460D01*
X112208380Y-118660840D01*
X112113142Y-118660840D01*
X111970285Y-118708460D01*
X111922666Y-118756079D01*
X111541714Y-118756079D02*
X111494095Y-118708460D01*
X111398857Y-118660840D01*
X111160761Y-118660840D01*
X111065523Y-118708460D01*
X111017904Y-118756079D01*
X110970285Y-118851317D01*
X110970285Y-118946555D01*
X111017904Y-119089412D01*
X111589333Y-119660840D01*
X110970285Y-119660840D01*
X170246804Y-58963040D02*
X170246804Y-57963040D01*
X170008709Y-57963040D01*
X169865852Y-58010660D01*
X169770614Y-58105898D01*
X169722995Y-58201136D01*
X169675376Y-58391612D01*
X169675376Y-58534469D01*
X169722995Y-58724945D01*
X169770614Y-58820183D01*
X169865852Y-58915421D01*
X170008709Y-58963040D01*
X170246804Y-58963040D01*
X169103947Y-58391612D02*
X169199185Y-58343993D01*
X169246804Y-58296374D01*
X169294423Y-58201136D01*
X169294423Y-58153517D01*
X169246804Y-58058279D01*
X169199185Y-58010660D01*
X169103947Y-57963040D01*
X168913471Y-57963040D01*
X168818233Y-58010660D01*
X168770614Y-58058279D01*
X168722995Y-58153517D01*
X168722995Y-58201136D01*
X168770614Y-58296374D01*
X168818233Y-58343993D01*
X168913471Y-58391612D01*
X169103947Y-58391612D01*
X169199185Y-58439231D01*
X169246804Y-58486850D01*
X169294423Y-58582088D01*
X169294423Y-58772564D01*
X169246804Y-58867802D01*
X169199185Y-58915421D01*
X169103947Y-58963040D01*
X168913471Y-58963040D01*
X168818233Y-58915421D01*
X168770614Y-58867802D01*
X168722995Y-58772564D01*
X168722995Y-58582088D01*
X168770614Y-58486850D01*
X168818233Y-58439231D01*
X168913471Y-58391612D01*
X74996804Y-58963040D02*
X74996804Y-57963040D01*
X74758709Y-57963040D01*
X74615852Y-58010660D01*
X74520614Y-58105898D01*
X74472995Y-58201136D01*
X74425376Y-58391612D01*
X74425376Y-58534469D01*
X74472995Y-58724945D01*
X74520614Y-58820183D01*
X74615852Y-58915421D01*
X74758709Y-58963040D01*
X74996804Y-58963040D01*
X74092042Y-57963040D02*
X73472995Y-57963040D01*
X73806328Y-58343993D01*
X73663471Y-58343993D01*
X73568233Y-58391612D01*
X73520614Y-58439231D01*
X73472995Y-58534469D01*
X73472995Y-58772564D01*
X73520614Y-58867802D01*
X73568233Y-58915421D01*
X73663471Y-58963040D01*
X73949185Y-58963040D01*
X74044423Y-58915421D01*
X74092042Y-58867802D01*
X265496804Y-134563040D02*
X265496804Y-133563040D01*
X265258709Y-133563040D01*
X265115852Y-133610660D01*
X265020614Y-133705898D01*
X264972995Y-133801136D01*
X264925376Y-133991612D01*
X264925376Y-134134469D01*
X264972995Y-134324945D01*
X265020614Y-134420183D01*
X265115852Y-134515421D01*
X265258709Y-134563040D01*
X265496804Y-134563040D01*
X264068233Y-133563040D02*
X264258709Y-133563040D01*
X264353947Y-133610660D01*
X264401566Y-133658279D01*
X264496804Y-133801136D01*
X264544423Y-133991612D01*
X264544423Y-134372564D01*
X264496804Y-134467802D01*
X264449185Y-134515421D01*
X264353947Y-134563040D01*
X264163471Y-134563040D01*
X264068233Y-134515421D01*
X264020614Y-134467802D01*
X263972995Y-134372564D01*
X263972995Y-134134469D01*
X264020614Y-134039231D01*
X264068233Y-133991612D01*
X264163471Y-133943993D01*
X264353947Y-133943993D01*
X264449185Y-133991612D01*
X264496804Y-134039231D01*
X264544423Y-134134469D01*
X263068233Y-133563040D02*
X263544423Y-133563040D01*
X263592042Y-134039231D01*
X263544423Y-133991612D01*
X263449185Y-133943993D01*
X263211090Y-133943993D01*
X263115852Y-133991612D01*
X263068233Y-134039231D01*
X263020614Y-134134469D01*
X263020614Y-134372564D01*
X263068233Y-134467802D01*
X263115852Y-134515421D01*
X263211090Y-134563040D01*
X263449185Y-134563040D01*
X263544423Y-134515421D01*
X263592042Y-134467802D01*
X198821804Y-78013040D02*
X198821804Y-77013040D01*
X198583709Y-77013040D01*
X198440852Y-77060660D01*
X198345614Y-77155898D01*
X198297995Y-77251136D01*
X198250376Y-77441612D01*
X198250376Y-77584469D01*
X198297995Y-77774945D01*
X198345614Y-77870183D01*
X198440852Y-77965421D01*
X198583709Y-78013040D01*
X198821804Y-78013040D01*
X197869423Y-77108279D02*
X197821804Y-77060660D01*
X197726566Y-77013040D01*
X197488471Y-77013040D01*
X197393233Y-77060660D01*
X197345614Y-77108279D01*
X197297995Y-77203517D01*
X197297995Y-77298755D01*
X197345614Y-77441612D01*
X197917042Y-78013040D01*
X197297995Y-78013040D01*
X196440852Y-77346374D02*
X196440852Y-78013040D01*
X196678947Y-76965421D02*
X196917042Y-77679707D01*
X196297995Y-77679707D01*
X155959304Y-115542499D02*
X155959304Y-114542499D01*
X155721209Y-114542499D01*
X155578352Y-114590119D01*
X155483114Y-114685357D01*
X155435495Y-114780595D01*
X155387876Y-114971071D01*
X155387876Y-115113928D01*
X155435495Y-115304404D01*
X155483114Y-115399642D01*
X155578352Y-115494880D01*
X155721209Y-115542499D01*
X155959304Y-115542499D01*
X154483114Y-114542499D02*
X154959304Y-114542499D01*
X155006923Y-115018690D01*
X154959304Y-114971071D01*
X154864066Y-114923452D01*
X154625971Y-114923452D01*
X154530733Y-114971071D01*
X154483114Y-115018690D01*
X154435495Y-115113928D01*
X154435495Y-115352023D01*
X154483114Y-115447261D01*
X154530733Y-115494880D01*
X154625971Y-115542499D01*
X154864066Y-115542499D01*
X154959304Y-115494880D01*
X155006923Y-115447261D01*
X153816447Y-114542499D02*
X153721209Y-114542499D01*
X153625971Y-114590119D01*
X153578352Y-114637738D01*
X153530733Y-114732976D01*
X153483114Y-114923452D01*
X153483114Y-115161547D01*
X153530733Y-115352023D01*
X153578352Y-115447261D01*
X153625971Y-115494880D01*
X153721209Y-115542499D01*
X153816447Y-115542499D01*
X153911685Y-115494880D01*
X153959304Y-115447261D01*
X154006923Y-115352023D01*
X154054542Y-115161547D01*
X154054542Y-114923452D01*
X154006923Y-114732976D01*
X153959304Y-114637738D01*
X153911685Y-114590119D01*
X153816447Y-114542499D01*
X265496804Y-58963040D02*
X265496804Y-57963040D01*
X265258709Y-57963040D01*
X265115852Y-58010660D01*
X265020614Y-58105898D01*
X264972995Y-58201136D01*
X264925376Y-58391612D01*
X264925376Y-58534469D01*
X264972995Y-58724945D01*
X265020614Y-58820183D01*
X265115852Y-58915421D01*
X265258709Y-58963040D01*
X265496804Y-58963040D01*
X263972995Y-58963040D02*
X264544423Y-58963040D01*
X264258709Y-58963040D02*
X264258709Y-57963040D01*
X264353947Y-58105898D01*
X264449185Y-58201136D01*
X264544423Y-58248755D01*
X263639661Y-57963040D02*
X263020614Y-57963040D01*
X263353947Y-58343993D01*
X263211090Y-58343993D01*
X263115852Y-58391612D01*
X263068233Y-58439231D01*
X263020614Y-58534469D01*
X263020614Y-58772564D01*
X263068233Y-58867802D01*
X263115852Y-58915421D01*
X263211090Y-58963040D01*
X263496804Y-58963040D01*
X263592042Y-58915421D01*
X263639661Y-58867802D01*
X41659304Y-78013040D02*
X41659304Y-77013040D01*
X41421209Y-77013040D01*
X41278352Y-77060660D01*
X41183114Y-77155898D01*
X41135495Y-77251136D01*
X41087876Y-77441612D01*
X41087876Y-77584469D01*
X41135495Y-77774945D01*
X41183114Y-77870183D01*
X41278352Y-77965421D01*
X41421209Y-78013040D01*
X41659304Y-78013040D01*
X40135495Y-78013040D02*
X40706923Y-78013040D01*
X40421209Y-78013040D02*
X40421209Y-77013040D01*
X40516447Y-77155898D01*
X40611685Y-77251136D01*
X40706923Y-77298755D01*
X39278352Y-77013040D02*
X39468828Y-77013040D01*
X39564066Y-77060660D01*
X39611685Y-77108279D01*
X39706923Y-77251136D01*
X39754542Y-77441612D01*
X39754542Y-77822564D01*
X39706923Y-77917802D01*
X39659304Y-77965421D01*
X39564066Y-78013040D01*
X39373590Y-78013040D01*
X39278352Y-77965421D01*
X39230733Y-77917802D01*
X39183114Y-77822564D01*
X39183114Y-77584469D01*
X39230733Y-77489231D01*
X39278352Y-77441612D01*
X39373590Y-77393993D01*
X39564066Y-77393993D01*
X39659304Y-77441612D01*
X39706923Y-77489231D01*
X39754542Y-77584469D01*
X322646804Y-58963040D02*
X322646804Y-57963040D01*
X322408709Y-57963040D01*
X322265852Y-58010660D01*
X322170614Y-58105898D01*
X322122995Y-58201136D01*
X322075376Y-58391612D01*
X322075376Y-58534469D01*
X322122995Y-58724945D01*
X322170614Y-58820183D01*
X322265852Y-58915421D01*
X322408709Y-58963040D01*
X322646804Y-58963040D01*
X321122995Y-58963040D02*
X321694423Y-58963040D01*
X321408709Y-58963040D02*
X321408709Y-57963040D01*
X321503947Y-58105898D01*
X321599185Y-58201136D01*
X321694423Y-58248755D01*
X320218233Y-57963040D02*
X320694423Y-57963040D01*
X320742042Y-58439231D01*
X320694423Y-58391612D01*
X320599185Y-58343993D01*
X320361090Y-58343993D01*
X320265852Y-58391612D01*
X320218233Y-58439231D01*
X320170614Y-58534469D01*
X320170614Y-58772564D01*
X320218233Y-58867802D01*
X320265852Y-58915421D01*
X320361090Y-58963040D01*
X320599185Y-58963040D01*
X320694423Y-58915421D01*
X320742042Y-58867802D01*
X291690554Y-97063040D02*
X291690554Y-96063040D01*
X291452459Y-96063040D01*
X291309602Y-96110660D01*
X291214364Y-96205898D01*
X291166745Y-96301136D01*
X291119126Y-96491612D01*
X291119126Y-96634469D01*
X291166745Y-96824945D01*
X291214364Y-96920183D01*
X291309602Y-97015421D01*
X291452459Y-97063040D01*
X291690554Y-97063040D01*
X290261983Y-96396374D02*
X290261983Y-97063040D01*
X290500078Y-96015421D02*
X290738173Y-96729707D01*
X290119126Y-96729707D01*
X289833411Y-96063040D02*
X289214364Y-96063040D01*
X289547697Y-96443993D01*
X289404840Y-96443993D01*
X289309602Y-96491612D01*
X289261983Y-96539231D01*
X289214364Y-96634469D01*
X289214364Y-96872564D01*
X289261983Y-96967802D01*
X289309602Y-97015421D01*
X289404840Y-97063040D01*
X289690554Y-97063040D01*
X289785792Y-97015421D01*
X289833411Y-96967802D01*
X44040554Y-97063040D02*
X44040554Y-96063040D01*
X43802459Y-96063040D01*
X43659602Y-96110660D01*
X43564364Y-96205898D01*
X43516745Y-96301136D01*
X43469126Y-96491612D01*
X43469126Y-96634469D01*
X43516745Y-96824945D01*
X43564364Y-96920183D01*
X43659602Y-97015421D01*
X43802459Y-97063040D01*
X44040554Y-97063040D01*
X43135792Y-96063040D02*
X42516745Y-96063040D01*
X42850078Y-96443993D01*
X42707221Y-96443993D01*
X42611983Y-96491612D01*
X42564364Y-96539231D01*
X42516745Y-96634469D01*
X42516745Y-96872564D01*
X42564364Y-96967802D01*
X42611983Y-97015421D01*
X42707221Y-97063040D01*
X42992935Y-97063040D01*
X43088173Y-97015421D01*
X43135792Y-96967802D01*
X41564364Y-97063040D02*
X42135792Y-97063040D01*
X41850078Y-97063040D02*
X41850078Y-96063040D01*
X41945316Y-96205898D01*
X42040554Y-96301136D01*
X42135792Y-96348755D01*
X36896804Y-58963040D02*
X36896804Y-57963040D01*
X36658709Y-57963040D01*
X36515852Y-58010660D01*
X36420614Y-58105898D01*
X36372995Y-58201136D01*
X36325376Y-58391612D01*
X36325376Y-58534469D01*
X36372995Y-58724945D01*
X36420614Y-58820183D01*
X36515852Y-58915421D01*
X36658709Y-58963040D01*
X36896804Y-58963040D01*
X35372995Y-58963040D02*
X35944423Y-58963040D01*
X35658709Y-58963040D02*
X35658709Y-57963040D01*
X35753947Y-58105898D01*
X35849185Y-58201136D01*
X35944423Y-58248755D01*
X40977666Y-60735240D02*
X41311000Y-60259050D01*
X41549095Y-60735240D02*
X41549095Y-59735240D01*
X41168142Y-59735240D01*
X41072904Y-59782860D01*
X41025285Y-59830479D01*
X40977666Y-59925717D01*
X40977666Y-60068574D01*
X41025285Y-60163812D01*
X41072904Y-60211431D01*
X41168142Y-60259050D01*
X41549095Y-60259050D01*
X40025285Y-60735240D02*
X40596714Y-60735240D01*
X40311000Y-60735240D02*
X40311000Y-59735240D01*
X40406238Y-59878098D01*
X40501476Y-59973336D01*
X40596714Y-60020955D01*
X208346804Y-58963040D02*
X208346804Y-57963040D01*
X208108709Y-57963040D01*
X207965852Y-58010660D01*
X207870614Y-58105898D01*
X207822995Y-58201136D01*
X207775376Y-58391612D01*
X207775376Y-58534469D01*
X207822995Y-58724945D01*
X207870614Y-58820183D01*
X207965852Y-58915421D01*
X208108709Y-58963040D01*
X208346804Y-58963040D01*
X206822995Y-58963040D02*
X207394423Y-58963040D01*
X207108709Y-58963040D02*
X207108709Y-57963040D01*
X207203947Y-58105898D01*
X207299185Y-58201136D01*
X207394423Y-58248755D01*
X206203947Y-57963040D02*
X206108709Y-57963040D01*
X206013471Y-58010660D01*
X205965852Y-58058279D01*
X205918233Y-58153517D01*
X205870614Y-58343993D01*
X205870614Y-58582088D01*
X205918233Y-58772564D01*
X205965852Y-58867802D01*
X206013471Y-58915421D01*
X206108709Y-58963040D01*
X206203947Y-58963040D01*
X206299185Y-58915421D01*
X206346804Y-58867802D01*
X206394423Y-58772564D01*
X206442042Y-58582088D01*
X206442042Y-58343993D01*
X206394423Y-58153517D01*
X206346804Y-58058279D01*
X206299185Y-58010660D01*
X206203947Y-57963040D01*
X222634304Y-97063040D02*
X222634304Y-96063040D01*
X222396209Y-96063040D01*
X222253352Y-96110660D01*
X222158114Y-96205898D01*
X222110495Y-96301136D01*
X222062876Y-96491612D01*
X222062876Y-96634469D01*
X222110495Y-96824945D01*
X222158114Y-96920183D01*
X222253352Y-97015421D01*
X222396209Y-97063040D01*
X222634304Y-97063040D01*
X221205733Y-96396374D02*
X221205733Y-97063040D01*
X221443828Y-96015421D02*
X221681923Y-96729707D01*
X221062876Y-96729707D01*
X220491447Y-96063040D02*
X220396209Y-96063040D01*
X220300971Y-96110660D01*
X220253352Y-96158279D01*
X220205733Y-96253517D01*
X220158114Y-96443993D01*
X220158114Y-96682088D01*
X220205733Y-96872564D01*
X220253352Y-96967802D01*
X220300971Y-97015421D01*
X220396209Y-97063040D01*
X220491447Y-97063040D01*
X220586685Y-97015421D01*
X220634304Y-96967802D01*
X220681923Y-96872564D01*
X220729542Y-96682088D01*
X220729542Y-96443993D01*
X220681923Y-96253517D01*
X220634304Y-96158279D01*
X220586685Y-96110660D01*
X220491447Y-96063040D01*
X122621804Y-78013040D02*
X122621804Y-77013040D01*
X122383709Y-77013040D01*
X122240852Y-77060660D01*
X122145614Y-77155898D01*
X122097995Y-77251136D01*
X122050376Y-77441612D01*
X122050376Y-77584469D01*
X122097995Y-77774945D01*
X122145614Y-77870183D01*
X122240852Y-77965421D01*
X122383709Y-78013040D01*
X122621804Y-78013040D01*
X121669423Y-77108279D02*
X121621804Y-77060660D01*
X121526566Y-77013040D01*
X121288471Y-77013040D01*
X121193233Y-77060660D01*
X121145614Y-77108279D01*
X121097995Y-77203517D01*
X121097995Y-77298755D01*
X121145614Y-77441612D01*
X121717042Y-78013040D01*
X121097995Y-78013040D01*
X120478947Y-77013040D02*
X120383709Y-77013040D01*
X120288471Y-77060660D01*
X120240852Y-77108279D01*
X120193233Y-77203517D01*
X120145614Y-77393993D01*
X120145614Y-77632088D01*
X120193233Y-77822564D01*
X120240852Y-77917802D01*
X120288471Y-77965421D01*
X120383709Y-78013040D01*
X120478947Y-78013040D01*
X120574185Y-77965421D01*
X120621804Y-77917802D01*
X120669423Y-77822564D01*
X120717042Y-77632088D01*
X120717042Y-77393993D01*
X120669423Y-77203517D01*
X120621804Y-77108279D01*
X120574185Y-77060660D01*
X120478947Y-77013040D01*
X128563666Y-122054802D02*
X128611285Y-122102421D01*
X128754142Y-122150040D01*
X128849380Y-122150040D01*
X128992238Y-122102421D01*
X129087476Y-122007183D01*
X129135095Y-121911945D01*
X129182714Y-121721469D01*
X129182714Y-121578612D01*
X129135095Y-121388136D01*
X129087476Y-121292898D01*
X128992238Y-121197660D01*
X128849380Y-121150040D01*
X128754142Y-121150040D01*
X128611285Y-121197660D01*
X128563666Y-121245279D01*
X127992238Y-121578612D02*
X128087476Y-121530993D01*
X128135095Y-121483374D01*
X128182714Y-121388136D01*
X128182714Y-121340517D01*
X128135095Y-121245279D01*
X128087476Y-121197660D01*
X127992238Y-121150040D01*
X127801761Y-121150040D01*
X127706523Y-121197660D01*
X127658904Y-121245279D01*
X127611285Y-121340517D01*
X127611285Y-121388136D01*
X127658904Y-121483374D01*
X127706523Y-121530993D01*
X127801761Y-121578612D01*
X127992238Y-121578612D01*
X128087476Y-121626231D01*
X128135095Y-121673850D01*
X128182714Y-121769088D01*
X128182714Y-121959564D01*
X128135095Y-122054802D01*
X128087476Y-122102421D01*
X127992238Y-122150040D01*
X127801761Y-122150040D01*
X127706523Y-122102421D01*
X127658904Y-122054802D01*
X127611285Y-121959564D01*
X127611285Y-121769088D01*
X127658904Y-121673850D01*
X127706523Y-121626231D01*
X127801761Y-121578612D01*
X294071804Y-58963040D02*
X294071804Y-57963040D01*
X293833709Y-57963040D01*
X293690852Y-58010660D01*
X293595614Y-58105898D01*
X293547995Y-58201136D01*
X293500376Y-58391612D01*
X293500376Y-58534469D01*
X293547995Y-58724945D01*
X293595614Y-58820183D01*
X293690852Y-58915421D01*
X293833709Y-58963040D01*
X294071804Y-58963040D01*
X292547995Y-58963040D02*
X293119423Y-58963040D01*
X292833709Y-58963040D02*
X292833709Y-57963040D01*
X292928947Y-58105898D01*
X293024185Y-58201136D01*
X293119423Y-58248755D01*
X291690852Y-58296374D02*
X291690852Y-58963040D01*
X291928947Y-57915421D02*
X292167042Y-58629707D01*
X291547995Y-58629707D01*
X275021804Y-78013040D02*
X275021804Y-77013040D01*
X274783709Y-77013040D01*
X274640852Y-77060660D01*
X274545614Y-77155898D01*
X274497995Y-77251136D01*
X274450376Y-77441612D01*
X274450376Y-77584469D01*
X274497995Y-77774945D01*
X274545614Y-77870183D01*
X274640852Y-77965421D01*
X274783709Y-78013040D01*
X275021804Y-78013040D01*
X274069423Y-77108279D02*
X274021804Y-77060660D01*
X273926566Y-77013040D01*
X273688471Y-77013040D01*
X273593233Y-77060660D01*
X273545614Y-77108279D01*
X273497995Y-77203517D01*
X273497995Y-77298755D01*
X273545614Y-77441612D01*
X274117042Y-78013040D01*
X273497995Y-78013040D01*
X272926566Y-77441612D02*
X273021804Y-77393993D01*
X273069423Y-77346374D01*
X273117042Y-77251136D01*
X273117042Y-77203517D01*
X273069423Y-77108279D01*
X273021804Y-77060660D01*
X272926566Y-77013040D01*
X272736090Y-77013040D01*
X272640852Y-77060660D01*
X272593233Y-77108279D01*
X272545614Y-77203517D01*
X272545614Y-77251136D01*
X272593233Y-77346374D01*
X272640852Y-77393993D01*
X272736090Y-77441612D01*
X272926566Y-77441612D01*
X273021804Y-77489231D01*
X273069423Y-77536850D01*
X273117042Y-77632088D01*
X273117042Y-77822564D01*
X273069423Y-77917802D01*
X273021804Y-77965421D01*
X272926566Y-78013040D01*
X272736090Y-78013040D01*
X272640852Y-77965421D01*
X272593233Y-77917802D01*
X272545614Y-77822564D01*
X272545614Y-77632088D01*
X272593233Y-77536850D01*
X272640852Y-77489231D01*
X272736090Y-77441612D01*
X70234304Y-97063040D02*
X70234304Y-96063040D01*
X69996209Y-96063040D01*
X69853352Y-96110660D01*
X69758114Y-96205898D01*
X69710495Y-96301136D01*
X69662876Y-96491612D01*
X69662876Y-96634469D01*
X69710495Y-96824945D01*
X69758114Y-96920183D01*
X69853352Y-97015421D01*
X69996209Y-97063040D01*
X70234304Y-97063040D01*
X69329542Y-96063040D02*
X68710495Y-96063040D01*
X69043828Y-96443993D01*
X68900971Y-96443993D01*
X68805733Y-96491612D01*
X68758114Y-96539231D01*
X68710495Y-96634469D01*
X68710495Y-96872564D01*
X68758114Y-96967802D01*
X68805733Y-97015421D01*
X68900971Y-97063040D01*
X69186685Y-97063040D01*
X69281923Y-97015421D01*
X69329542Y-96967802D01*
X68329542Y-96158279D02*
X68281923Y-96110660D01*
X68186685Y-96063040D01*
X67948590Y-96063040D01*
X67853352Y-96110660D01*
X67805733Y-96158279D01*
X67758114Y-96253517D01*
X67758114Y-96348755D01*
X67805733Y-96491612D01*
X68377161Y-97063040D01*
X67758114Y-97063040D01*
X151196804Y-58963040D02*
X151196804Y-57963040D01*
X150958709Y-57963040D01*
X150815852Y-58010660D01*
X150720614Y-58105898D01*
X150672995Y-58201136D01*
X150625376Y-58391612D01*
X150625376Y-58534469D01*
X150672995Y-58724945D01*
X150720614Y-58820183D01*
X150815852Y-58915421D01*
X150958709Y-58963040D01*
X151196804Y-58963040D01*
X150292042Y-57963040D02*
X149625376Y-57963040D01*
X150053947Y-58963040D01*
X165484304Y-97063040D02*
X165484304Y-96063040D01*
X165246209Y-96063040D01*
X165103352Y-96110660D01*
X165008114Y-96205898D01*
X164960495Y-96301136D01*
X164912876Y-96491612D01*
X164912876Y-96634469D01*
X164960495Y-96824945D01*
X165008114Y-96920183D01*
X165103352Y-97015421D01*
X165246209Y-97063040D01*
X165484304Y-97063040D01*
X164579542Y-96063040D02*
X163960495Y-96063040D01*
X164293828Y-96443993D01*
X164150971Y-96443993D01*
X164055733Y-96491612D01*
X164008114Y-96539231D01*
X163960495Y-96634469D01*
X163960495Y-96872564D01*
X164008114Y-96967802D01*
X164055733Y-97015421D01*
X164150971Y-97063040D01*
X164436685Y-97063040D01*
X164531923Y-97015421D01*
X164579542Y-96967802D01*
X163627161Y-96063040D02*
X162960495Y-96063040D01*
X163389066Y-97063040D01*
X131734666Y-124594802D02*
X131782285Y-124642421D01*
X131925142Y-124690040D01*
X132020380Y-124690040D01*
X132163238Y-124642421D01*
X132258476Y-124547183D01*
X132306095Y-124451945D01*
X132353714Y-124261469D01*
X132353714Y-124118612D01*
X132306095Y-123928136D01*
X132258476Y-123832898D01*
X132163238Y-123737660D01*
X132020380Y-123690040D01*
X131925142Y-123690040D01*
X131782285Y-123737660D01*
X131734666Y-123785279D01*
X131401333Y-123690040D02*
X130734666Y-123690040D01*
X131163238Y-124690040D01*
X113700666Y-128049202D02*
X113748285Y-128096821D01*
X113891142Y-128144440D01*
X113986380Y-128144440D01*
X114129238Y-128096821D01*
X114224476Y-128001583D01*
X114272095Y-127906345D01*
X114319714Y-127715869D01*
X114319714Y-127573012D01*
X114272095Y-127382536D01*
X114224476Y-127287298D01*
X114129238Y-127192060D01*
X113986380Y-127144440D01*
X113891142Y-127144440D01*
X113748285Y-127192060D01*
X113700666Y-127239679D01*
X112843523Y-127477774D02*
X112843523Y-128144440D01*
X113081619Y-127096821D02*
X113319714Y-127811107D01*
X112700666Y-127811107D01*
X251209304Y-115542499D02*
X251209304Y-114542499D01*
X250971209Y-114542499D01*
X250828352Y-114590119D01*
X250733114Y-114685357D01*
X250685495Y-114780595D01*
X250637876Y-114971071D01*
X250637876Y-115113928D01*
X250685495Y-115304404D01*
X250733114Y-115399642D01*
X250828352Y-115494880D01*
X250971209Y-115542499D01*
X251209304Y-115542499D01*
X249733114Y-114542499D02*
X250209304Y-114542499D01*
X250256923Y-115018690D01*
X250209304Y-114971071D01*
X250114066Y-114923452D01*
X249875971Y-114923452D01*
X249780733Y-114971071D01*
X249733114Y-115018690D01*
X249685495Y-115113928D01*
X249685495Y-115352023D01*
X249733114Y-115447261D01*
X249780733Y-115494880D01*
X249875971Y-115542499D01*
X250114066Y-115542499D01*
X250209304Y-115494880D01*
X250256923Y-115447261D01*
X248780733Y-114542499D02*
X249256923Y-114542499D01*
X249304542Y-115018690D01*
X249256923Y-114971071D01*
X249161685Y-114923452D01*
X248923590Y-114923452D01*
X248828352Y-114971071D01*
X248780733Y-115018690D01*
X248733114Y-115113928D01*
X248733114Y-115352023D01*
X248780733Y-115447261D01*
X248828352Y-115494880D01*
X248923590Y-115542499D01*
X249161685Y-115542499D01*
X249256923Y-115494880D01*
X249304542Y-115447261D01*
X303596804Y-115542499D02*
X303596804Y-114542499D01*
X303358709Y-114542499D01*
X303215852Y-114590119D01*
X303120614Y-114685357D01*
X303072995Y-114780595D01*
X303025376Y-114971071D01*
X303025376Y-115113928D01*
X303072995Y-115304404D01*
X303120614Y-115399642D01*
X303215852Y-115494880D01*
X303358709Y-115542499D01*
X303596804Y-115542499D01*
X302120614Y-114542499D02*
X302596804Y-114542499D01*
X302644423Y-115018690D01*
X302596804Y-114971071D01*
X302501566Y-114923452D01*
X302263471Y-114923452D01*
X302168233Y-114971071D01*
X302120614Y-115018690D01*
X302072995Y-115113928D01*
X302072995Y-115352023D01*
X302120614Y-115447261D01*
X302168233Y-115494880D01*
X302263471Y-115542499D01*
X302501566Y-115542499D01*
X302596804Y-115494880D01*
X302644423Y-115447261D01*
X301739661Y-114542499D02*
X301072995Y-114542499D01*
X301501566Y-115542499D01*
X47144333Y-60211431D02*
X47477666Y-60211431D01*
X47477666Y-60735240D02*
X47477666Y-59735240D01*
X47001476Y-59735240D01*
X46096714Y-60735240D02*
X46668142Y-60735240D01*
X46382428Y-60735240D02*
X46382428Y-59735240D01*
X46477666Y-59878098D01*
X46572904Y-59973336D01*
X46668142Y-60020955D01*
X136909304Y-115542499D02*
X136909304Y-114542499D01*
X136671209Y-114542499D01*
X136528352Y-114590119D01*
X136433114Y-114685357D01*
X136385495Y-114780595D01*
X136337876Y-114971071D01*
X136337876Y-115113928D01*
X136385495Y-115304404D01*
X136433114Y-115399642D01*
X136528352Y-115494880D01*
X136671209Y-115542499D01*
X136909304Y-115542499D01*
X135480733Y-114875833D02*
X135480733Y-115542499D01*
X135718828Y-114494880D02*
X135956923Y-115209166D01*
X135337876Y-115209166D01*
X134909304Y-115542499D02*
X134718828Y-115542499D01*
X134623590Y-115494880D01*
X134575971Y-115447261D01*
X134480733Y-115304404D01*
X134433114Y-115113928D01*
X134433114Y-114732976D01*
X134480733Y-114637738D01*
X134528352Y-114590119D01*
X134623590Y-114542499D01*
X134814066Y-114542499D01*
X134909304Y-114590119D01*
X134956923Y-114637738D01*
X135004542Y-114732976D01*
X135004542Y-114971071D01*
X134956923Y-115066309D01*
X134909304Y-115113928D01*
X134814066Y-115161547D01*
X134623590Y-115161547D01*
X134528352Y-115113928D01*
X134480733Y-115066309D01*
X134433114Y-114971071D01*
D12*
X135527693Y-131529424D02*
X134197693Y-131529424D01*
X144477693Y-134129424D02*
X144477693Y-131529424D01*
X135527693Y-131529424D02*
X136823093Y-131529424D01*
X136797693Y-134129424D02*
X144477693Y-134129424D01*
X134197693Y-132783224D02*
X134197693Y-134129424D01*
X136797693Y-134129424D02*
X134197693Y-134129424D01*
X136797693Y-131529424D02*
X144477693Y-131529424D01*
X134197693Y-132783224D02*
X134197693Y-131529424D01*
G36*
X201155567Y-132166006D02*
G01*
X201511995Y-132388746D01*
X201923102Y-132639907D01*
X202047491Y-132715478D01*
X202224147Y-132823679D01*
X202375207Y-132917270D01*
X202492824Y-132991338D01*
X202569149Y-133040971D01*
X202596335Y-133061258D01*
X202578180Y-133062191D01*
X202497902Y-133063421D01*
X202356212Y-133064615D01*
X202156025Y-133065770D01*
X201900256Y-133066879D01*
X201591820Y-133067938D01*
X201233631Y-133068942D01*
X200828603Y-133069886D01*
X200379653Y-133070763D01*
X199889693Y-133071571D01*
X199361640Y-133072302D01*
X198798408Y-133072952D01*
X198202912Y-133073517D01*
X197578065Y-133073990D01*
X196926784Y-133074367D01*
X196251983Y-133074643D01*
X195556576Y-133074812D01*
X194843478Y-133074869D01*
X187090621Y-133074869D01*
X187191606Y-132966820D01*
X187208075Y-132948865D01*
X187292582Y-132849134D01*
X187363372Y-132755284D01*
X187385491Y-132720509D01*
X187447821Y-132610128D01*
X187526057Y-132460713D01*
X187612891Y-132287031D01*
X187701017Y-132103850D01*
X187721426Y-132059628D01*
X189435800Y-132059628D01*
X189454271Y-132058803D01*
X189524364Y-132037703D01*
X189585829Y-132015157D01*
X196000442Y-132015157D01*
X196004412Y-132036289D01*
X196035614Y-132028955D01*
X196091293Y-132012984D01*
X196193892Y-131990957D01*
X196316550Y-131969209D01*
X196343666Y-131965015D01*
X196484578Y-131951061D01*
X196609569Y-131958667D01*
X196757375Y-131989628D01*
X196761218Y-131990587D01*
X196919188Y-132022334D01*
X197097686Y-132046621D01*
X197275371Y-132061630D01*
X197430900Y-132065544D01*
X197542932Y-132056543D01*
X197561218Y-132051842D01*
X197644974Y-132021368D01*
X197761691Y-131971689D01*
X197892015Y-131910882D01*
X197963613Y-131878120D01*
X198282907Y-131775632D01*
X198639688Y-131725172D01*
X199030440Y-131727030D01*
X199451650Y-131781498D01*
X199509935Y-131791471D01*
X199589962Y-131801542D01*
X199626137Y-131800652D01*
X199618543Y-131787536D01*
X199570895Y-131744993D01*
X199492776Y-131685658D01*
X199318825Y-131551549D01*
X199075876Y-131334452D01*
X198822545Y-131073918D01*
X198555771Y-130766369D01*
X198272491Y-130408227D01*
X197969642Y-129995914D01*
X197644163Y-129525851D01*
X197537310Y-129369522D01*
X197438822Y-129229100D01*
X197358244Y-129118071D01*
X197301868Y-129045098D01*
X197275988Y-129018848D01*
X197257434Y-129025384D01*
X197194441Y-129068017D01*
X197105904Y-129140080D01*
X197005198Y-129229499D01*
X196905698Y-129324203D01*
X196820778Y-129412118D01*
X196784301Y-129456335D01*
X196763812Y-129481172D01*
X196762141Y-129483589D01*
X196702992Y-129585723D01*
X196683795Y-129676983D01*
X196704641Y-129778642D01*
X196765617Y-129911975D01*
X196807840Y-130002835D01*
X196831488Y-130092996D01*
X196824391Y-130177076D01*
X196781927Y-130264091D01*
X196699476Y-130363058D01*
X196572417Y-130482995D01*
X196396128Y-130632918D01*
X196233832Y-130767538D01*
X196293450Y-131043471D01*
X196309679Y-131123092D01*
X196332881Y-131290941D01*
X196328199Y-131419228D01*
X196293847Y-131523697D01*
X196228039Y-131620093D01*
X196195209Y-131662830D01*
X196123927Y-131771362D01*
X196058707Y-131887433D01*
X196025533Y-131954354D01*
X196000442Y-132015157D01*
X189585829Y-132015157D01*
X189634582Y-131997274D01*
X189772760Y-131942503D01*
X189926733Y-131878382D01*
X190084338Y-131809900D01*
X190233408Y-131742047D01*
X190361780Y-131679811D01*
X190420028Y-131650050D01*
X190655390Y-131522282D01*
X190842755Y-131403312D01*
X190994288Y-131282373D01*
X191122153Y-131148695D01*
X191238513Y-130991510D01*
X191355533Y-130800049D01*
X191426733Y-130675608D01*
X193496352Y-130675608D01*
X193530199Y-130810779D01*
X193608992Y-130912434D01*
X193612507Y-130915176D01*
X193682519Y-130961303D01*
X193732428Y-130980341D01*
X193768289Y-130975368D01*
X193875942Y-130929038D01*
X194013064Y-130838717D01*
X194171544Y-130710134D01*
X194343266Y-130549018D01*
X194424358Y-130468526D01*
X194528241Y-130369720D01*
X194607715Y-130304165D01*
X194676227Y-130262730D01*
X194747226Y-130236282D01*
X194834162Y-130215689D01*
X194922485Y-130197058D01*
X195079966Y-130161172D01*
X195196538Y-130128124D01*
X195289144Y-130091752D01*
X195374727Y-130045895D01*
X195470231Y-129984392D01*
X195484590Y-129974598D01*
X195610193Y-129881682D01*
X195751518Y-129767680D01*
X195880628Y-129655013D01*
X196096727Y-129456335D01*
X196018094Y-129315778D01*
X195991664Y-129272455D01*
X195923509Y-129170343D01*
X195829538Y-129035856D01*
X195718480Y-128881419D01*
X195599064Y-128719455D01*
X195534906Y-128632208D01*
X195406978Y-128451101D01*
X195286496Y-128272000D01*
X195184622Y-128111706D01*
X195112514Y-127987018D01*
X195098969Y-127961801D01*
X194993424Y-127788428D01*
X194878543Y-127633339D01*
X194761526Y-127503023D01*
X194649574Y-127403971D01*
X194549886Y-127342672D01*
X194469662Y-127325616D01*
X194416102Y-127359293D01*
X194400391Y-127406742D01*
X194382219Y-127502334D01*
X194367267Y-127621450D01*
X194354459Y-127725161D01*
X194329266Y-127871058D01*
X194301284Y-127988220D01*
X194286058Y-128041636D01*
X194250396Y-128181446D01*
X194219645Y-128318945D01*
X194192101Y-128416255D01*
X194139152Y-128536111D01*
X194056111Y-128682449D01*
X193936665Y-128867505D01*
X193830260Y-129030772D01*
X193693074Y-129262937D01*
X193602127Y-129451873D01*
X193556652Y-129599650D01*
X193555885Y-129708339D01*
X193599058Y-129780011D01*
X193603976Y-129783904D01*
X193670003Y-129802461D01*
X193746424Y-129762443D01*
X193838088Y-129661447D01*
X193856657Y-129638115D01*
X193918641Y-129579501D01*
X193958512Y-129576889D01*
X193971338Y-129595547D01*
X193977182Y-129677546D01*
X193940473Y-129797059D01*
X193864064Y-129946638D01*
X193750812Y-130118832D01*
X193703553Y-130186079D01*
X193620084Y-130313941D01*
X193554684Y-130425840D01*
X193518495Y-130503335D01*
X193511663Y-130525960D01*
X193508616Y-130555737D01*
X193496352Y-130675608D01*
X191426733Y-130675608D01*
X191495318Y-130555737D01*
X191307872Y-130244426D01*
X191240608Y-130132553D01*
X191154250Y-129989345D01*
X191093309Y-129891332D01*
X191051868Y-129831425D01*
X191024006Y-129802537D01*
X191003805Y-129797581D01*
X190985346Y-129809469D01*
X190962711Y-129831113D01*
X190934984Y-129862062D01*
X190876476Y-129983713D01*
X190839877Y-130157730D01*
X190827225Y-130375919D01*
X190822993Y-130520549D01*
X190801148Y-130648378D01*
X190751635Y-130742357D01*
X190664528Y-130819936D01*
X190529898Y-130898565D01*
X190321341Y-131023373D01*
X190067592Y-131215734D01*
X189836604Y-131434751D01*
X189642440Y-131666787D01*
X189499160Y-131898203D01*
X189472762Y-131953420D01*
X189442586Y-132026358D01*
X189435800Y-132059628D01*
X187721426Y-132059628D01*
X187783125Y-131925936D01*
X187851910Y-131768056D01*
X187946711Y-131572285D01*
X188073838Y-131393597D01*
X188221303Y-131271895D01*
X188395298Y-131202324D01*
X188602015Y-131180029D01*
X188614742Y-131179946D01*
X188868413Y-131147105D01*
X189090891Y-131056283D01*
X189279522Y-130909517D01*
X189431652Y-130708845D01*
X189544629Y-130456303D01*
X189559124Y-130413977D01*
X189608323Y-130284539D01*
X189655138Y-130179729D01*
X189691101Y-130119046D01*
X189699692Y-130109800D01*
X189762937Y-130051663D01*
X189865230Y-129964853D01*
X189995296Y-129858264D01*
X190141863Y-129740787D01*
X190293657Y-129621317D01*
X190439405Y-129508746D01*
X190567834Y-129411968D01*
X190667670Y-129339875D01*
X190727640Y-129301361D01*
X190819528Y-129262842D01*
X190903801Y-129252553D01*
X190984902Y-129276626D01*
X191069456Y-129340062D01*
X191164087Y-129447861D01*
X191275419Y-129605024D01*
X191410076Y-129816552D01*
X191479407Y-129927549D01*
X191569954Y-130068595D01*
X191645069Y-130180991D01*
X191698415Y-130255329D01*
X191723656Y-130282199D01*
X191724820Y-130282005D01*
X191761471Y-130256640D01*
X191835082Y-130194795D01*
X191935566Y-130105221D01*
X192052836Y-129996666D01*
X192233690Y-129815612D01*
X192398880Y-129618928D01*
X192542683Y-129406549D01*
X192583566Y-129342409D01*
X192702629Y-129173356D01*
X192833515Y-129006197D01*
X192954524Y-128869241D01*
X192982032Y-128840371D01*
X193115932Y-128690607D01*
X193254585Y-128523651D01*
X193372001Y-128370550D01*
X193407747Y-128321505D01*
X193515132Y-128178002D01*
X193621338Y-128040699D01*
X193707840Y-127933695D01*
X193777810Y-127843954D01*
X193834456Y-127747049D01*
X193877708Y-127632117D01*
X193918573Y-127475206D01*
X193928299Y-127434926D01*
X193969373Y-127285676D01*
X194013208Y-127151660D01*
X194051831Y-127057846D01*
X194095203Y-126984574D01*
X194204672Y-126848057D01*
X194332424Y-126731460D01*
X194457260Y-126655804D01*
X194541799Y-126634587D01*
X194620671Y-126650831D01*
X194699009Y-126711613D01*
X194784485Y-126822944D01*
X194884771Y-126990838D01*
X194969074Y-127128684D01*
X195115834Y-127332075D01*
X195270139Y-127511850D01*
X195306043Y-127550618D01*
X195443689Y-127717042D01*
X195585863Y-127912297D01*
X195714398Y-128111848D01*
X195742440Y-128158273D01*
X195833065Y-128303527D01*
X195934793Y-128461125D01*
X196040934Y-128621292D01*
X196144795Y-128774255D01*
X196239686Y-128910239D01*
X196318916Y-129019472D01*
X196375793Y-129092179D01*
X196403626Y-129118587D01*
X196415899Y-129111013D01*
X196468667Y-129067671D01*
X196551818Y-128994476D01*
X196653985Y-128901295D01*
X196661390Y-128894450D01*
X196840343Y-128735325D01*
X197009899Y-128595888D01*
X197160776Y-128483093D01*
X197283692Y-128403895D01*
X197369368Y-128365248D01*
X197400022Y-128359592D01*
X197441816Y-128363936D01*
X197483982Y-128390249D01*
X197532588Y-128445931D01*
X197593705Y-128538384D01*
X197673401Y-128675008D01*
X197777745Y-128863202D01*
X197847249Y-128988007D01*
X197956702Y-129173481D01*
X198065981Y-129340955D01*
X198186687Y-129506878D01*
X198330417Y-129687700D01*
X198508772Y-129899869D01*
X198511751Y-129903350D01*
X198681794Y-130094210D01*
X198860284Y-130280985D01*
X199039783Y-130457091D01*
X199212850Y-130615943D01*
X199372046Y-130750956D01*
X199509931Y-130855547D01*
X199619066Y-130923130D01*
X199692012Y-130947121D01*
X199710999Y-130956317D01*
X199759781Y-131008606D01*
X199815604Y-131091736D01*
X199858486Y-131157934D01*
X199943196Y-131263290D01*
X200054825Y-131376675D01*
X200197340Y-131501003D01*
X200374706Y-131639187D01*
X200590889Y-131794140D01*
X200600546Y-131800652D01*
X200849854Y-131968775D01*
X201155567Y-132166006D01*
G37*
%LPC*%
D13*
X168525000Y-54260660D03*
D14*
X163445000Y-54260660D03*
X173605000Y-54260660D03*
D15*
X166025000Y-50260660D03*
D16*
X165370008Y-50990667D03*
D17*
X171045004Y-49470660D03*
D15*
X171065000Y-49180660D03*
D14*
X235517500Y-111410660D03*
X225357500Y-111410660D03*
D13*
X230437500Y-111410660D03*
D15*
X227937500Y-107410660D03*
D16*
X227282508Y-108140667D03*
D15*
X232977500Y-106330660D03*
D17*
X232957504Y-106620660D03*
D14*
X32476250Y-130460660D03*
D13*
X37556250Y-130460660D03*
D14*
X42636250Y-130460660D03*
D15*
X35056250Y-126460660D03*
D16*
X34401258Y-127190667D03*
D17*
X40076254Y-125670660D03*
D15*
X40096250Y-125380660D03*
D14*
X192020000Y-73310660D03*
D13*
X197100000Y-73310660D03*
D14*
X202180000Y-73310660D03*
D15*
X194600000Y-69310660D03*
D16*
X193945008Y-70040667D03*
D17*
X199620004Y-68520660D03*
D15*
X199640000Y-68230660D03*
D14*
X97405000Y-54260660D03*
D13*
X92325000Y-54260660D03*
D14*
X87245000Y-54260660D03*
D15*
X89825000Y-50260660D03*
D16*
X89170008Y-50990667D03*
D17*
X94845004Y-49470660D03*
D15*
X94865000Y-49180660D03*
D14*
X59305000Y-54260660D03*
D13*
X54225000Y-54260660D03*
D14*
X49145000Y-54260660D03*
D16*
X51070008Y-50990667D03*
D15*
X51725000Y-50260660D03*
X56765000Y-49180660D03*
D17*
X56745004Y-49470660D03*
D14*
X134870000Y-73310660D03*
X145030000Y-73310660D03*
D13*
X139950000Y-73310660D03*
D16*
X136795008Y-70040667D03*
D15*
X137450000Y-69310660D03*
D17*
X142470004Y-68520660D03*
D15*
X142490000Y-68230660D03*
D14*
X215832500Y-92360660D03*
X225992500Y-92360660D03*
D13*
X220912500Y-92360660D03*
D16*
X217757508Y-89090667D03*
D15*
X218412500Y-88360660D03*
X223452500Y-87280660D03*
D17*
X223432504Y-87570660D03*
D18*
X313087676Y-122717196D03*
X313087676Y-119123084D03*
X309693564Y-119123084D03*
X309693564Y-122717196D03*
D19*
X311390620Y-120920140D03*
D18*
X311390620Y-123320140D03*
X311390620Y-118520140D03*
D14*
X292032500Y-73310660D03*
X302192500Y-73310660D03*
D13*
X297112500Y-73310660D03*
D15*
X294612500Y-69310660D03*
D16*
X293957508Y-70040667D03*
D17*
X299632504Y-68520660D03*
D15*
X299652500Y-68230660D03*
D13*
X111375000Y-54260660D03*
D14*
X106295000Y-54260660D03*
X116455000Y-54260660D03*
D15*
X108875000Y-50260660D03*
D16*
X108220008Y-50990667D03*
D15*
X113915000Y-49180660D03*
D17*
X113895004Y-49470660D03*
D14*
X277745000Y-130460660D03*
D13*
X282825000Y-130460660D03*
D14*
X287905000Y-130460660D03*
D15*
X280325000Y-126460660D03*
D16*
X279670008Y-127190667D03*
D17*
X285345004Y-125670660D03*
D15*
X285365000Y-125380660D03*
D14*
X315845000Y-73310660D03*
D13*
X320925000Y-73310660D03*
D14*
X326005000Y-73310660D03*
D15*
X318425000Y-69310660D03*
D16*
X317770008Y-70040667D03*
D17*
X323445004Y-68520660D03*
D15*
X323465000Y-68230660D03*
D14*
X82482500Y-92360660D03*
D13*
X87562500Y-92360660D03*
D14*
X92642500Y-92360660D03*
D16*
X84407508Y-89090667D03*
D15*
X85062500Y-88360660D03*
X90102500Y-87280660D03*
D17*
X90082504Y-87570660D03*
D14*
X78355000Y-54260660D03*
D13*
X73275000Y-54260660D03*
D14*
X68195000Y-54260660D03*
D15*
X70775000Y-50260660D03*
D16*
X70120008Y-50990667D03*
D15*
X75815000Y-49180660D03*
D17*
X75795004Y-49470660D03*
D14*
X130742500Y-92360660D03*
D13*
X125662500Y-92360660D03*
D14*
X120582500Y-92360660D03*
D16*
X122507508Y-89090667D03*
D15*
X123162500Y-88360660D03*
D17*
X128182504Y-87570660D03*
D15*
X128202500Y-87280660D03*
D14*
X115820000Y-73310660D03*
D13*
X120900000Y-73310660D03*
D14*
X125980000Y-73310660D03*
D15*
X118400000Y-69310660D03*
D16*
X117745008Y-70040667D03*
D17*
X123420004Y-68520660D03*
D15*
X123440000Y-68230660D03*
D14*
X216467500Y-111410660D03*
X206307500Y-111410660D03*
D13*
X211387500Y-111410660D03*
D16*
X208232508Y-108140667D03*
D15*
X208887500Y-107410660D03*
X213927500Y-106330660D03*
D17*
X213907504Y-106620660D03*
D13*
X259012500Y-92360660D03*
D14*
X264092500Y-92360660D03*
X253932500Y-92360660D03*
D16*
X255857508Y-89090667D03*
D15*
X256512500Y-88360660D03*
X261552500Y-87280660D03*
D17*
X261532504Y-87570660D03*
D20*
X35143250Y-104425660D03*
D13*
X59019250Y-119665660D03*
D14*
X52161250Y-111410660D03*
D13*
X35143250Y-119665660D03*
D14*
X42001250Y-111410660D03*
D20*
X59019250Y-104425660D03*
D13*
X47081250Y-111410660D03*
D15*
X44581250Y-107410660D03*
D16*
X43926258Y-108140667D03*
D17*
X49601254Y-106620660D03*
D15*
X49621250Y-106330660D03*
D14*
X278380000Y-73310660D03*
D13*
X273300000Y-73310660D03*
D14*
X268220000Y-73310660D03*
D16*
X270145008Y-70040667D03*
D15*
X270800000Y-69310660D03*
X275840000Y-68230660D03*
D17*
X275820004Y-68520660D03*
D14*
X192655000Y-54260660D03*
D13*
X187575000Y-54260660D03*
D14*
X182495000Y-54260660D03*
D16*
X184420008Y-50990667D03*
D15*
X185075000Y-50260660D03*
X190115000Y-49180660D03*
D17*
X190095004Y-49470660D03*
D14*
X168842500Y-92360660D03*
X158682500Y-92360660D03*
D13*
X163762500Y-92360660D03*
D15*
X161262500Y-88360660D03*
D16*
X160607508Y-89090667D03*
D17*
X166282504Y-87570660D03*
D15*
X166302500Y-87280660D03*
D14*
X56288750Y-130460660D03*
X66448750Y-130460660D03*
D13*
X61368750Y-130460660D03*
D15*
X58868750Y-126460660D03*
D16*
X58213758Y-127190667D03*
D17*
X63888754Y-125670660D03*
D15*
X63908750Y-125380660D03*
D14*
X73592500Y-92360660D03*
D13*
X68512500Y-92360660D03*
D14*
X63432500Y-92360660D03*
D16*
X65357508Y-89090667D03*
D15*
X66012500Y-88360660D03*
D17*
X71032504Y-87570660D03*
D15*
X71052500Y-87280660D03*
D14*
X40255000Y-54260660D03*
D13*
X35175000Y-54260660D03*
D14*
X30095000Y-54260660D03*
D15*
X32675000Y-50260660D03*
D16*
X32020008Y-50990667D03*
D17*
X37695004Y-49470660D03*
D15*
X37715000Y-49180660D03*
D21*
X63659140Y-54347020D03*
D14*
X187257500Y-111410660D03*
X197417500Y-111410660D03*
D13*
X192337500Y-111410660D03*
D15*
X189837500Y-107410660D03*
D16*
X189182508Y-108140667D03*
D17*
X194857504Y-106620660D03*
D15*
X194877500Y-106330660D03*
D14*
X121217500Y-111410660D03*
D13*
X116137500Y-111410660D03*
D14*
X111057500Y-111410660D03*
D16*
X112982508Y-108140667D03*
D15*
X113637500Y-107410660D03*
D17*
X118657504Y-106620660D03*
D15*
X118677500Y-106330660D03*
D14*
X240280000Y-73310660D03*
D13*
X235200000Y-73310660D03*
D14*
X230120000Y-73310660D03*
D15*
X232700000Y-69310660D03*
D16*
X232045008Y-70040667D03*
D17*
X237720004Y-68520660D03*
D15*
X237740000Y-68230660D03*
D14*
X130107500Y-111410660D03*
D13*
X135187500Y-111410660D03*
D14*
X140267500Y-111410660D03*
D16*
X132032508Y-108140667D03*
D15*
X132687500Y-107410660D03*
X137727500Y-106330660D03*
D17*
X137707504Y-106620660D03*
D13*
X39937500Y-73310660D03*
D14*
X45017500Y-73310660D03*
X34857500Y-73310660D03*
D16*
X36782508Y-70040667D03*
D15*
X37437500Y-69310660D03*
X42477500Y-68230660D03*
D17*
X42457504Y-68520660D03*
D13*
X78037500Y-111410660D03*
D14*
X72957500Y-111410660D03*
X83117500Y-111410660D03*
D15*
X75537500Y-107410660D03*
D16*
X74882508Y-108140667D03*
D15*
X80577500Y-106330660D03*
D17*
X80557504Y-106620660D03*
D14*
X178367500Y-111410660D03*
X168207500Y-111410660D03*
D13*
X173287500Y-111410660D03*
D15*
X170787500Y-107410660D03*
D16*
X170132508Y-108140667D03*
D17*
X175807504Y-106620660D03*
D15*
X175827500Y-106330660D03*
D13*
X320925000Y-130460660D03*
D14*
X315845000Y-130460660D03*
X326005000Y-130460660D03*
D16*
X317770008Y-127190667D03*
D15*
X318425000Y-126460660D03*
D17*
X323445004Y-125670660D03*
D15*
X323465000Y-125380660D03*
D13*
X201862500Y-92360660D03*
D14*
X206942500Y-92360660D03*
X196782500Y-92360660D03*
D15*
X199362500Y-88360660D03*
D16*
X198707508Y-89090667D03*
D15*
X204402500Y-87280660D03*
D17*
X204382504Y-87570660D03*
D13*
X42318750Y-92360660D03*
D14*
X47398750Y-92360660D03*
X37238750Y-92360660D03*
D16*
X39163758Y-89090667D03*
D15*
X39818750Y-88360660D03*
D17*
X44838754Y-87570660D03*
D15*
X44858750Y-87280660D03*
D14*
X111692500Y-92360660D03*
D13*
X106612500Y-92360660D03*
D14*
X101532500Y-92360660D03*
D16*
X103457508Y-89090667D03*
D15*
X104112500Y-88360660D03*
X109152500Y-87280660D03*
D17*
X109132504Y-87570660D03*
D13*
X320925000Y-92360660D03*
D14*
X326005000Y-92360660D03*
X315845000Y-92360660D03*
D15*
X318425000Y-88360660D03*
D16*
X317770008Y-89090667D03*
D17*
X323445004Y-87570660D03*
D15*
X323465000Y-87280660D03*
D13*
X216150000Y-73310660D03*
D14*
X211070000Y-73310660D03*
X221230000Y-73310660D03*
D15*
X213650000Y-69310660D03*
D16*
X212995008Y-70040667D03*
D17*
X218670004Y-68520660D03*
D15*
X218690000Y-68230660D03*
D14*
X326005000Y-54260660D03*
X315845000Y-54260660D03*
D13*
X320925000Y-54260660D03*
D15*
X318425000Y-50260660D03*
D16*
X317770008Y-50990667D03*
D17*
X323445004Y-49470660D03*
D15*
X323465000Y-49180660D03*
D14*
X211705000Y-54260660D03*
X201545000Y-54260660D03*
D13*
X206625000Y-54260660D03*
D15*
X204125000Y-50260660D03*
D16*
X203470008Y-50990667D03*
D15*
X209165000Y-49180660D03*
D17*
X209145004Y-49470660D03*
D14*
X270601250Y-111410660D03*
D13*
X275681250Y-111410660D03*
D14*
X280761250Y-111410660D03*
D15*
X273181250Y-107410660D03*
D16*
X272526258Y-108140667D03*
D15*
X278221250Y-106330660D03*
D17*
X278201254Y-106620660D03*
D13*
X154237500Y-111410660D03*
D14*
X149157500Y-111410660D03*
X159317500Y-111410660D03*
D16*
X151082508Y-108140667D03*
D15*
X151737500Y-107410660D03*
X156777500Y-106330660D03*
D17*
X156757504Y-106620660D03*
D14*
X244407500Y-111410660D03*
X254567500Y-111410660D03*
D13*
X249487500Y-111410660D03*
D15*
X246987500Y-107410660D03*
D16*
X246332508Y-108140667D03*
D17*
X252007504Y-106620660D03*
D15*
X252027500Y-106330660D03*
D14*
X125345000Y-54260660D03*
D13*
X130425000Y-54260660D03*
D14*
X135505000Y-54260660D03*
D15*
X127925000Y-50260660D03*
D16*
X127270008Y-50990667D03*
D17*
X132945004Y-49470660D03*
D15*
X132965000Y-49180660D03*
D14*
X295048750Y-92360660D03*
D13*
X278030750Y-100615660D03*
X301906750Y-100615660D03*
D14*
X284888750Y-92360660D03*
D20*
X278030750Y-85375660D03*
D13*
X289968750Y-92360660D03*
D20*
X301906750Y-85375660D03*
D15*
X287468750Y-88360660D03*
D16*
X286813758Y-89090667D03*
D15*
X292508750Y-87280660D03*
D17*
X292488754Y-87570660D03*
D14*
X306955000Y-130460660D03*
D13*
X301875000Y-130460660D03*
D14*
X296795000Y-130460660D03*
D15*
X299375000Y-126460660D03*
D16*
X298720008Y-127190667D03*
D17*
X304395004Y-125670660D03*
D15*
X304415000Y-125380660D03*
D18*
X187600980Y-75710660D03*
X189298036Y-71513604D03*
D19*
X187600980Y-73310660D03*
D18*
X185903924Y-75107716D03*
X185903924Y-71513604D03*
X189298036Y-75107716D03*
X187600980Y-70910660D03*
D19*
X273366620Y-54301300D03*
D18*
X271669564Y-56098356D03*
X273366620Y-51901300D03*
X271669564Y-52504244D03*
X275063676Y-56098356D03*
X273366620Y-56701300D03*
X275063676Y-52504244D03*
X52341236Y-128638204D03*
X52341236Y-132232316D03*
X50644180Y-132835260D03*
X48947124Y-128638204D03*
X50644180Y-128035260D03*
D19*
X50644180Y-130435260D03*
D18*
X48947124Y-132232316D03*
D14*
X144395000Y-54260660D03*
D13*
X149475000Y-54260660D03*
D14*
X154555000Y-54260660D03*
D15*
X146975000Y-50260660D03*
D16*
X146320008Y-50990667D03*
D17*
X151995004Y-49470660D03*
D15*
X152015000Y-49180660D03*
D18*
X155973236Y-90563604D03*
D19*
X154276180Y-92360660D03*
D18*
X155973236Y-94157716D03*
X154276180Y-89960660D03*
X152579124Y-90563604D03*
X154276180Y-94760660D03*
X152579124Y-94157716D03*
D13*
X244725000Y-130460660D03*
D14*
X239645000Y-130460660D03*
X249805000Y-130460660D03*
D15*
X242225000Y-126460660D03*
D16*
X241570008Y-127190667D03*
D17*
X247245004Y-125670660D03*
D15*
X247265000Y-125380660D03*
D13*
X206618650Y-122205660D03*
D20*
X106618850Y-137445660D03*
D13*
X106618850Y-122205660D03*
X156618750Y-130460660D03*
D20*
X206618650Y-137445660D03*
D14*
X151538750Y-130460660D03*
X161698750Y-130460660D03*
D16*
X153463758Y-127190667D03*
D15*
X154118750Y-126460660D03*
D17*
X159138754Y-125670660D03*
D15*
X159158750Y-125380660D03*
D13*
X85181250Y-130460660D03*
D14*
X80101250Y-130460660D03*
X90261250Y-130460660D03*
D16*
X82026258Y-127190667D03*
D15*
X82681250Y-126460660D03*
X87721250Y-125380660D03*
D17*
X87701254Y-125670660D03*
D13*
X225675000Y-130460660D03*
D14*
X230755000Y-130460660D03*
X220595000Y-130460660D03*
D16*
X222520008Y-127190667D03*
D15*
X223175000Y-126460660D03*
X228215000Y-125380660D03*
D17*
X228195004Y-125670660D03*
D13*
X263775000Y-54260660D03*
D14*
X268855000Y-54260660D03*
X258695000Y-54260660D03*
D15*
X261275000Y-50260660D03*
D16*
X260620008Y-50990667D03*
D17*
X266295004Y-49470660D03*
D15*
X266315000Y-49180660D03*
D14*
X153920000Y-73310660D03*
D13*
X159000000Y-73310660D03*
D14*
X164080000Y-73310660D03*
D15*
X156500000Y-69310660D03*
D16*
X155845008Y-70040667D03*
D17*
X161520004Y-68520660D03*
D15*
X161540000Y-68230660D03*
D13*
X182812500Y-92360660D03*
D14*
X187892500Y-92360660D03*
X177732500Y-92360660D03*
D16*
X179657508Y-89090667D03*
D15*
X180312500Y-88360660D03*
D17*
X185332504Y-87570660D03*
D15*
X185352500Y-87280660D03*
D14*
X96770000Y-73310660D03*
X106930000Y-73310660D03*
D13*
X101850000Y-73310660D03*
D15*
X99350000Y-69310660D03*
D16*
X98695008Y-70040667D03*
D17*
X104370004Y-68520660D03*
D15*
X104390000Y-68230660D03*
D14*
X68830000Y-73310660D03*
D13*
X63750000Y-73310660D03*
D14*
X58670000Y-73310660D03*
D15*
X61250000Y-69310660D03*
D16*
X60595008Y-70040667D03*
D15*
X66290000Y-68230660D03*
D17*
X66270004Y-68520660D03*
D21*
X50146340Y-73320820D03*
D18*
X87570700Y-109056380D03*
X89267756Y-113253436D03*
D19*
X87570700Y-111456380D03*
D18*
X89267756Y-109659324D03*
X87570700Y-113856380D03*
X85873644Y-113253436D03*
X85873644Y-109659324D03*
D13*
X244725000Y-54260660D03*
D14*
X249805000Y-54260660D03*
X239645000Y-54260660D03*
D16*
X241570008Y-50990667D03*
D15*
X242225000Y-50260660D03*
X247265000Y-49180660D03*
D17*
X247245004Y-49470660D03*
D14*
X326005000Y-111410660D03*
D13*
X320925000Y-111410660D03*
D14*
X315845000Y-111410660D03*
D15*
X318425000Y-107410660D03*
D16*
X317770008Y-108140667D03*
D15*
X323465000Y-106330660D03*
D17*
X323445004Y-106620660D03*
D13*
X254250000Y-73310660D03*
D14*
X259330000Y-73310660D03*
X249170000Y-73310660D03*
D15*
X251750000Y-69310660D03*
D16*
X251095008Y-70040667D03*
D17*
X256770004Y-68520660D03*
D15*
X256790000Y-68230660D03*
D14*
X258695000Y-130460660D03*
D13*
X263775000Y-130460660D03*
D14*
X268855000Y-130460660D03*
D16*
X260620008Y-127190667D03*
D15*
X261275000Y-126460660D03*
D17*
X266295004Y-125670660D03*
D15*
X266315000Y-125380660D03*
D14*
X220595000Y-54260660D03*
X230755000Y-54260660D03*
D13*
X225675000Y-54260660D03*
D15*
X223175000Y-50260660D03*
D16*
X222520008Y-50990667D03*
D17*
X228195004Y-49470660D03*
D15*
X228215000Y-49180660D03*
D13*
X144712500Y-92360660D03*
D14*
X139632500Y-92360660D03*
X149792500Y-92360660D03*
D16*
X141557508Y-89090667D03*
D15*
X142212500Y-88360660D03*
X147252500Y-87280660D03*
D17*
X147232504Y-87570660D03*
D13*
X97087500Y-111410660D03*
D14*
X92007500Y-111410660D03*
X102167500Y-111410660D03*
D16*
X93932508Y-108140667D03*
D15*
X94587500Y-107410660D03*
D17*
X99607504Y-106620660D03*
D15*
X99627500Y-106330660D03*
D19*
X213102580Y-130343820D03*
D18*
X211405524Y-132140876D03*
X213102580Y-132743820D03*
X213102580Y-127943820D03*
X214799636Y-128546764D03*
X211405524Y-128546764D03*
X214799636Y-132140876D03*
D13*
X292350000Y-54260660D03*
D20*
X304288000Y-47275660D03*
D14*
X297430000Y-54260660D03*
D20*
X280412000Y-47275660D03*
D14*
X287270000Y-54260660D03*
D13*
X280412000Y-62515660D03*
X304288000Y-62515660D03*
D15*
X289850000Y-50260660D03*
D16*
X289195008Y-50990667D03*
D17*
X294870004Y-49470660D03*
D15*
X294890000Y-49180660D03*
D13*
X301875000Y-111410660D03*
D14*
X296795000Y-111410660D03*
X306955000Y-111410660D03*
D16*
X298720008Y-108140667D03*
D15*
X299375000Y-107410660D03*
D17*
X304395004Y-106620660D03*
D15*
X304415000Y-106330660D03*
D13*
X239962500Y-92360660D03*
D14*
X234882500Y-92360660D03*
X245042500Y-92360660D03*
D16*
X236807508Y-89090667D03*
D15*
X237462500Y-88360660D03*
D17*
X242482504Y-87570660D03*
D15*
X242502500Y-87280660D03*
D18*
X285146804Y-71478044D03*
X288540916Y-75072156D03*
X288540916Y-71478044D03*
X285146804Y-75072156D03*
X286843860Y-70875100D03*
D19*
X286843860Y-73275100D03*
D18*
X286843860Y-75675100D03*
D14*
X87880000Y-73310660D03*
X77720000Y-73310660D03*
D13*
X82800000Y-73310660D03*
D15*
X80300000Y-69310660D03*
D16*
X79645008Y-70040667D03*
D15*
X85340000Y-68230660D03*
D17*
X85320004Y-68520660D03*
D13*
X178050000Y-73310660D03*
D14*
X183130000Y-73310660D03*
X172970000Y-73310660D03*
D16*
X174895008Y-70040667D03*
D15*
X175550000Y-69310660D03*
D17*
X180570004Y-68520660D03*
D15*
X180590000Y-68230660D03*
D22*
X233612500Y-115940119D03*
X233612500Y-113640119D03*
X238375000Y-78410660D03*
X238375000Y-76110660D03*
D23*
X147200200Y-124655400D03*
X143650200Y-124655400D03*
X147200200Y-126855400D03*
X143650200Y-126855400D03*
D22*
X305050000Y-134960660D03*
X305050000Y-132660660D03*
X100262500Y-115940119D03*
X100262500Y-113640119D03*
X190750000Y-59360660D03*
X190750000Y-57060660D03*
X162175000Y-78410660D03*
X162175000Y-76110660D03*
X324100000Y-115940119D03*
X324100000Y-113640119D03*
X57400000Y-59360660D03*
X57400000Y-57060660D03*
X257425000Y-78410660D03*
X257425000Y-76110660D03*
X95500000Y-59360660D03*
X95500000Y-57060660D03*
X214562500Y-115940119D03*
X214562500Y-113640119D03*
X185987500Y-97460660D03*
X185987500Y-95160660D03*
X90737500Y-97460660D03*
X90737500Y-95160660D03*
X324100000Y-134960660D03*
X324100000Y-132660660D03*
D24*
X144917200Y-129184400D03*
X143017200Y-129184400D03*
D22*
X181225000Y-78410660D03*
X181225000Y-76110660D03*
X147887500Y-97460660D03*
X147887500Y-95160660D03*
D25*
X130618000Y-131349660D03*
X132518000Y-131349660D03*
D22*
X159793750Y-134960660D03*
X159793750Y-132660660D03*
X247900000Y-134960660D03*
X247900000Y-132660660D03*
X119312500Y-115940119D03*
X119312500Y-113640119D03*
X247900000Y-59360660D03*
X247900000Y-57060660D03*
D23*
X141417200Y-124661660D03*
X137867200Y-124661660D03*
X137867200Y-126861660D03*
X141417200Y-126861660D03*
D22*
X195512500Y-115940119D03*
X195512500Y-113640119D03*
X64543750Y-134960660D03*
X64543750Y-132660660D03*
D26*
X135735500Y-129190660D03*
X137560500Y-129190660D03*
D22*
X324100000Y-97460660D03*
X324100000Y-95160660D03*
X85975000Y-78410660D03*
X85975000Y-76110660D03*
D27*
X49018000Y-58297360D03*
X49018000Y-56472360D03*
D22*
X50256250Y-115940119D03*
X50256250Y-113640119D03*
X88356250Y-134960660D03*
X88356250Y-132660660D03*
X66925000Y-78410660D03*
X66925000Y-76110660D03*
X228850000Y-59360660D03*
X228850000Y-57060660D03*
X300287500Y-78410660D03*
X300287500Y-76110660D03*
D28*
X117852000Y-122698460D03*
X117852000Y-120798460D03*
D22*
X143125000Y-78410660D03*
X143125000Y-76110660D03*
X219325000Y-78410660D03*
X219325000Y-76110660D03*
X286000000Y-134960660D03*
X286000000Y-132660660D03*
X105025000Y-78410660D03*
X105025000Y-76110660D03*
X40731250Y-134960660D03*
X40731250Y-132660660D03*
X262187500Y-97460660D03*
X262187500Y-95160660D03*
D29*
X40982340Y-50449720D03*
X46762340Y-50449720D03*
D30*
X40622340Y-51894720D03*
X41422340Y-51894720D03*
D31*
X42622340Y-51894720D03*
X43622340Y-51894720D03*
X44122340Y-51894720D03*
X45122340Y-51894720D03*
D30*
X46322340Y-51894720D03*
X47122340Y-51894720D03*
X47122340Y-51894720D03*
X46322340Y-51894720D03*
D31*
X45622340Y-51894720D03*
X44622340Y-51894720D03*
X43122340Y-51894720D03*
X42122340Y-51894720D03*
D30*
X41422340Y-51894720D03*
X40622340Y-51894720D03*
D32*
X48192340Y-50979720D03*
D33*
X39552340Y-46799720D03*
X48192340Y-46799720D03*
D32*
X39552340Y-50979720D03*
D34*
X135527693Y-132859424D03*
D35*
X135527693Y-135399424D03*
X138067693Y-132859424D03*
X138067693Y-135399424D03*
X140607693Y-132859424D03*
X140607693Y-135399424D03*
X143147693Y-132859424D03*
X143147693Y-135399424D03*
D22*
X228850000Y-134960660D03*
X228850000Y-132660660D03*
D36*
X44581000Y-58611860D03*
D37*
X42861000Y-58611860D03*
X42861000Y-56411860D03*
X44761000Y-56411860D03*
D28*
X120519000Y-124044660D03*
X120519000Y-122144660D03*
D22*
X176462500Y-115940119D03*
X176462500Y-113640119D03*
X114550000Y-59360660D03*
X114550000Y-57060660D03*
X324100000Y-78410660D03*
X324100000Y-76110660D03*
D24*
X119513200Y-135921660D03*
X117613200Y-135921660D03*
D22*
X278856250Y-115940119D03*
X278856250Y-113640119D03*
D38*
X115741500Y-120798460D03*
X115741500Y-122698460D03*
X113866500Y-121748460D03*
D22*
X128837500Y-97460660D03*
X128837500Y-95160660D03*
X133600000Y-59360660D03*
X133600000Y-57060660D03*
X81212500Y-115940119D03*
X81212500Y-113640119D03*
X109787500Y-97460660D03*
X109787500Y-95160660D03*
X205037500Y-97460660D03*
X205037500Y-95160660D03*
X243137500Y-97460660D03*
X243137500Y-95160660D03*
D28*
X111756000Y-122698460D03*
X111756000Y-120798460D03*
D22*
X171700000Y-59360660D03*
X171700000Y-57060660D03*
X76450000Y-59360660D03*
X76450000Y-57060660D03*
X266950000Y-134960660D03*
X266950000Y-132660660D03*
X200275000Y-78410660D03*
X200275000Y-76110660D03*
X157412500Y-115940119D03*
X157412500Y-113640119D03*
X266950000Y-59360660D03*
X266950000Y-57060660D03*
X43112500Y-78410660D03*
X43112500Y-76110660D03*
X324100000Y-59360660D03*
X324100000Y-57060660D03*
X293143750Y-97460660D03*
X293143750Y-95160660D03*
X45493750Y-97460660D03*
X45493750Y-95160660D03*
D39*
X127983500Y-127304260D03*
X127983500Y-127804260D03*
X127983500Y-128304260D03*
X127983500Y-128804260D03*
X127983500Y-129304260D03*
X127983500Y-129804260D03*
X127983500Y-130304260D03*
X127983500Y-130804260D03*
X127983500Y-131304260D03*
X127983500Y-131804260D03*
X127983500Y-132304260D03*
X127983500Y-132804260D03*
D40*
X126571000Y-134216760D03*
X126071000Y-134216760D03*
X125571000Y-134216760D03*
X125071000Y-134216760D03*
X124571000Y-134216760D03*
X124071000Y-134216760D03*
X123571000Y-134216760D03*
X123071000Y-134216760D03*
X122571000Y-134216760D03*
X122071000Y-134216760D03*
X121571000Y-134216760D03*
X121071000Y-134216760D03*
D39*
X119658500Y-132804260D03*
X119658500Y-132304260D03*
X119658500Y-131804260D03*
X119658500Y-131304260D03*
X119658500Y-130804260D03*
X119658500Y-130304260D03*
X119658500Y-129804260D03*
X119658500Y-129304260D03*
X119658500Y-128804260D03*
X119658500Y-128304260D03*
X119658500Y-127804260D03*
X119658500Y-127304260D03*
D40*
X121071000Y-125891760D03*
X121571000Y-125891760D03*
X122071000Y-125891760D03*
X122571000Y-125891760D03*
X123071000Y-125891760D03*
X123571000Y-125891760D03*
X124071000Y-125891760D03*
X124571000Y-125891760D03*
X125071000Y-125891760D03*
X125571000Y-125891760D03*
X126071000Y-125891760D03*
X126571000Y-125891760D03*
D22*
X38350000Y-59360660D03*
X38350000Y-57060660D03*
D27*
X40811000Y-58297360D03*
X40811000Y-56472360D03*
D22*
X209800000Y-59360660D03*
X209800000Y-57060660D03*
X224087500Y-97460660D03*
X224087500Y-95160660D03*
X124075000Y-78410660D03*
X124075000Y-76110660D03*
D25*
X127447000Y-123435660D03*
X129347000Y-123435660D03*
D22*
X295525000Y-59360660D03*
X295525000Y-57060660D03*
X276475000Y-78410660D03*
X276475000Y-76110660D03*
X71687500Y-97460660D03*
X71687500Y-95160660D03*
X152650000Y-59360660D03*
X152650000Y-57060660D03*
X166937500Y-97460660D03*
X166937500Y-95160660D03*
D25*
X130618000Y-126015660D03*
X132518000Y-126015660D03*
D24*
X117344000Y-127692060D03*
X115444000Y-127692060D03*
D22*
X252662500Y-115940119D03*
X252662500Y-113640119D03*
X305050000Y-115940119D03*
X305050000Y-113640119D03*
D41*
X46811000Y-58322360D03*
X46811000Y-56447360D03*
D22*
X138362500Y-115940119D03*
X138362500Y-113640119D03*
M02*
