G04 #@! TF.GenerationSoftware,KiCad,Pcbnew,(6.0.2)*
G04 #@! TF.CreationDate,2022-08-27T10:29:13-07:00*
G04 #@! TF.ProjectId,Alps68,416c7073-3638-42e6-9b69-6361645f7063,A*
G04 #@! TF.SameCoordinates,Original*
G04 #@! TF.FileFunction,Soldermask,Bot*
G04 #@! TF.FilePolarity,Negative*
%FSLAX46Y46*%
G04 Gerber Fmt 4.6, Leading zero omitted, Abs format (unit mm)*
G04 Created by KiCad (PCBNEW (6.0.2)) date 2022-08-27 10:29:13*
%MOMM*%
%LPD*%
G01*
G04 APERTURE LIST*
G04 Aperture macros list*
%AMRoundRect*
0 Rectangle with rounded corners*
0 $1 Rounding radius*
0 $2 $3 $4 $5 $6 $7 $8 $9 X,Y pos of 4 corners*
0 Add a 4 corners polygon primitive as box body*
4,1,4,$2,$3,$4,$5,$6,$7,$8,$9,$2,$3,0*
0 Add four circle primitives for the rounded corners*
1,1,$1+$1,$2,$3*
1,1,$1+$1,$4,$5*
1,1,$1+$1,$6,$7*
1,1,$1+$1,$8,$9*
0 Add four rect primitives between the rounded corners*
20,1,$1+$1,$2,$3,$4,$5,0*
20,1,$1+$1,$4,$5,$6,$7,0*
20,1,$1+$1,$6,$7,$8,$9,0*
20,1,$1+$1,$8,$9,$2,$3,0*%
%AMHorizOval*
0 Thick line with rounded ends*
0 $1 width*
0 $2 $3 position (X,Y) of the first rounded end (center of the circle)*
0 $4 $5 position (X,Y) of the second rounded end (center of the circle)*
0 Add line between two ends*
20,1,$1,$2,$3,$4,$5,0*
0 Add two circle primitives to create the rounded ends*
1,1,$1,$2,$3*
1,1,$1,$4,$5*%
G04 Aperture macros list end*
%ADD10C,3.987800*%
%ADD11C,1.750000*%
%ADD12C,2.250000*%
%ADD13HorizOval,2.250000X0.655008X0.729993X-0.655008X-0.729993X0*%
%ADD14HorizOval,2.250000X0.020004X0.290000X-0.020004X-0.290000X0*%
%ADD15C,0.800000*%
%ADD16C,6.400000*%
%ADD17C,3.048000*%
%ADD18C,5.400000*%
%ADD19RoundRect,0.160000X0.240000X-0.340000X0.240000X0.340000X-0.240000X0.340000X-0.240000X-0.340000X0*%
%ADD20RoundRect,0.150000X0.350000X0.150000X-0.350000X0.150000X-0.350000X-0.150000X0.350000X-0.150000X0*%
%ADD21RoundRect,0.250000X0.250000X0.475000X-0.250000X0.475000X-0.250000X-0.475000X0.250000X-0.475000X0*%
%ADD22RoundRect,0.250000X-0.250000X-0.475000X0.250000X-0.475000X0.250000X0.475000X-0.250000X0.475000X0*%
%ADD23RoundRect,0.250000X-0.262500X-0.450000X0.262500X-0.450000X0.262500X0.450000X-0.262500X0.450000X0*%
%ADD24RoundRect,0.250000X0.450000X-0.262500X0.450000X0.262500X-0.450000X0.262500X-0.450000X-0.262500X0*%
%ADD25RoundRect,0.250000X0.475000X-0.250000X0.475000X0.250000X-0.475000X0.250000X-0.475000X-0.250000X0*%
%ADD26C,0.650000*%
%ADD27R,0.600000X1.450000*%
%ADD28R,0.300000X1.450000*%
%ADD29O,1.000000X2.100000*%
%ADD30O,1.000000X1.600000*%
%ADD31R,1.700000X1.700000*%
%ADD32O,1.700000X1.700000*%
%ADD33RoundRect,0.200000X0.300000X0.325000X-0.300000X0.325000X-0.300000X-0.325000X0.300000X-0.325000X0*%
%ADD34RoundRect,0.120000X0.180000X0.405000X-0.180000X0.405000X-0.180000X-0.405000X0.180000X-0.405000X0*%
%ADD35RoundRect,0.150000X0.587500X0.150000X-0.587500X0.150000X-0.587500X-0.150000X0.587500X-0.150000X0*%
%ADD36RoundRect,0.075000X0.662500X0.075000X-0.662500X0.075000X-0.662500X-0.075000X0.662500X-0.075000X0*%
%ADD37RoundRect,0.075000X0.075000X0.662500X-0.075000X0.662500X-0.075000X-0.662500X0.075000X-0.662500X0*%
%ADD38RoundRect,0.243750X0.456250X-0.243750X0.456250X0.243750X-0.456250X0.243750X-0.456250X-0.243750X0*%
G04 APERTURE END LIST*
D10*
X168525000Y-54260660D03*
D11*
X163445000Y-54260660D03*
X173605000Y-54260660D03*
D12*
X166025000Y-50260660D03*
D13*
X165370008Y-50990667D03*
D14*
X171045004Y-49470660D03*
D12*
X171065000Y-49180660D03*
D11*
X235517500Y-111410660D03*
X225357500Y-111410660D03*
D10*
X230437500Y-111410660D03*
D12*
X227937500Y-107410660D03*
D13*
X227282508Y-108140667D03*
D12*
X232977500Y-106330660D03*
D14*
X232957504Y-106620660D03*
D11*
X32476250Y-130460660D03*
D10*
X37556250Y-130460660D03*
D11*
X42636250Y-130460660D03*
D12*
X35056250Y-126460660D03*
D13*
X34401258Y-127190667D03*
D14*
X40076254Y-125670660D03*
D12*
X40096250Y-125380660D03*
D11*
X192020000Y-73310660D03*
D10*
X197100000Y-73310660D03*
D11*
X202180000Y-73310660D03*
D12*
X194600000Y-69310660D03*
D13*
X193945008Y-70040667D03*
D14*
X199620004Y-68520660D03*
D12*
X199640000Y-68230660D03*
D11*
X97405000Y-54260660D03*
D10*
X92325000Y-54260660D03*
D11*
X87245000Y-54260660D03*
D12*
X89825000Y-50260660D03*
D13*
X89170008Y-50990667D03*
D14*
X94845004Y-49470660D03*
D12*
X94865000Y-49180660D03*
D11*
X59305000Y-54260660D03*
D10*
X54225000Y-54260660D03*
D11*
X49145000Y-54260660D03*
D13*
X51070008Y-50990667D03*
D12*
X51725000Y-50260660D03*
X56765000Y-49180660D03*
D14*
X56745004Y-49470660D03*
D11*
X134870000Y-73310660D03*
X145030000Y-73310660D03*
D10*
X139950000Y-73310660D03*
D13*
X136795008Y-70040667D03*
D12*
X137450000Y-69310660D03*
D14*
X142470004Y-68520660D03*
D12*
X142490000Y-68230660D03*
D11*
X215832500Y-92360660D03*
X225992500Y-92360660D03*
D10*
X220912500Y-92360660D03*
D13*
X217757508Y-89090667D03*
D12*
X218412500Y-88360660D03*
X223452500Y-87280660D03*
D14*
X223432504Y-87570660D03*
D15*
X313087676Y-122717196D03*
X313087676Y-119123084D03*
X309693564Y-119123084D03*
X309693564Y-122717196D03*
D16*
X311390620Y-120920140D03*
D15*
X311390620Y-123320140D03*
X311390620Y-118520140D03*
D11*
X292032500Y-73310660D03*
X302192500Y-73310660D03*
D10*
X297112500Y-73310660D03*
D12*
X294612500Y-69310660D03*
D13*
X293957508Y-70040667D03*
D14*
X299632504Y-68520660D03*
D12*
X299652500Y-68230660D03*
D10*
X111375000Y-54260660D03*
D11*
X106295000Y-54260660D03*
X116455000Y-54260660D03*
D12*
X108875000Y-50260660D03*
D13*
X108220008Y-50990667D03*
D12*
X113915000Y-49180660D03*
D14*
X113895004Y-49470660D03*
D11*
X277745000Y-130460660D03*
D10*
X282825000Y-130460660D03*
D11*
X287905000Y-130460660D03*
D12*
X280325000Y-126460660D03*
D13*
X279670008Y-127190667D03*
D14*
X285345004Y-125670660D03*
D12*
X285365000Y-125380660D03*
D11*
X315845000Y-73310660D03*
D10*
X320925000Y-73310660D03*
D11*
X326005000Y-73310660D03*
D12*
X318425000Y-69310660D03*
D13*
X317770008Y-70040667D03*
D14*
X323445004Y-68520660D03*
D12*
X323465000Y-68230660D03*
D11*
X82482500Y-92360660D03*
D10*
X87562500Y-92360660D03*
D11*
X92642500Y-92360660D03*
D13*
X84407508Y-89090667D03*
D12*
X85062500Y-88360660D03*
X90102500Y-87280660D03*
D14*
X90082504Y-87570660D03*
D11*
X78355000Y-54260660D03*
D10*
X73275000Y-54260660D03*
D11*
X68195000Y-54260660D03*
D12*
X70775000Y-50260660D03*
D13*
X70120008Y-50990667D03*
D12*
X75815000Y-49180660D03*
D14*
X75795004Y-49470660D03*
D11*
X130742500Y-92360660D03*
D10*
X125662500Y-92360660D03*
D11*
X120582500Y-92360660D03*
D13*
X122507508Y-89090667D03*
D12*
X123162500Y-88360660D03*
D14*
X128182504Y-87570660D03*
D12*
X128202500Y-87280660D03*
D11*
X115820000Y-73310660D03*
D10*
X120900000Y-73310660D03*
D11*
X125980000Y-73310660D03*
D12*
X118400000Y-69310660D03*
D13*
X117745008Y-70040667D03*
D14*
X123420004Y-68520660D03*
D12*
X123440000Y-68230660D03*
D11*
X216467500Y-111410660D03*
X206307500Y-111410660D03*
D10*
X211387500Y-111410660D03*
D13*
X208232508Y-108140667D03*
D12*
X208887500Y-107410660D03*
X213927500Y-106330660D03*
D14*
X213907504Y-106620660D03*
D10*
X259012500Y-92360660D03*
D11*
X264092500Y-92360660D03*
X253932500Y-92360660D03*
D13*
X255857508Y-89090667D03*
D12*
X256512500Y-88360660D03*
X261552500Y-87280660D03*
D14*
X261532504Y-87570660D03*
D17*
X35143250Y-104425660D03*
D10*
X59019250Y-119665660D03*
D11*
X52161250Y-111410660D03*
D10*
X35143250Y-119665660D03*
D11*
X42001250Y-111410660D03*
D17*
X59019250Y-104425660D03*
D10*
X47081250Y-111410660D03*
D12*
X44581250Y-107410660D03*
D13*
X43926258Y-108140667D03*
D14*
X49601254Y-106620660D03*
D12*
X49621250Y-106330660D03*
D11*
X278380000Y-73310660D03*
D10*
X273300000Y-73310660D03*
D11*
X268220000Y-73310660D03*
D13*
X270145008Y-70040667D03*
D12*
X270800000Y-69310660D03*
X275840000Y-68230660D03*
D14*
X275820004Y-68520660D03*
D11*
X192655000Y-54260660D03*
D10*
X187575000Y-54260660D03*
D11*
X182495000Y-54260660D03*
D13*
X184420008Y-50990667D03*
D12*
X185075000Y-50260660D03*
X190115000Y-49180660D03*
D14*
X190095004Y-49470660D03*
D11*
X168842500Y-92360660D03*
X158682500Y-92360660D03*
D10*
X163762500Y-92360660D03*
D12*
X161262500Y-88360660D03*
D13*
X160607508Y-89090667D03*
D14*
X166282504Y-87570660D03*
D12*
X166302500Y-87280660D03*
D11*
X56288750Y-130460660D03*
X66448750Y-130460660D03*
D10*
X61368750Y-130460660D03*
D12*
X58868750Y-126460660D03*
D13*
X58213758Y-127190667D03*
D14*
X63888754Y-125670660D03*
D12*
X63908750Y-125380660D03*
D11*
X73592500Y-92360660D03*
D10*
X68512500Y-92360660D03*
D11*
X63432500Y-92360660D03*
D13*
X65357508Y-89090667D03*
D12*
X66012500Y-88360660D03*
D14*
X71032504Y-87570660D03*
D12*
X71052500Y-87280660D03*
D11*
X40255000Y-54260660D03*
D10*
X35175000Y-54260660D03*
D11*
X30095000Y-54260660D03*
D12*
X32675000Y-50260660D03*
D13*
X32020008Y-50990667D03*
D14*
X37695004Y-49470660D03*
D12*
X37715000Y-49180660D03*
D18*
X63659140Y-54347020D03*
D11*
X187257500Y-111410660D03*
X197417500Y-111410660D03*
D10*
X192337500Y-111410660D03*
D12*
X189837500Y-107410660D03*
D13*
X189182508Y-108140667D03*
D14*
X194857504Y-106620660D03*
D12*
X194877500Y-106330660D03*
D11*
X121217500Y-111410660D03*
D10*
X116137500Y-111410660D03*
D11*
X111057500Y-111410660D03*
D13*
X112982508Y-108140667D03*
D12*
X113637500Y-107410660D03*
D14*
X118657504Y-106620660D03*
D12*
X118677500Y-106330660D03*
D11*
X240280000Y-73310660D03*
D10*
X235200000Y-73310660D03*
D11*
X230120000Y-73310660D03*
D12*
X232700000Y-69310660D03*
D13*
X232045008Y-70040667D03*
D14*
X237720004Y-68520660D03*
D12*
X237740000Y-68230660D03*
D11*
X130107500Y-111410660D03*
D10*
X135187500Y-111410660D03*
D11*
X140267500Y-111410660D03*
D13*
X132032508Y-108140667D03*
D12*
X132687500Y-107410660D03*
X137727500Y-106330660D03*
D14*
X137707504Y-106620660D03*
D10*
X39937500Y-73310660D03*
D11*
X45017500Y-73310660D03*
X34857500Y-73310660D03*
D13*
X36782508Y-70040667D03*
D12*
X37437500Y-69310660D03*
X42477500Y-68230660D03*
D14*
X42457504Y-68520660D03*
D10*
X78037500Y-111410660D03*
D11*
X72957500Y-111410660D03*
X83117500Y-111410660D03*
D12*
X75537500Y-107410660D03*
D13*
X74882508Y-108140667D03*
D12*
X80577500Y-106330660D03*
D14*
X80557504Y-106620660D03*
D11*
X178367500Y-111410660D03*
X168207500Y-111410660D03*
D10*
X173287500Y-111410660D03*
D12*
X170787500Y-107410660D03*
D13*
X170132508Y-108140667D03*
D14*
X175807504Y-106620660D03*
D12*
X175827500Y-106330660D03*
D10*
X320925000Y-130460660D03*
D11*
X315845000Y-130460660D03*
X326005000Y-130460660D03*
D13*
X317770008Y-127190667D03*
D12*
X318425000Y-126460660D03*
D14*
X323445004Y-125670660D03*
D12*
X323465000Y-125380660D03*
D10*
X201862500Y-92360660D03*
D11*
X206942500Y-92360660D03*
X196782500Y-92360660D03*
D12*
X199362500Y-88360660D03*
D13*
X198707508Y-89090667D03*
D12*
X204402500Y-87280660D03*
D14*
X204382504Y-87570660D03*
D10*
X42318750Y-92360660D03*
D11*
X47398750Y-92360660D03*
X37238750Y-92360660D03*
D13*
X39163758Y-89090667D03*
D12*
X39818750Y-88360660D03*
D14*
X44838754Y-87570660D03*
D12*
X44858750Y-87280660D03*
D11*
X111692500Y-92360660D03*
D10*
X106612500Y-92360660D03*
D11*
X101532500Y-92360660D03*
D13*
X103457508Y-89090667D03*
D12*
X104112500Y-88360660D03*
X109152500Y-87280660D03*
D14*
X109132504Y-87570660D03*
D10*
X320925000Y-92360660D03*
D11*
X326005000Y-92360660D03*
X315845000Y-92360660D03*
D12*
X318425000Y-88360660D03*
D13*
X317770008Y-89090667D03*
D14*
X323445004Y-87570660D03*
D12*
X323465000Y-87280660D03*
D10*
X216150000Y-73310660D03*
D11*
X211070000Y-73310660D03*
X221230000Y-73310660D03*
D12*
X213650000Y-69310660D03*
D13*
X212995008Y-70040667D03*
D14*
X218670004Y-68520660D03*
D12*
X218690000Y-68230660D03*
D11*
X326005000Y-54260660D03*
X315845000Y-54260660D03*
D10*
X320925000Y-54260660D03*
D12*
X318425000Y-50260660D03*
D13*
X317770008Y-50990667D03*
D14*
X323445004Y-49470660D03*
D12*
X323465000Y-49180660D03*
D11*
X211705000Y-54260660D03*
X201545000Y-54260660D03*
D10*
X206625000Y-54260660D03*
D12*
X204125000Y-50260660D03*
D13*
X203470008Y-50990667D03*
D12*
X209165000Y-49180660D03*
D14*
X209145004Y-49470660D03*
D11*
X270601250Y-111410660D03*
D10*
X275681250Y-111410660D03*
D11*
X280761250Y-111410660D03*
D12*
X273181250Y-107410660D03*
D13*
X272526258Y-108140667D03*
D12*
X278221250Y-106330660D03*
D14*
X278201254Y-106620660D03*
D10*
X154237500Y-111410660D03*
D11*
X149157500Y-111410660D03*
X159317500Y-111410660D03*
D13*
X151082508Y-108140667D03*
D12*
X151737500Y-107410660D03*
X156777500Y-106330660D03*
D14*
X156757504Y-106620660D03*
D11*
X244407500Y-111410660D03*
X254567500Y-111410660D03*
D10*
X249487500Y-111410660D03*
D12*
X246987500Y-107410660D03*
D13*
X246332508Y-108140667D03*
D14*
X252007504Y-106620660D03*
D12*
X252027500Y-106330660D03*
D11*
X125345000Y-54260660D03*
D10*
X130425000Y-54260660D03*
D11*
X135505000Y-54260660D03*
D12*
X127925000Y-50260660D03*
D13*
X127270008Y-50990667D03*
D14*
X132945004Y-49470660D03*
D12*
X132965000Y-49180660D03*
D11*
X295048750Y-92360660D03*
D10*
X278030750Y-100615660D03*
X301906750Y-100615660D03*
D11*
X284888750Y-92360660D03*
D17*
X278030750Y-85375660D03*
D10*
X289968750Y-92360660D03*
D17*
X301906750Y-85375660D03*
D12*
X287468750Y-88360660D03*
D13*
X286813758Y-89090667D03*
D12*
X292508750Y-87280660D03*
D14*
X292488754Y-87570660D03*
D11*
X306955000Y-130460660D03*
D10*
X301875000Y-130460660D03*
D11*
X296795000Y-130460660D03*
D12*
X299375000Y-126460660D03*
D13*
X298720008Y-127190667D03*
D14*
X304395004Y-125670660D03*
D12*
X304415000Y-125380660D03*
D15*
X187600980Y-75710660D03*
X189298036Y-71513604D03*
D16*
X187600980Y-73310660D03*
D15*
X185903924Y-75107716D03*
X185903924Y-71513604D03*
X189298036Y-75107716D03*
X187600980Y-70910660D03*
D16*
X273366620Y-54301300D03*
D15*
X271669564Y-56098356D03*
X273366620Y-51901300D03*
X271669564Y-52504244D03*
X275063676Y-56098356D03*
X273366620Y-56701300D03*
X275063676Y-52504244D03*
X52341236Y-128638204D03*
X52341236Y-132232316D03*
X50644180Y-132835260D03*
X48947124Y-128638204D03*
X50644180Y-128035260D03*
D16*
X50644180Y-130435260D03*
D15*
X48947124Y-132232316D03*
D11*
X144395000Y-54260660D03*
D10*
X149475000Y-54260660D03*
D11*
X154555000Y-54260660D03*
D12*
X146975000Y-50260660D03*
D13*
X146320008Y-50990667D03*
D14*
X151995004Y-49470660D03*
D12*
X152015000Y-49180660D03*
D15*
X155973236Y-90563604D03*
D16*
X154276180Y-92360660D03*
D15*
X155973236Y-94157716D03*
X154276180Y-89960660D03*
X152579124Y-90563604D03*
X154276180Y-94760660D03*
X152579124Y-94157716D03*
D10*
X244725000Y-130460660D03*
D11*
X239645000Y-130460660D03*
X249805000Y-130460660D03*
D12*
X242225000Y-126460660D03*
D13*
X241570008Y-127190667D03*
D14*
X247245004Y-125670660D03*
D12*
X247265000Y-125380660D03*
D10*
X206618650Y-122205660D03*
D17*
X106618850Y-137445660D03*
D10*
X106618850Y-122205660D03*
X156618750Y-130460660D03*
D17*
X206618650Y-137445660D03*
D11*
X151538750Y-130460660D03*
X161698750Y-130460660D03*
D13*
X153463758Y-127190667D03*
D12*
X154118750Y-126460660D03*
D14*
X159138754Y-125670660D03*
D12*
X159158750Y-125380660D03*
D10*
X85181250Y-130460660D03*
D11*
X80101250Y-130460660D03*
X90261250Y-130460660D03*
D13*
X82026258Y-127190667D03*
D12*
X82681250Y-126460660D03*
X87721250Y-125380660D03*
D14*
X87701254Y-125670660D03*
D10*
X225675000Y-130460660D03*
D11*
X230755000Y-130460660D03*
X220595000Y-130460660D03*
D13*
X222520008Y-127190667D03*
D12*
X223175000Y-126460660D03*
X228215000Y-125380660D03*
D14*
X228195004Y-125670660D03*
D10*
X263775000Y-54260660D03*
D11*
X268855000Y-54260660D03*
X258695000Y-54260660D03*
D12*
X261275000Y-50260660D03*
D13*
X260620008Y-50990667D03*
D14*
X266295004Y-49470660D03*
D12*
X266315000Y-49180660D03*
D11*
X153920000Y-73310660D03*
D10*
X159000000Y-73310660D03*
D11*
X164080000Y-73310660D03*
D12*
X156500000Y-69310660D03*
D13*
X155845008Y-70040667D03*
D14*
X161520004Y-68520660D03*
D12*
X161540000Y-68230660D03*
D10*
X182812500Y-92360660D03*
D11*
X187892500Y-92360660D03*
X177732500Y-92360660D03*
D13*
X179657508Y-89090667D03*
D12*
X180312500Y-88360660D03*
D14*
X185332504Y-87570660D03*
D12*
X185352500Y-87280660D03*
D11*
X96770000Y-73310660D03*
X106930000Y-73310660D03*
D10*
X101850000Y-73310660D03*
D12*
X99350000Y-69310660D03*
D13*
X98695008Y-70040667D03*
D14*
X104370004Y-68520660D03*
D12*
X104390000Y-68230660D03*
D11*
X68830000Y-73310660D03*
D10*
X63750000Y-73310660D03*
D11*
X58670000Y-73310660D03*
D12*
X61250000Y-69310660D03*
D13*
X60595008Y-70040667D03*
D12*
X66290000Y-68230660D03*
D14*
X66270004Y-68520660D03*
D18*
X50146340Y-73320820D03*
D15*
X87570700Y-109056380D03*
X89267756Y-113253436D03*
D16*
X87570700Y-111456380D03*
D15*
X89267756Y-109659324D03*
X87570700Y-113856380D03*
X85873644Y-113253436D03*
X85873644Y-109659324D03*
D10*
X244725000Y-54260660D03*
D11*
X249805000Y-54260660D03*
X239645000Y-54260660D03*
D13*
X241570008Y-50990667D03*
D12*
X242225000Y-50260660D03*
X247265000Y-49180660D03*
D14*
X247245004Y-49470660D03*
D11*
X326005000Y-111410660D03*
D10*
X320925000Y-111410660D03*
D11*
X315845000Y-111410660D03*
D12*
X318425000Y-107410660D03*
D13*
X317770008Y-108140667D03*
D12*
X323465000Y-106330660D03*
D14*
X323445004Y-106620660D03*
D10*
X254250000Y-73310660D03*
D11*
X259330000Y-73310660D03*
X249170000Y-73310660D03*
D12*
X251750000Y-69310660D03*
D13*
X251095008Y-70040667D03*
D14*
X256770004Y-68520660D03*
D12*
X256790000Y-68230660D03*
D11*
X258695000Y-130460660D03*
D10*
X263775000Y-130460660D03*
D11*
X268855000Y-130460660D03*
D13*
X260620008Y-127190667D03*
D12*
X261275000Y-126460660D03*
D14*
X266295004Y-125670660D03*
D12*
X266315000Y-125380660D03*
D11*
X220595000Y-54260660D03*
X230755000Y-54260660D03*
D10*
X225675000Y-54260660D03*
D12*
X223175000Y-50260660D03*
D13*
X222520008Y-50990667D03*
D14*
X228195004Y-49470660D03*
D12*
X228215000Y-49180660D03*
D10*
X144712500Y-92360660D03*
D11*
X139632500Y-92360660D03*
X149792500Y-92360660D03*
D13*
X141557508Y-89090667D03*
D12*
X142212500Y-88360660D03*
X147252500Y-87280660D03*
D14*
X147232504Y-87570660D03*
D10*
X97087500Y-111410660D03*
D11*
X92007500Y-111410660D03*
X102167500Y-111410660D03*
D13*
X93932508Y-108140667D03*
D12*
X94587500Y-107410660D03*
D14*
X99607504Y-106620660D03*
D12*
X99627500Y-106330660D03*
D16*
X213102580Y-130343820D03*
D15*
X211405524Y-132140876D03*
X213102580Y-132743820D03*
X213102580Y-127943820D03*
X214799636Y-128546764D03*
X211405524Y-128546764D03*
X214799636Y-132140876D03*
D10*
X292350000Y-54260660D03*
D17*
X304288000Y-47275660D03*
D11*
X297430000Y-54260660D03*
D17*
X280412000Y-47275660D03*
D11*
X287270000Y-54260660D03*
D10*
X280412000Y-62515660D03*
X304288000Y-62515660D03*
D12*
X289850000Y-50260660D03*
D13*
X289195008Y-50990667D03*
D14*
X294870004Y-49470660D03*
D12*
X294890000Y-49180660D03*
D10*
X301875000Y-111410660D03*
D11*
X296795000Y-111410660D03*
X306955000Y-111410660D03*
D13*
X298720008Y-108140667D03*
D12*
X299375000Y-107410660D03*
D14*
X304395004Y-106620660D03*
D12*
X304415000Y-106330660D03*
D10*
X239962500Y-92360660D03*
D11*
X234882500Y-92360660D03*
X245042500Y-92360660D03*
D13*
X236807508Y-89090667D03*
D12*
X237462500Y-88360660D03*
D14*
X242482504Y-87570660D03*
D12*
X242502500Y-87280660D03*
D15*
X285146804Y-71478044D03*
X288540916Y-75072156D03*
X288540916Y-71478044D03*
X285146804Y-75072156D03*
X286843860Y-70875100D03*
D16*
X286843860Y-73275100D03*
D15*
X286843860Y-75675100D03*
D11*
X87880000Y-73310660D03*
X77720000Y-73310660D03*
D10*
X82800000Y-73310660D03*
D12*
X80300000Y-69310660D03*
D13*
X79645008Y-70040667D03*
D12*
X85340000Y-68230660D03*
D14*
X85320004Y-68520660D03*
D10*
X178050000Y-73310660D03*
D11*
X183130000Y-73310660D03*
X172970000Y-73310660D03*
D13*
X174895008Y-70040667D03*
D12*
X175550000Y-69310660D03*
D14*
X180570004Y-68520660D03*
D12*
X180590000Y-68230660D03*
D19*
X233612500Y-115940119D03*
X233612500Y-113640119D03*
X238375000Y-78410660D03*
X238375000Y-76110660D03*
D20*
X147200200Y-124655400D03*
X143650200Y-124655400D03*
X147200200Y-126855400D03*
X143650200Y-126855400D03*
D19*
X305050000Y-134960660D03*
X305050000Y-132660660D03*
X100262500Y-115940119D03*
X100262500Y-113640119D03*
X190750000Y-59360660D03*
X190750000Y-57060660D03*
X162175000Y-78410660D03*
X162175000Y-76110660D03*
X324100000Y-115940119D03*
X324100000Y-113640119D03*
X57400000Y-59360660D03*
X57400000Y-57060660D03*
X257425000Y-78410660D03*
X257425000Y-76110660D03*
X95500000Y-59360660D03*
X95500000Y-57060660D03*
X214562500Y-115940119D03*
X214562500Y-113640119D03*
X185987500Y-97460660D03*
X185987500Y-95160660D03*
X90737500Y-97460660D03*
X90737500Y-95160660D03*
X324100000Y-134960660D03*
X324100000Y-132660660D03*
D21*
X144917200Y-129184400D03*
X143017200Y-129184400D03*
D19*
X181225000Y-78410660D03*
X181225000Y-76110660D03*
X147887500Y-97460660D03*
X147887500Y-95160660D03*
D22*
X130618000Y-131349660D03*
X132518000Y-131349660D03*
D19*
X159793750Y-134960660D03*
X159793750Y-132660660D03*
X247900000Y-134960660D03*
X247900000Y-132660660D03*
X119312500Y-115940119D03*
X119312500Y-113640119D03*
X247900000Y-59360660D03*
X247900000Y-57060660D03*
D20*
X141417200Y-124661660D03*
X137867200Y-124661660D03*
X137867200Y-126861660D03*
X141417200Y-126861660D03*
D19*
X195512500Y-115940119D03*
X195512500Y-113640119D03*
X64543750Y-134960660D03*
X64543750Y-132660660D03*
D23*
X135735500Y-129190660D03*
X137560500Y-129190660D03*
D19*
X324100000Y-97460660D03*
X324100000Y-95160660D03*
X85975000Y-78410660D03*
X85975000Y-76110660D03*
D24*
X49018000Y-58297360D03*
X49018000Y-56472360D03*
D19*
X50256250Y-115940119D03*
X50256250Y-113640119D03*
X88356250Y-134960660D03*
X88356250Y-132660660D03*
X66925000Y-78410660D03*
X66925000Y-76110660D03*
X228850000Y-59360660D03*
X228850000Y-57060660D03*
X300287500Y-78410660D03*
X300287500Y-76110660D03*
D25*
X117852000Y-122698460D03*
X117852000Y-120798460D03*
D19*
X143125000Y-78410660D03*
X143125000Y-76110660D03*
X219325000Y-78410660D03*
X219325000Y-76110660D03*
X286000000Y-134960660D03*
X286000000Y-132660660D03*
X105025000Y-78410660D03*
X105025000Y-76110660D03*
X40731250Y-134960660D03*
X40731250Y-132660660D03*
X262187500Y-97460660D03*
X262187500Y-95160660D03*
D26*
X40982340Y-50449720D03*
X46762340Y-50449720D03*
D27*
X40622340Y-51894720D03*
X41422340Y-51894720D03*
D28*
X42622340Y-51894720D03*
X43622340Y-51894720D03*
X44122340Y-51894720D03*
X45122340Y-51894720D03*
D27*
X46322340Y-51894720D03*
X47122340Y-51894720D03*
X47122340Y-51894720D03*
X46322340Y-51894720D03*
D28*
X45622340Y-51894720D03*
X44622340Y-51894720D03*
X43122340Y-51894720D03*
X42122340Y-51894720D03*
D27*
X41422340Y-51894720D03*
X40622340Y-51894720D03*
D29*
X48192340Y-50979720D03*
D30*
X39552340Y-46799720D03*
X48192340Y-46799720D03*
D29*
X39552340Y-50979720D03*
D31*
X135527693Y-132859424D03*
D32*
X135527693Y-135399424D03*
X138067693Y-132859424D03*
X138067693Y-135399424D03*
X140607693Y-132859424D03*
X140607693Y-135399424D03*
X143147693Y-132859424D03*
X143147693Y-135399424D03*
D19*
X228850000Y-134960660D03*
X228850000Y-132660660D03*
D33*
X44581000Y-58611860D03*
D34*
X42861000Y-58611860D03*
X42861000Y-56411860D03*
X44761000Y-56411860D03*
D25*
X120519000Y-124044660D03*
X120519000Y-122144660D03*
D19*
X176462500Y-115940119D03*
X176462500Y-113640119D03*
X114550000Y-59360660D03*
X114550000Y-57060660D03*
X324100000Y-78410660D03*
X324100000Y-76110660D03*
D21*
X119513200Y-135921660D03*
X117613200Y-135921660D03*
D19*
X278856250Y-115940119D03*
X278856250Y-113640119D03*
D35*
X115741500Y-120798460D03*
X115741500Y-122698460D03*
X113866500Y-121748460D03*
D19*
X128837500Y-97460660D03*
X128837500Y-95160660D03*
X133600000Y-59360660D03*
X133600000Y-57060660D03*
X81212500Y-115940119D03*
X81212500Y-113640119D03*
X109787500Y-97460660D03*
X109787500Y-95160660D03*
X205037500Y-97460660D03*
X205037500Y-95160660D03*
X243137500Y-97460660D03*
X243137500Y-95160660D03*
D25*
X111756000Y-122698460D03*
X111756000Y-120798460D03*
D19*
X171700000Y-59360660D03*
X171700000Y-57060660D03*
X76450000Y-59360660D03*
X76450000Y-57060660D03*
X266950000Y-134960660D03*
X266950000Y-132660660D03*
X200275000Y-78410660D03*
X200275000Y-76110660D03*
X157412500Y-115940119D03*
X157412500Y-113640119D03*
X266950000Y-59360660D03*
X266950000Y-57060660D03*
X43112500Y-78410660D03*
X43112500Y-76110660D03*
X324100000Y-59360660D03*
X324100000Y-57060660D03*
X293143750Y-97460660D03*
X293143750Y-95160660D03*
X45493750Y-97460660D03*
X45493750Y-95160660D03*
D36*
X127983500Y-127304260D03*
X127983500Y-127804260D03*
X127983500Y-128304260D03*
X127983500Y-128804260D03*
X127983500Y-129304260D03*
X127983500Y-129804260D03*
X127983500Y-130304260D03*
X127983500Y-130804260D03*
X127983500Y-131304260D03*
X127983500Y-131804260D03*
X127983500Y-132304260D03*
X127983500Y-132804260D03*
D37*
X126571000Y-134216760D03*
X126071000Y-134216760D03*
X125571000Y-134216760D03*
X125071000Y-134216760D03*
X124571000Y-134216760D03*
X124071000Y-134216760D03*
X123571000Y-134216760D03*
X123071000Y-134216760D03*
X122571000Y-134216760D03*
X122071000Y-134216760D03*
X121571000Y-134216760D03*
X121071000Y-134216760D03*
D36*
X119658500Y-132804260D03*
X119658500Y-132304260D03*
X119658500Y-131804260D03*
X119658500Y-131304260D03*
X119658500Y-130804260D03*
X119658500Y-130304260D03*
X119658500Y-129804260D03*
X119658500Y-129304260D03*
X119658500Y-128804260D03*
X119658500Y-128304260D03*
X119658500Y-127804260D03*
X119658500Y-127304260D03*
D37*
X121071000Y-125891760D03*
X121571000Y-125891760D03*
X122071000Y-125891760D03*
X122571000Y-125891760D03*
X123071000Y-125891760D03*
X123571000Y-125891760D03*
X124071000Y-125891760D03*
X124571000Y-125891760D03*
X125071000Y-125891760D03*
X125571000Y-125891760D03*
X126071000Y-125891760D03*
X126571000Y-125891760D03*
D19*
X38350000Y-59360660D03*
X38350000Y-57060660D03*
D24*
X40811000Y-58297360D03*
X40811000Y-56472360D03*
D19*
X209800000Y-59360660D03*
X209800000Y-57060660D03*
X224087500Y-97460660D03*
X224087500Y-95160660D03*
X124075000Y-78410660D03*
X124075000Y-76110660D03*
D22*
X127447000Y-123435660D03*
X129347000Y-123435660D03*
D19*
X295525000Y-59360660D03*
X295525000Y-57060660D03*
X276475000Y-78410660D03*
X276475000Y-76110660D03*
X71687500Y-97460660D03*
X71687500Y-95160660D03*
X152650000Y-59360660D03*
X152650000Y-57060660D03*
X166937500Y-97460660D03*
X166937500Y-95160660D03*
D22*
X130618000Y-126015660D03*
X132518000Y-126015660D03*
D21*
X117344000Y-127692060D03*
X115444000Y-127692060D03*
D19*
X252662500Y-115940119D03*
X252662500Y-113640119D03*
X305050000Y-115940119D03*
X305050000Y-113640119D03*
D38*
X46811000Y-58322360D03*
X46811000Y-56447360D03*
D19*
X138362500Y-115940119D03*
X138362500Y-113640119D03*
M02*
