M48
; DRILL file {KiCad (6.0.2)} date Sat Aug 27 10:29:18 2022
; FORMAT={-:-/ absolute / metric / decimal}
; #@! TF.CreationDate,2022-08-27T10:29:18-07:00
; #@! TF.GenerationSoftware,Kicad,Pcbnew,(6.0.2)
; #@! TF.FileFunction,NonPlated,1,2,NPTH
FMAT,2
METRIC
; #@! TA.AperFunction,NonPlated,NPTH,ComponentDrill
T1C0.650
; #@! TA.AperFunction,NonPlated,NPTH,ComponentDrill
T2C1.750
; #@! TA.AperFunction,NonPlated,NPTH,ComponentDrill
T3C3.048
; #@! TA.AperFunction,NonPlated,NPTH,ComponentDrill
T4C3.988
%
G90
G05
T1
X40.982Y-50.45
X46.762Y-50.45
T2
X30.095Y-54.261
X32.476Y-130.461
X34.858Y-73.311
X37.239Y-92.361
X40.255Y-54.261
X42.001Y-111.411
X42.636Y-130.461
X45.017Y-73.311
X47.399Y-92.361
X49.145Y-54.261
X52.161Y-111.411
X56.289Y-130.461
X58.67Y-73.311
X59.305Y-54.261
X63.432Y-92.361
X66.449Y-130.461
X68.195Y-54.261
X68.83Y-73.311
X72.957Y-111.411
X73.593Y-92.361
X77.72Y-73.311
X78.355Y-54.261
X80.101Y-130.461
X82.483Y-92.361
X83.117Y-111.411
X87.245Y-54.261
X87.88Y-73.311
X90.261Y-130.461
X92.007Y-111.411
X92.642Y-92.361
X96.77Y-73.311
X97.405Y-54.261
X101.532Y-92.361
X102.167Y-111.411
X106.295Y-54.261
X106.93Y-73.311
X111.057Y-111.411
X111.692Y-92.361
X115.82Y-73.311
X116.455Y-54.261
X120.582Y-92.361
X121.218Y-111.411
X125.345Y-54.261
X125.98Y-73.311
X130.107Y-111.411
X130.743Y-92.361
X134.87Y-73.311
X135.505Y-54.261
X139.632Y-92.361
X140.267Y-111.411
X144.395Y-54.261
X145.03Y-73.311
X149.157Y-111.411
X149.792Y-92.361
X151.539Y-130.461
X153.92Y-73.311
X154.555Y-54.261
X158.683Y-92.361
X159.317Y-111.411
X161.699Y-130.461
X163.445Y-54.261
X164.08Y-73.311
X168.207Y-111.411
X168.843Y-92.361
X172.97Y-73.311
X173.605Y-54.261
X177.732Y-92.361
X178.367Y-111.411
X182.495Y-54.261
X183.13Y-73.311
X187.257Y-111.411
X187.892Y-92.361
X192.02Y-73.311
X192.655Y-54.261
X196.782Y-92.361
X197.417Y-111.411
X201.545Y-54.261
X202.18Y-73.311
X206.308Y-111.411
X206.942Y-92.361
X211.07Y-73.311
X211.705Y-54.261
X215.832Y-92.361
X216.468Y-111.411
X220.595Y-54.261
X220.595Y-130.461
X221.23Y-73.311
X225.357Y-111.411
X225.992Y-92.361
X230.12Y-73.311
X230.755Y-54.261
X230.755Y-130.461
X234.882Y-92.361
X235.517Y-111.411
X239.645Y-54.261
X239.645Y-130.461
X240.28Y-73.311
X244.407Y-111.411
X245.042Y-92.361
X249.17Y-73.311
X249.805Y-54.261
X249.805Y-130.461
X253.932Y-92.361
X254.567Y-111.411
X258.695Y-54.261
X258.695Y-130.461
X259.33Y-73.311
X264.092Y-92.361
X268.22Y-73.311
X268.855Y-54.261
X268.855Y-130.461
X270.601Y-111.411
X277.745Y-130.461
X278.38Y-73.311
X280.761Y-111.411
X284.889Y-92.361
X287.27Y-54.261
X287.905Y-130.461
X292.032Y-73.311
X295.049Y-92.361
X296.795Y-111.411
X296.795Y-130.461
X297.43Y-54.261
X302.192Y-73.311
X306.955Y-111.411
X306.955Y-130.461
X315.845Y-54.261
X315.845Y-73.311
X315.845Y-92.361
X315.845Y-111.411
X315.845Y-130.461
X326.005Y-54.261
X326.005Y-73.311
X326.005Y-92.361
X326.005Y-111.411
X326.005Y-130.461
T3
X35.143Y-104.426
X59.019Y-104.426
X106.619Y-137.446
X206.619Y-137.446
X278.031Y-85.376
X280.412Y-47.276
X301.907Y-85.376
X304.288Y-47.276
T4
X35.143Y-119.666
X35.175Y-54.261
X37.556Y-130.461
X39.938Y-73.311
X42.319Y-92.361
X47.081Y-111.411
X54.225Y-54.261
X59.019Y-119.666
X61.369Y-130.461
X63.75Y-73.311
X68.513Y-92.361
X73.275Y-54.261
X78.037Y-111.411
X82.8Y-73.311
X85.181Y-130.461
X87.562Y-92.361
X92.325Y-54.261
X97.087Y-111.411
X101.85Y-73.311
X106.612Y-92.361
X106.619Y-122.206
X111.375Y-54.261
X116.137Y-111.411
X120.9Y-73.311
X125.662Y-92.361
X130.425Y-54.261
X135.188Y-111.411
X139.95Y-73.311
X144.713Y-92.361
X149.475Y-54.261
X154.237Y-111.411
X156.619Y-130.461
X159.0Y-73.311
X163.762Y-92.361
X168.525Y-54.261
X173.287Y-111.411
X178.05Y-73.311
X182.812Y-92.361
X187.575Y-54.261
X192.337Y-111.411
X197.1Y-73.311
X201.862Y-92.361
X206.619Y-122.206
X206.625Y-54.261
X211.387Y-111.411
X216.15Y-73.311
X220.912Y-92.361
X225.675Y-54.261
X225.675Y-130.461
X230.438Y-111.411
X235.2Y-73.311
X239.962Y-92.361
X244.725Y-54.261
X244.725Y-130.461
X249.487Y-111.411
X254.25Y-73.311
X259.012Y-92.361
X263.775Y-54.261
X263.775Y-130.461
X273.3Y-73.311
X275.681Y-111.411
X278.031Y-100.616
X280.412Y-62.516
X282.825Y-130.461
X289.969Y-92.361
X292.35Y-54.261
X297.113Y-73.311
X301.875Y-111.411
X301.875Y-130.461
X301.907Y-100.616
X304.288Y-62.516
X320.925Y-54.261
X320.925Y-73.311
X320.925Y-92.361
X320.925Y-111.411
X320.925Y-130.461
T0
M30
