G04 #@! TF.GenerationSoftware,KiCad,Pcbnew,(6.0.2)*
G04 #@! TF.CreationDate,2022-08-27T10:29:13-07:00*
G04 #@! TF.ProjectId,Alps68,416c7073-3638-42e6-9b69-6361645f7063,A*
G04 #@! TF.SameCoordinates,Original*
G04 #@! TF.FileFunction,Copper,L1,Top*
G04 #@! TF.FilePolarity,Positive*
%FSLAX46Y46*%
G04 Gerber Fmt 4.6, Leading zero omitted, Abs format (unit mm)*
G04 Created by KiCad (PCBNEW (6.0.2)) date 2022-08-27 10:29:13*
%MOMM*%
%LPD*%
G01*
G04 APERTURE LIST*
G04 Aperture macros list*
%AMHorizOval*
0 Thick line with rounded ends*
0 $1 width*
0 $2 $3 position (X,Y) of the first rounded end (center of the circle)*
0 $4 $5 position (X,Y) of the second rounded end (center of the circle)*
0 Add line between two ends*
20,1,$1,$2,$3,$4,$5,0*
0 Add two circle primitives to create the rounded ends*
1,1,$1,$2,$3*
1,1,$1,$4,$5*%
G04 Aperture macros list end*
G04 #@! TA.AperFunction,ComponentPad*
%ADD10C,2.250000*%
G04 #@! TD*
G04 #@! TA.AperFunction,ComponentPad*
%ADD11HorizOval,2.250000X0.655008X0.729993X-0.655008X-0.729993X0*%
G04 #@! TD*
G04 #@! TA.AperFunction,ComponentPad*
%ADD12HorizOval,2.250000X0.020004X0.290000X-0.020004X-0.290000X0*%
G04 #@! TD*
G04 #@! TA.AperFunction,ComponentPad*
%ADD13C,0.800000*%
G04 #@! TD*
G04 #@! TA.AperFunction,ComponentPad*
%ADD14C,6.400000*%
G04 #@! TD*
G04 #@! TA.AperFunction,ComponentPad*
%ADD15C,5.400000*%
G04 #@! TD*
G04 #@! TA.AperFunction,ComponentPad*
%ADD16O,1.000000X2.100000*%
G04 #@! TD*
G04 #@! TA.AperFunction,ComponentPad*
%ADD17O,1.000000X1.600000*%
G04 #@! TD*
G04 #@! TA.AperFunction,ComponentPad*
%ADD18R,1.700000X1.700000*%
G04 #@! TD*
G04 #@! TA.AperFunction,ComponentPad*
%ADD19O,1.700000X1.700000*%
G04 #@! TD*
G04 #@! TA.AperFunction,ViaPad*
%ADD20C,0.800000*%
G04 #@! TD*
G04 #@! TA.AperFunction,ViaPad*
%ADD21C,0.600000*%
G04 #@! TD*
G04 #@! TA.AperFunction,Conductor*
%ADD22C,0.300000*%
G04 #@! TD*
G04 #@! TA.AperFunction,Conductor*
%ADD23C,0.250000*%
G04 #@! TD*
G04 APERTURE END LIST*
D10*
X166025000Y-50260660D03*
D11*
X165370008Y-50990667D03*
D12*
X171045004Y-49470660D03*
D10*
X171065000Y-49180660D03*
X227937500Y-107410660D03*
D11*
X227282508Y-108140667D03*
D10*
X232977500Y-106330660D03*
D12*
X232957504Y-106620660D03*
D10*
X35056250Y-126460660D03*
D11*
X34401258Y-127190667D03*
D12*
X40076254Y-125670660D03*
D10*
X40096250Y-125380660D03*
X194600000Y-69310660D03*
D11*
X193945008Y-70040667D03*
D12*
X199620004Y-68520660D03*
D10*
X199640000Y-68230660D03*
X89825000Y-50260660D03*
D11*
X89170008Y-50990667D03*
D12*
X94845004Y-49470660D03*
D10*
X94865000Y-49180660D03*
D11*
X51070008Y-50990667D03*
D10*
X51725000Y-50260660D03*
X56765000Y-49180660D03*
D12*
X56745004Y-49470660D03*
D11*
X136795008Y-70040667D03*
D10*
X137450000Y-69310660D03*
D12*
X142470004Y-68520660D03*
D10*
X142490000Y-68230660D03*
D11*
X217757508Y-89090667D03*
D10*
X218412500Y-88360660D03*
X223452500Y-87280660D03*
D12*
X223432504Y-87570660D03*
D13*
X313087676Y-122717196D03*
X313087676Y-119123084D03*
X309693564Y-119123084D03*
X309693564Y-122717196D03*
D14*
X311390620Y-120920140D03*
D13*
X311390620Y-123320140D03*
X311390620Y-118520140D03*
D10*
X294612500Y-69310660D03*
D11*
X293957508Y-70040667D03*
D12*
X299632504Y-68520660D03*
D10*
X299652500Y-68230660D03*
X108875000Y-50260660D03*
D11*
X108220008Y-50990667D03*
D10*
X113915000Y-49180660D03*
D12*
X113895004Y-49470660D03*
D10*
X280325000Y-126460660D03*
D11*
X279670008Y-127190667D03*
D12*
X285345004Y-125670660D03*
D10*
X285365000Y-125380660D03*
X318425000Y-69310660D03*
D11*
X317770008Y-70040667D03*
D12*
X323445004Y-68520660D03*
D10*
X323465000Y-68230660D03*
D11*
X84407508Y-89090667D03*
D10*
X85062500Y-88360660D03*
X90102500Y-87280660D03*
D12*
X90082504Y-87570660D03*
D10*
X70775000Y-50260660D03*
D11*
X70120008Y-50990667D03*
D10*
X75815000Y-49180660D03*
D12*
X75795004Y-49470660D03*
D11*
X122507508Y-89090667D03*
D10*
X123162500Y-88360660D03*
D12*
X128182504Y-87570660D03*
D10*
X128202500Y-87280660D03*
X118400000Y-69310660D03*
D11*
X117745008Y-70040667D03*
D12*
X123420004Y-68520660D03*
D10*
X123440000Y-68230660D03*
D11*
X208232508Y-108140667D03*
D10*
X208887500Y-107410660D03*
X213927500Y-106330660D03*
D12*
X213907504Y-106620660D03*
D11*
X255857508Y-89090667D03*
D10*
X256512500Y-88360660D03*
X261552500Y-87280660D03*
D12*
X261532504Y-87570660D03*
D10*
X44581250Y-107410660D03*
D11*
X43926258Y-108140667D03*
D12*
X49601254Y-106620660D03*
D10*
X49621250Y-106330660D03*
D11*
X270145008Y-70040667D03*
D10*
X270800000Y-69310660D03*
X275840000Y-68230660D03*
D12*
X275820004Y-68520660D03*
D11*
X184420008Y-50990667D03*
D10*
X185075000Y-50260660D03*
X190115000Y-49180660D03*
D12*
X190095004Y-49470660D03*
D10*
X161262500Y-88360660D03*
D11*
X160607508Y-89090667D03*
D12*
X166282504Y-87570660D03*
D10*
X166302500Y-87280660D03*
X58868750Y-126460660D03*
D11*
X58213758Y-127190667D03*
D12*
X63888754Y-125670660D03*
D10*
X63908750Y-125380660D03*
D11*
X65357508Y-89090667D03*
D10*
X66012500Y-88360660D03*
D12*
X71032504Y-87570660D03*
D10*
X71052500Y-87280660D03*
X32675000Y-50260660D03*
D11*
X32020008Y-50990667D03*
D12*
X37695004Y-49470660D03*
D10*
X37715000Y-49180660D03*
D15*
X63659140Y-54347020D03*
D10*
X189837500Y-107410660D03*
D11*
X189182508Y-108140667D03*
D12*
X194857504Y-106620660D03*
D10*
X194877500Y-106330660D03*
D11*
X112982508Y-108140667D03*
D10*
X113637500Y-107410660D03*
D12*
X118657504Y-106620660D03*
D10*
X118677500Y-106330660D03*
X232700000Y-69310660D03*
D11*
X232045008Y-70040667D03*
D12*
X237720004Y-68520660D03*
D10*
X237740000Y-68230660D03*
D11*
X132032508Y-108140667D03*
D10*
X132687500Y-107410660D03*
X137727500Y-106330660D03*
D12*
X137707504Y-106620660D03*
D11*
X36782508Y-70040667D03*
D10*
X37437500Y-69310660D03*
X42477500Y-68230660D03*
D12*
X42457504Y-68520660D03*
D10*
X75537500Y-107410660D03*
D11*
X74882508Y-108140667D03*
D10*
X80577500Y-106330660D03*
D12*
X80557504Y-106620660D03*
D10*
X170787500Y-107410660D03*
D11*
X170132508Y-108140667D03*
D12*
X175807504Y-106620660D03*
D10*
X175827500Y-106330660D03*
D11*
X317770008Y-127190667D03*
D10*
X318425000Y-126460660D03*
D12*
X323445004Y-125670660D03*
D10*
X323465000Y-125380660D03*
X199362500Y-88360660D03*
D11*
X198707508Y-89090667D03*
D10*
X204402500Y-87280660D03*
D12*
X204382504Y-87570660D03*
D11*
X39163758Y-89090667D03*
D10*
X39818750Y-88360660D03*
D12*
X44838754Y-87570660D03*
D10*
X44858750Y-87280660D03*
D11*
X103457508Y-89090667D03*
D10*
X104112500Y-88360660D03*
X109152500Y-87280660D03*
D12*
X109132504Y-87570660D03*
D10*
X318425000Y-88360660D03*
D11*
X317770008Y-89090667D03*
D12*
X323445004Y-87570660D03*
D10*
X323465000Y-87280660D03*
X213650000Y-69310660D03*
D11*
X212995008Y-70040667D03*
D12*
X218670004Y-68520660D03*
D10*
X218690000Y-68230660D03*
X318425000Y-50260660D03*
D11*
X317770008Y-50990667D03*
D12*
X323445004Y-49470660D03*
D10*
X323465000Y-49180660D03*
X204125000Y-50260660D03*
D11*
X203470008Y-50990667D03*
D10*
X209165000Y-49180660D03*
D12*
X209145004Y-49470660D03*
D10*
X273181250Y-107410660D03*
D11*
X272526258Y-108140667D03*
D10*
X278221250Y-106330660D03*
D12*
X278201254Y-106620660D03*
D11*
X151082508Y-108140667D03*
D10*
X151737500Y-107410660D03*
X156777500Y-106330660D03*
D12*
X156757504Y-106620660D03*
D10*
X246987500Y-107410660D03*
D11*
X246332508Y-108140667D03*
D12*
X252007504Y-106620660D03*
D10*
X252027500Y-106330660D03*
X127925000Y-50260660D03*
D11*
X127270008Y-50990667D03*
D12*
X132945004Y-49470660D03*
D10*
X132965000Y-49180660D03*
X287468750Y-88360660D03*
D11*
X286813758Y-89090667D03*
D10*
X292508750Y-87280660D03*
D12*
X292488754Y-87570660D03*
D10*
X299375000Y-126460660D03*
D11*
X298720008Y-127190667D03*
D12*
X304395004Y-125670660D03*
D10*
X304415000Y-125380660D03*
D13*
X187600980Y-75710660D03*
X189298036Y-71513604D03*
D14*
X187600980Y-73310660D03*
D13*
X185903924Y-75107716D03*
X185903924Y-71513604D03*
X189298036Y-75107716D03*
X187600980Y-70910660D03*
D14*
X273366620Y-54301300D03*
D13*
X271669564Y-56098356D03*
X273366620Y-51901300D03*
X271669564Y-52504244D03*
X275063676Y-56098356D03*
X273366620Y-56701300D03*
X275063676Y-52504244D03*
X52341236Y-128638204D03*
X52341236Y-132232316D03*
X50644180Y-132835260D03*
X48947124Y-128638204D03*
X50644180Y-128035260D03*
D14*
X50644180Y-130435260D03*
D13*
X48947124Y-132232316D03*
D10*
X146975000Y-50260660D03*
D11*
X146320008Y-50990667D03*
D12*
X151995004Y-49470660D03*
D10*
X152015000Y-49180660D03*
D13*
X155973236Y-90563604D03*
D14*
X154276180Y-92360660D03*
D13*
X155973236Y-94157716D03*
X154276180Y-89960660D03*
X152579124Y-90563604D03*
X154276180Y-94760660D03*
X152579124Y-94157716D03*
D10*
X242225000Y-126460660D03*
D11*
X241570008Y-127190667D03*
D12*
X247245004Y-125670660D03*
D10*
X247265000Y-125380660D03*
D11*
X153463758Y-127190667D03*
D10*
X154118750Y-126460660D03*
D12*
X159138754Y-125670660D03*
D10*
X159158750Y-125380660D03*
D11*
X82026258Y-127190667D03*
D10*
X82681250Y-126460660D03*
X87721250Y-125380660D03*
D12*
X87701254Y-125670660D03*
D11*
X222520008Y-127190667D03*
D10*
X223175000Y-126460660D03*
X228215000Y-125380660D03*
D12*
X228195004Y-125670660D03*
D10*
X261275000Y-50260660D03*
D11*
X260620008Y-50990667D03*
D12*
X266295004Y-49470660D03*
D10*
X266315000Y-49180660D03*
X156500000Y-69310660D03*
D11*
X155845008Y-70040667D03*
D12*
X161520004Y-68520660D03*
D10*
X161540000Y-68230660D03*
D11*
X179657508Y-89090667D03*
D10*
X180312500Y-88360660D03*
D12*
X185332504Y-87570660D03*
D10*
X185352500Y-87280660D03*
X99350000Y-69310660D03*
D11*
X98695008Y-70040667D03*
D12*
X104370004Y-68520660D03*
D10*
X104390000Y-68230660D03*
X61250000Y-69310660D03*
D11*
X60595008Y-70040667D03*
D10*
X66290000Y-68230660D03*
D12*
X66270004Y-68520660D03*
D15*
X50146340Y-73320820D03*
D13*
X87570700Y-109056380D03*
X89267756Y-113253436D03*
D14*
X87570700Y-111456380D03*
D13*
X89267756Y-109659324D03*
X87570700Y-113856380D03*
X85873644Y-113253436D03*
X85873644Y-109659324D03*
D11*
X241570008Y-50990667D03*
D10*
X242225000Y-50260660D03*
X247265000Y-49180660D03*
D12*
X247245004Y-49470660D03*
D10*
X318425000Y-107410660D03*
D11*
X317770008Y-108140667D03*
D10*
X323465000Y-106330660D03*
D12*
X323445004Y-106620660D03*
D10*
X251750000Y-69310660D03*
D11*
X251095008Y-70040667D03*
D12*
X256770004Y-68520660D03*
D10*
X256790000Y-68230660D03*
D11*
X260620008Y-127190667D03*
D10*
X261275000Y-126460660D03*
D12*
X266295004Y-125670660D03*
D10*
X266315000Y-125380660D03*
X223175000Y-50260660D03*
D11*
X222520008Y-50990667D03*
D12*
X228195004Y-49470660D03*
D10*
X228215000Y-49180660D03*
D11*
X141557508Y-89090667D03*
D10*
X142212500Y-88360660D03*
X147252500Y-87280660D03*
D12*
X147232504Y-87570660D03*
D11*
X93932508Y-108140667D03*
D10*
X94587500Y-107410660D03*
D12*
X99607504Y-106620660D03*
D10*
X99627500Y-106330660D03*
D14*
X213102580Y-130343820D03*
D13*
X211405524Y-132140876D03*
X213102580Y-132743820D03*
X213102580Y-127943820D03*
X214799636Y-128546764D03*
X211405524Y-128546764D03*
X214799636Y-132140876D03*
D10*
X289850000Y-50260660D03*
D11*
X289195008Y-50990667D03*
D12*
X294870004Y-49470660D03*
D10*
X294890000Y-49180660D03*
D11*
X298720008Y-108140667D03*
D10*
X299375000Y-107410660D03*
D12*
X304395004Y-106620660D03*
D10*
X304415000Y-106330660D03*
D11*
X236807508Y-89090667D03*
D10*
X237462500Y-88360660D03*
D12*
X242482504Y-87570660D03*
D10*
X242502500Y-87280660D03*
D13*
X285146804Y-71478044D03*
X288540916Y-75072156D03*
X288540916Y-71478044D03*
X285146804Y-75072156D03*
X286843860Y-70875100D03*
D14*
X286843860Y-73275100D03*
D13*
X286843860Y-75675100D03*
D10*
X80300000Y-69310660D03*
D11*
X79645008Y-70040667D03*
D10*
X85340000Y-68230660D03*
D12*
X85320004Y-68520660D03*
D11*
X174895008Y-70040667D03*
D10*
X175550000Y-69310660D03*
D12*
X180570004Y-68520660D03*
D10*
X180590000Y-68230660D03*
D16*
X48192340Y-50979720D03*
D17*
X39552340Y-46799720D03*
X48192340Y-46799720D03*
D16*
X39552340Y-50979720D03*
D18*
X135527693Y-132859424D03*
D19*
X135527693Y-135399424D03*
X138067693Y-132859424D03*
X138067693Y-135399424D03*
X140607693Y-132859424D03*
X140607693Y-135399424D03*
X143147693Y-132859424D03*
X143147693Y-135399424D03*
D20*
X46604897Y-54343603D03*
X121695740Y-127804260D03*
X118900000Y-124300000D03*
X44196000Y-54356000D03*
X130650000Y-120900000D03*
X119500000Y-119350000D03*
D21*
X45093500Y-53450088D03*
X47361480Y-54949580D03*
X98044000Y-117856000D03*
X119390500Y-117231500D03*
X128087145Y-117163160D03*
X170180000Y-117114619D03*
X189230000Y-117114619D03*
D20*
X116836000Y-125253660D03*
X132965000Y-124491660D03*
X129800000Y-121820000D03*
X117598000Y-134524660D03*
X115814000Y-126275660D03*
X136719260Y-124661660D03*
D21*
X50649000Y-59360660D03*
X41251000Y-59360660D03*
X59462260Y-78410660D03*
X54050340Y-78410660D03*
X58216942Y-97460660D03*
X63857000Y-97460660D03*
X61960804Y-115940119D03*
X66787119Y-115940119D03*
X118034760Y-133528760D03*
X121412000Y-132715000D03*
X121158000Y-128739691D03*
X121071000Y-127040000D03*
X124571000Y-127080000D03*
X135760000Y-127565660D03*
D22*
X118900000Y-126555660D02*
X118900000Y-124300000D01*
X121695740Y-127804260D02*
X120148600Y-127804260D01*
X44208397Y-54343603D02*
X44196000Y-54356000D01*
X120148600Y-127804260D02*
X118900000Y-126555660D01*
X46604897Y-54343603D02*
X44208397Y-54343603D01*
X130650000Y-120900000D02*
X129100000Y-119350000D01*
X129100000Y-119350000D02*
X119500000Y-119350000D01*
D23*
X47361480Y-54949580D02*
X47361480Y-54075572D01*
X47361480Y-54075572D02*
X46735996Y-53450088D01*
X46735996Y-53450088D02*
X45093500Y-53450088D01*
X44581250Y-107410660D02*
X39112000Y-101941410D01*
X37437500Y-69310660D02*
X32000000Y-63873160D01*
X43938000Y-117578910D02*
X43938000Y-109537410D01*
X36826000Y-85367910D02*
X36826000Y-71469160D01*
X32000000Y-52355660D02*
X31365000Y-51720660D01*
X43938000Y-109537410D02*
X43271250Y-108870660D01*
X36826000Y-71469160D02*
X36127500Y-70770660D01*
X39818750Y-88360660D02*
X36826000Y-85367910D01*
X39112000Y-101941410D02*
X39112000Y-90423910D01*
X32000000Y-63873160D02*
X32000000Y-52355660D01*
X35056250Y-126460660D02*
X43938000Y-117578910D01*
X39112000Y-90423910D02*
X38508750Y-89820660D01*
X51373511Y-59434171D02*
X51373511Y-52679171D01*
X65532000Y-90650160D02*
X64702500Y-89820660D01*
X60448000Y-82796160D02*
X60448000Y-71278660D01*
X51373511Y-52679171D02*
X50415000Y-51720660D01*
X58868750Y-126460660D02*
X67560000Y-117769410D01*
X60448000Y-71278660D02*
X59940000Y-70770660D01*
X67560000Y-117769410D02*
X67560000Y-98294000D01*
X66012500Y-88360660D02*
X60448000Y-82796160D01*
X67560000Y-98294000D02*
X65532000Y-96266000D01*
X65532000Y-96266000D02*
X65532000Y-90650160D01*
X61250000Y-69310660D02*
X51373511Y-59434171D01*
X74926000Y-118705410D02*
X74926000Y-109569160D01*
X79752000Y-71532660D02*
X78990000Y-70770660D01*
X70100000Y-52355660D02*
X69465000Y-51720660D01*
X84578000Y-98370160D02*
X84578000Y-90646160D01*
X85062500Y-88360660D02*
X79752000Y-83050160D01*
X82681250Y-126460660D02*
X74926000Y-118705410D01*
X84578000Y-90646160D02*
X83752500Y-89820660D01*
X75537500Y-107410660D02*
X84578000Y-98370160D01*
X80300000Y-69310660D02*
X70100000Y-59110660D01*
X70100000Y-59110660D02*
X70100000Y-52355660D01*
X79752000Y-83050160D02*
X79752000Y-71532660D01*
X74926000Y-109569160D02*
X74227500Y-108870660D01*
X89150000Y-52355660D02*
X88515000Y-51720660D01*
X94587500Y-107410660D02*
X103374000Y-98624160D01*
X98802000Y-83050160D02*
X98802000Y-71532660D01*
X93980000Y-110236000D02*
X93980000Y-113792000D01*
X104112500Y-88360660D02*
X98802000Y-83050160D01*
X103374000Y-98624160D02*
X103374000Y-90392160D01*
X98802000Y-71532660D02*
X98040000Y-70770660D01*
X93980000Y-110236000D02*
X93980000Y-109573160D01*
X89150000Y-59110660D02*
X89150000Y-52355660D01*
X98044000Y-117856000D02*
X93980000Y-113792000D01*
X103374000Y-90392160D02*
X102802500Y-89820660D01*
X99350000Y-69310660D02*
X89150000Y-59110660D01*
X93980000Y-109573160D02*
X93277500Y-108870660D01*
X113637500Y-107410660D02*
X122424000Y-98624160D01*
X113030000Y-114554000D02*
X115707500Y-117231500D01*
X113030000Y-109573160D02*
X113030000Y-114554000D01*
X123162500Y-88360660D02*
X117598000Y-82796160D01*
X118400000Y-69310660D02*
X108200000Y-59110660D01*
X117598000Y-71278660D02*
X117090000Y-70770660D01*
X108200000Y-52355660D02*
X107565000Y-51720660D01*
X108200000Y-59110660D02*
X108200000Y-52355660D01*
X115707500Y-117231500D02*
X119390500Y-117231500D01*
X122424000Y-90392160D02*
X121852500Y-89820660D01*
X122424000Y-98624160D02*
X122424000Y-90392160D01*
X117598000Y-82796160D02*
X117598000Y-71278660D01*
X112327500Y-108870660D02*
X113030000Y-109573160D01*
X141474000Y-90392160D02*
X140902500Y-89820660D01*
X132687500Y-107410660D02*
X141474000Y-98624160D01*
X136902000Y-83050160D02*
X136902000Y-71532660D01*
X132076000Y-113174305D02*
X132076000Y-109569160D01*
X141474000Y-98624160D02*
X141474000Y-90392160D01*
X137450000Y-69310660D02*
X127250000Y-59110660D01*
X127250000Y-52355660D02*
X126615000Y-51720660D01*
X136902000Y-71532660D02*
X136140000Y-70770660D01*
X128087145Y-117163160D02*
X132076000Y-113174305D01*
X132076000Y-109569160D02*
X131377500Y-108870660D01*
X127250000Y-59110660D02*
X127250000Y-52355660D01*
X142212500Y-88360660D02*
X136902000Y-83050160D01*
X146300000Y-59110660D02*
X146300000Y-52355660D01*
X161262500Y-88360660D02*
X155952000Y-83050160D01*
X160778000Y-98370160D02*
X160778000Y-90646160D01*
X160778000Y-90646160D02*
X159952500Y-89820660D01*
X155952000Y-83050160D02*
X155952000Y-71532660D01*
X151126000Y-109569160D02*
X150427500Y-108870660D01*
X154118750Y-126460660D02*
X151126000Y-123467910D01*
X155952000Y-71532660D02*
X155190000Y-70770660D01*
X156500000Y-69310660D02*
X146300000Y-59110660D01*
X146300000Y-52355660D02*
X145665000Y-51720660D01*
X151126000Y-123467910D02*
X151126000Y-109569160D01*
X151737500Y-107410660D02*
X160778000Y-98370160D01*
X170176000Y-109569160D02*
X170176000Y-111791660D01*
X170176000Y-111791660D02*
X170176000Y-117014619D01*
X170176000Y-117014619D02*
X170176000Y-117110619D01*
X175550000Y-69310660D02*
X165350000Y-59110660D01*
X165350000Y-52355660D02*
X164715000Y-51720660D01*
X169477500Y-108870660D02*
X170176000Y-109569160D01*
X180312500Y-88360660D02*
X175002000Y-83050160D01*
X175002000Y-71532660D02*
X174240000Y-70770660D01*
X175002000Y-83050160D02*
X175002000Y-71532660D01*
X170787500Y-107410660D02*
X179574000Y-98624160D01*
X179574000Y-90392160D02*
X179002500Y-89820660D01*
X170176000Y-117110619D02*
X170180000Y-117114619D01*
X179574000Y-98624160D02*
X179574000Y-90392160D01*
X165350000Y-59110660D02*
X165350000Y-52355660D01*
X189226000Y-111537660D02*
X189226000Y-117014619D01*
X189226000Y-109569160D02*
X188527500Y-108870660D01*
X184400000Y-52355660D02*
X183765000Y-51720660D01*
X194600000Y-69310660D02*
X184400000Y-59110660D01*
X198624000Y-90392160D02*
X198052500Y-89820660D01*
X189837500Y-107410660D02*
X198624000Y-98624160D01*
X194052000Y-71532660D02*
X193290000Y-70770660D01*
X184400000Y-59110660D02*
X184400000Y-52355660D01*
X199362500Y-88360660D02*
X194052000Y-83050160D01*
X189226000Y-111537660D02*
X189226000Y-109569160D01*
X189226000Y-117014619D02*
X189226000Y-117110619D01*
X189226000Y-117110619D02*
X189230000Y-117114619D01*
X194052000Y-83050160D02*
X194052000Y-71532660D01*
X198624000Y-98624160D02*
X198624000Y-90392160D01*
X213102000Y-83050160D02*
X213102000Y-71532660D01*
X213102000Y-71532660D02*
X212340000Y-70770660D01*
X218412500Y-88360660D02*
X213102000Y-83050160D01*
X223175000Y-126460660D02*
X218373000Y-126460660D01*
X203450000Y-52355660D02*
X202815000Y-51720660D01*
X203450000Y-59110660D02*
X203450000Y-52355660D01*
X208276000Y-116363660D02*
X208276000Y-109569160D01*
X208887500Y-107410660D02*
X217674000Y-98624160D01*
X217674000Y-98624160D02*
X217674000Y-90392160D01*
X217674000Y-90392160D02*
X217102500Y-89820660D01*
X213650000Y-69310660D02*
X203450000Y-59110660D01*
X218373000Y-126460660D02*
X208276000Y-116363660D01*
X208276000Y-109569160D02*
X207577500Y-108870660D01*
X236978000Y-90646160D02*
X236152500Y-89820660D01*
X232700000Y-69310660D02*
X222500000Y-59110660D01*
X227326000Y-115855660D02*
X227326000Y-109569160D01*
X237931000Y-126460660D02*
X227326000Y-115855660D01*
X242225000Y-126460660D02*
X237931000Y-126460660D01*
X236978000Y-98370160D02*
X236978000Y-90646160D01*
X227326000Y-109569160D02*
X226627500Y-108870660D01*
X232152000Y-83050160D02*
X232152000Y-71532660D01*
X222500000Y-52355660D02*
X221865000Y-51720660D01*
X227937500Y-107410660D02*
X236978000Y-98370160D01*
X222500000Y-59110660D02*
X222500000Y-52355660D01*
X232152000Y-71532660D02*
X231390000Y-70770660D01*
X237462500Y-88360660D02*
X232152000Y-83050160D01*
X251202000Y-83050160D02*
X251202000Y-71532660D01*
X255774000Y-90392160D02*
X255202500Y-89820660D01*
X251750000Y-69310660D02*
X241550000Y-59110660D01*
X241550000Y-52355660D02*
X240915000Y-51720660D01*
X246376000Y-116109660D02*
X246376000Y-109569160D01*
X246987500Y-107410660D02*
X255774000Y-98624160D01*
X255774000Y-98624160D02*
X255774000Y-90392160D01*
X256727000Y-126460660D02*
X246376000Y-116109660D01*
X251202000Y-71532660D02*
X250440000Y-70770660D01*
X241550000Y-59110660D02*
X241550000Y-52355660D01*
X256512500Y-88360660D02*
X251202000Y-83050160D01*
X246376000Y-109569160D02*
X245677500Y-108870660D01*
X261275000Y-126460660D02*
X256727000Y-126460660D01*
X273181250Y-107410660D02*
X270252000Y-104481410D01*
X270252000Y-104481410D02*
X270252000Y-71532660D01*
X270800000Y-69310660D02*
X260600000Y-59110660D01*
X272538000Y-109537410D02*
X271871250Y-108870660D01*
X270252000Y-71532660D02*
X269490000Y-70770660D01*
X280325000Y-126460660D02*
X272538000Y-118673660D01*
X260600000Y-52355660D02*
X259965000Y-51720660D01*
X272538000Y-118673660D02*
X272538000Y-109537410D01*
X260600000Y-59110660D02*
X260600000Y-52355660D01*
X298700000Y-109505660D02*
X298700000Y-125785660D01*
X286762000Y-99091660D02*
X290318000Y-102647660D01*
X286158750Y-89820660D02*
X286762000Y-90423910D01*
X298700000Y-125785660D02*
X299375000Y-126460660D01*
X294612500Y-69310660D02*
X289302000Y-64000160D01*
X293874000Y-71342160D02*
X293302500Y-70770660D01*
X289302000Y-64000160D02*
X289302000Y-52482660D01*
X290318000Y-102647660D02*
X294612000Y-102647660D01*
X298065000Y-108870660D02*
X298700000Y-109505660D01*
X294612000Y-102647660D02*
X299375000Y-107410660D01*
X289302000Y-52482660D02*
X288540000Y-51720660D01*
X286762000Y-90423910D02*
X286762000Y-99091660D01*
X293874000Y-81955410D02*
X293874000Y-71342160D01*
X287468750Y-88360660D02*
X293874000Y-81955410D01*
X317750000Y-90455660D02*
X317115000Y-89820660D01*
X317750000Y-125785660D02*
X318425000Y-126460660D01*
X318425000Y-107410660D02*
X317750000Y-106735660D01*
X317115000Y-108870660D02*
X317750000Y-109505660D01*
X317750000Y-68635660D02*
X317750000Y-52355660D01*
X317750000Y-87685660D02*
X318425000Y-88360660D01*
X317750000Y-71405660D02*
X317750000Y-87685660D01*
X317750000Y-52355660D02*
X317115000Y-51720660D01*
X317750000Y-106735660D02*
X317750000Y-90455660D01*
X317750000Y-109505660D02*
X317750000Y-125785660D01*
X317115000Y-70770660D02*
X317750000Y-71405660D01*
X318425000Y-69310660D02*
X317750000Y-68635660D01*
D22*
X130298000Y-121824660D02*
X129663000Y-121824660D01*
X119119000Y-136045660D02*
X132341457Y-136045660D01*
X117598000Y-134524660D02*
X119119000Y-136045660D01*
X116836000Y-125253660D02*
X120265000Y-121824660D01*
X115814000Y-126275660D02*
X115814000Y-132740660D01*
X132965000Y-124491660D02*
X130298000Y-121824660D01*
X115814000Y-126275660D02*
X116836000Y-125253660D01*
X120265000Y-121824660D02*
X129663000Y-121824660D01*
X132341457Y-136045660D02*
X135527693Y-132859424D01*
X136719260Y-124661660D02*
X133135000Y-124661660D01*
X115814000Y-132740660D02*
X117598000Y-134524660D01*
X133135000Y-124661660D02*
X132965000Y-124491660D01*
D23*
X41251000Y-59360660D02*
X50649000Y-59360660D01*
X59462260Y-78410660D02*
X54050340Y-78410660D01*
X63857000Y-97460660D02*
X58216942Y-97460660D01*
X61960804Y-115940119D02*
X66787119Y-115940119D01*
X118848520Y-132715000D02*
X121412000Y-132715000D01*
X118034760Y-133528760D02*
X118848520Y-132715000D01*
X121158000Y-128739691D02*
X133947959Y-128739691D01*
X138067693Y-132859424D02*
X133947959Y-128739691D01*
X121071000Y-127040000D02*
X122096423Y-127040000D01*
X122096423Y-127040000D02*
X123317000Y-128260577D01*
X123317000Y-128270000D02*
X123337171Y-128290171D01*
X136038440Y-128290171D02*
X140607693Y-132859424D01*
X123317000Y-128260577D02*
X123317000Y-128270000D01*
X123337171Y-128290171D02*
X136038440Y-128290171D01*
X135760000Y-127565660D02*
X125056660Y-127565660D01*
X125056660Y-127565660D02*
X124571000Y-127080000D01*
M02*
